<svg width="10" height="12" viewBox="0 0 10 12" fill="none" xmlns="http://www.w3.org/2000/svg">
<path d="M7.06732 1.0601C7.06732 0.474621 7.54194 0 8.12742 0C8.71289 0 9.18751 0.474621 9.18751 1.0601V7.42067C9.18751 8.00615 8.71289 8.48077 8.12742 8.48077C7.54194 8.48077 7.06732 8.00615 7.06732 7.42067V1.0601Z" fill="#FF7A27"/>
<path d="M3.53366 3.887C3.53366 3.30153 4.00828 2.8269 4.59376 2.8269C5.17923 2.8269 5.65385 3.30153 5.65385 3.887V8.83412C5.65385 9.41959 5.17923 9.89421 4.59376 9.89421C4.00828 9.89421 3.53366 9.41959 3.53366 8.83412V3.887Z" fill="#FF7A27"/>
<path d="M0 6.7139C0 6.12843 0.474621 5.65381 1.0601 5.65381C1.64557 5.65381 2.12019 6.12843 2.12019 6.71391V10.2476C2.12019 10.833 1.64557 11.3077 1.0601 11.3077C0.474621 11.3077 0 10.833 0 10.2476V6.7139Z" fill="#FF7A27"/>
</svg>
