<svg width="131" height="57" viewBox="0 0 131 57" fill="none" xmlns="http://www.w3.org/2000/svg">
<path d="M0 7C0 3.13401 3.13401 0 7 0H123.601C127.467 0 130.601 3.13401 130.601 7V49.3958C130.601 53.2618 127.467 56.3958 123.601 56.3958H7.00001C3.13401 56.3958 0 53.2618 0 49.3958V7Z" fill="white"/>
<path d="M0.325008 7C0.325008 3.3135 3.3135 0.325008 7 0.325008H123.601C127.287 0.325008 130.276 3.3135 130.276 7V49.3958C130.276 53.0823 127.287 56.0708 123.601 56.0708H7.00001C3.31351 56.0708 0.325008 53.0823 0.325008 49.3958V7Z" stroke="#BBBBBB" stroke-opacity="0.5" stroke-width="0.650015"/>
<path d="M54.2531 24.6298H50.7667V35.6985H54.2531V24.6298Z" fill="#1D1D1B"/>
<path d="M52.5104 19.2941C51.3921 19.2941 50.4399 20.1263 50.4399 21.207C50.4399 22.2877 51.3921 23.1199 52.5104 23.1199C53.6286 23.1199 54.5808 22.2877 54.5808 21.207C54.5808 20.1263 53.6286 19.2941 52.5104 19.2941Z" fill="#1D1D1B"/>
<path d="M42.9662 24.361C41.7699 24.361 40.7628 24.6688 39.9711 25.2351V19.4357H36.5743V29.5378C36.5743 33.5963 39.3686 35.9657 42.6974 35.9657C46.0263 35.9657 48.9564 33.6685 48.9564 30.1634C48.9564 26.6597 46.1751 24.361 42.9662 24.361ZM42.8087 33.0198C41.2281 33.0198 39.948 31.7411 39.948 30.1634C39.948 28.5857 41.2295 27.307 42.8087 27.307C44.3879 27.307 45.6694 28.5857 45.6694 30.1634C45.6709 31.7411 44.3893 33.0198 42.8087 33.0198Z" fill="#1D1D1B"/>
<path d="M75.6663 24.3611C72.4574 24.3611 69.4969 26.6583 69.4969 30.1634C69.4969 33.6686 72.4559 35.9658 75.6663 35.9658C78.8752 35.9658 81.8356 33.6686 81.8356 30.1634C81.8356 26.6598 78.8752 24.3611 75.6663 24.3611ZM75.6663 33.0198C74.0857 33.0198 72.8056 31.7412 72.8056 30.1634C72.8056 28.5857 74.0871 27.3071 75.6663 27.3071C77.2469 27.3071 78.527 28.5857 78.527 30.1634C78.527 31.7412 77.2469 33.0198 75.6663 33.0198Z" fill="#1D1D1B"/>
<path d="M62.2991 24.3611C58.781 24.3611 56.5328 26.6583 56.5328 30.1634V35.6985H60.0192V30.4322C60.0192 28.5727 60.743 27.4862 62.2991 27.4862C63.8551 27.4862 64.579 28.5727 64.579 30.4322V35.6985H68.0653V30.1634C68.0653 26.6598 65.8172 24.3611 62.2991 24.3611Z" fill="#1D1D1B"/>
<path d="M109.59 24.3611C106.382 24.3611 103.421 26.6583 103.421 30.1634C103.421 33.6686 106.38 35.9658 109.59 35.9658C112.799 35.9658 115.76 33.6686 115.76 30.1634C115.76 26.6598 112.801 24.3611 109.59 24.3611ZM109.59 33.0198C108.01 33.0198 106.73 31.7412 106.73 30.1634C106.73 28.5857 108.011 27.3071 109.59 27.3071C111.171 27.3071 112.451 28.5857 112.451 30.1634C112.451 31.7412 111.171 33.0198 109.59 33.0198Z" fill="#1D1D1B"/>
<path d="M96.4285 24.3611C94.8103 24.3611 93.5114 24.9448 92.6286 25.9865C91.7473 24.9448 90.4484 24.3611 88.8288 24.3611C85.6762 24.3611 83.285 26.5702 83.285 30.0739V35.6971H86.7714V30.0739C86.7714 28.3921 87.4721 27.4848 88.8273 27.4848C90.1826 27.4848 90.8833 28.3907 90.8833 30.0739V35.6971H94.3696V30.0739C94.3696 28.3921 95.0704 27.4848 96.4256 27.4848C97.7808 27.4848 98.4816 28.3907 98.4816 30.0739V35.6971H101.968V30.0739C101.971 26.5702 99.5811 24.3611 96.4285 24.3611Z" fill="#1D1D1B"/>
<path d="M20.8863 29.8238L24.8566 22.9537C25.5314 21.7863 25.1312 20.2938 23.9623 19.6206C22.7934 18.9473 21.2981 19.346 20.6233 20.5134L16.653 27.3835C15.9783 28.5509 16.3785 30.042 17.5473 30.7167C18.7162 31.3914 20.2116 30.9912 20.8863 29.8238Z" fill="#FFDC3C"/>
<path d="M27.9342 26.4879C26.7654 25.8146 25.27 26.2133 24.5953 27.3808L20.6249 34.2508C19.9502 35.4182 20.3504 36.9093 21.5193 37.584C22.6881 38.2587 24.1835 37.8585 24.8582 36.6911L28.8286 29.821C29.5033 28.6536 29.1031 27.1611 27.9342 26.4879Z" fill="#FFDC3C"/>
</svg>
