<svg width="59" height="58" viewBox="0 0 59 58" fill="none" xmlns="http://www.w3.org/2000/svg">
<path d="M0.102783 7.51415C0.102783 3.64816 3.23679 0.51416 7.10278 0.51416H51.3704C55.2364 0.51416 58.3704 3.64817 58.3704 7.51416V50.0161C58.3704 53.8821 55.2364 57.0161 51.3704 57.0161H7.10278C3.23679 57.0161 0.102783 53.882 0.102783 50.0161V7.51415Z" fill="#3D943B" fill-opacity="0.9"/>
<path d="M0.102783 7.94862C0.102783 3.84268 3.53532 0.51416 7.76957 0.51416H50.7036C54.9378 0.51416 58.3704 3.84268 58.3704 7.94862V49.5816C58.3704 53.6875 54.9378 57.0161 50.7036 57.0161H7.76957C3.53532 57.0161 0.102783 53.6875 0.102783 49.5816V7.94862Z" fill="#3D943B" fill-opacity="0.9"/>
<path d="M15.3861 46.1141C14.6257 46.1141 13.9223 45.9905 13.2759 45.7434C12.639 45.4867 12.083 45.1303 11.6077 44.674C11.142 44.2083 10.776 43.6665 10.5099 43.0486C10.2437 42.4308 10.1106 41.7511 10.1106 41.0097C10.1106 40.2683 10.2437 39.5887 10.5099 38.9709C10.776 38.353 11.1467 37.816 11.622 37.3597C12.0972 36.894 12.6533 36.5375 13.2902 36.2904C13.9365 36.0337 14.6399 35.9054 15.4003 35.9054C16.1703 35.9054 16.8784 36.0385 17.5248 36.3046C18.1806 36.5613 18.7367 36.9462 19.1929 37.4595L18.2662 38.3578C17.886 37.9585 17.4582 37.6639 16.983 37.4738C16.5077 37.2742 15.9992 37.1744 15.4574 37.1744C14.8966 37.1744 14.3738 37.2694 13.889 37.4595C13.4137 37.6496 13.0002 37.9158 12.6486 38.258C12.2969 38.6002 12.0212 39.0089 11.8216 39.4841C11.6315 39.9499 11.5364 40.4584 11.5364 41.0097C11.5364 41.561 11.6315 42.0743 11.8216 42.5496C12.0212 43.0153 12.2969 43.4193 12.6486 43.7615C13.0002 44.1037 13.4137 44.3698 13.889 44.56C14.3738 44.7501 14.8966 44.8451 15.4574 44.8451C15.9992 44.8451 16.5077 44.7501 16.983 44.56C17.4582 44.3603 17.886 44.0562 18.2662 43.6474L19.1929 44.5457C18.7367 45.059 18.1806 45.4487 17.5248 45.7148C16.8784 45.981 16.1655 46.1141 15.3861 46.1141ZM19.6214 46L24.1412 36.0195H25.5527L30.0867 46H28.5897L24.5547 36.8179H25.125L21.09 46H19.6214ZM21.5463 43.5049L21.9312 42.3642H27.5488L27.9623 43.5049H21.5463ZM31.7182 46V36.0195H33.144V44.7596H38.5477V46H31.7182ZM40.3264 46V36.0195H41.7522V44.7596H47.1559V46H40.3264Z" fill="white"/>
<path d="M27.4962 14.3672C28.189 13.2871 29.7661 13.2834 30.4641 14.3602L38.7315 27.1151C39.492 28.2883 38.6521 29.8379 37.2541 29.8412L20.7799 29.8804C19.3819 29.8837 18.5347 28.3382 19.2895 27.1614L27.4962 14.3672Z" fill="white"/>
</svg>
