<svg width="32" height="32" viewBox="0 0 32 32" fill="none" xmlns="http://www.w3.org/2000/svg">
<path d="M0 2C0 0.895432 0.895431 1.90735e-06 2 1.90735e-06H29.9725C31.077 1.90735e-06 31.9725 0.895432 31.9725 2V29.0036C31.9725 30.1082 31.077 31.0036 29.9725 31.0036H2C0.895431 31.0036 0 30.1082 0 29.0036V2Z" fill="#3D943B"/>
<path d="M0 4.07942C0 1.82642 1.88349 1.90735e-06 4.2069 1.90735e-06H27.7656C30.089 1.90735e-06 31.9725 1.82642 31.9725 4.07942V26.9242C31.9725 29.1772 30.089 31.0036 27.7656 31.0036H4.2069C1.88349 31.0036 0 29.1772 0 26.9242V4.07942Z" fill="#3D943B"/>
<path d="M11.0156 20.4373H10.1488C10.1154 20.2521 10.0534 20.0891 9.96263 19.9483C9.87188 19.8075 9.76075 19.6881 9.62924 19.5899C9.49774 19.4917 9.35049 19.4177 9.1875 19.3677C9.02636 19.3176 8.85504 19.2926 8.67352 19.2926C8.34569 19.2926 8.05212 19.3751 7.79282 19.5399C7.53536 19.7047 7.33163 19.9465 7.1816 20.265C7.03343 20.5836 6.95934 20.9726 6.95934 21.4319C6.95934 21.8949 7.03343 22.2857 7.1816 22.6043C7.33163 22.9229 7.53629 23.1637 7.79559 23.3267C8.0549 23.4897 8.34661 23.5712 8.67074 23.5712C8.8504 23.5712 9.0208 23.5471 9.18194 23.4989C9.34493 23.4489 9.49218 23.3757 9.62369 23.2794C9.75519 23.1831 9.86632 23.0655 9.95708 22.9266C10.0497 22.7858 10.1136 22.6247 10.1488 22.4432L11.0156 22.446C10.9693 22.7256 10.8795 22.9831 10.7461 23.2183C10.6146 23.4517 10.4451 23.6536 10.2377 23.824C10.0321 23.9925 9.79686 24.1231 9.532 24.2157C9.26714 24.3083 8.9782 24.3546 8.66519 24.3546C8.17251 24.3546 7.73355 24.2379 7.3483 24.0046C6.96304 23.7693 6.65929 23.4332 6.43703 22.9961C6.21662 22.5589 6.10642 22.0376 6.10642 21.4319C6.10642 20.8244 6.21755 20.303 6.43981 19.8677C6.66207 19.4306 6.96582 19.0954 7.35107 18.862C7.73632 18.6268 8.17436 18.5092 8.66519 18.5092C8.96709 18.5092 9.24862 18.5527 9.50978 18.6398C9.77279 18.7249 10.0089 18.8509 10.2182 19.0176C10.4275 19.1824 10.6007 19.3843 10.7378 19.6233C10.8748 19.8603 10.9674 20.1317 11.0156 20.4373ZM12.5635 24.2768H11.6523L13.6998 18.587H14.6917L16.7392 24.2768H15.828L14.2194 19.6205H14.1749L12.5635 24.2768ZM12.7163 22.0487H15.6724V22.771H12.7163V22.0487ZM17.6391 24.2768V18.587H18.4976V23.5378H21.0758V24.2768H17.6391ZM22.1334 24.2768V18.587H22.9919V23.5378H25.5701V24.2768H22.1334Z" fill="white"/>
<path d="M15.0312 7.60148C15.4114 7.00881 16.2768 7.00675 16.6598 7.5976L21.1963 14.5965C21.6135 15.2402 21.1527 16.0905 20.3856 16.0923L11.3459 16.1138C10.5788 16.1157 10.1139 15.2676 10.5281 14.6219L15.0312 7.60148Z" fill="white"/>
</svg>
