<svg width="131" height="57" viewBox="0 0 131 57" fill="none" xmlns="http://www.w3.org/2000/svg">
<path d="M0 7.00012C0 3.13413 3.13401 0.00012207 7 0.00012207H65.3004H123.601C127.467 0.00012207 130.601 3.13413 130.601 7.00012V49.3959C130.601 53.2619 127.467 56.3959 123.601 56.3959H7.00001C3.13401 56.3959 0 53.2619 0 49.3959V7.00012Z" fill="white"/>
<path d="M0.325008 7.00012C0.325008 3.31363 3.3135 0.32513 7 0.32513H65.3004H123.601C127.287 0.32513 130.276 3.31363 130.276 7.00012V49.3959C130.276 53.0824 127.287 56.0709 123.601 56.0709H7.00001C3.31351 56.0709 0.325008 53.0824 0.325008 49.3959V7.00012Z" stroke="#BBBBBB" stroke-opacity="0.5" stroke-width="0.650015"/>
<path d="M20.4294 32.4876C22.2054 32.4876 23.668 31.4467 24.265 29.8547L22.3994 29.2883C22.0561 30.0843 21.3099 30.5742 20.4294 30.5742C19.8174 30.5742 19.2951 30.3599 18.8772 29.9159C18.4593 29.472 18.2504 28.9363 18.2504 28.2781C18.2504 27.6198 18.4593 27.0841 18.8772 26.6402C19.2951 26.1963 19.8174 25.982 20.4294 25.982C21.3099 25.982 22.0561 26.4718 22.3994 27.2678L24.265 26.7014C23.668 25.1094 22.2054 24.0685 20.4294 24.0685C19.2503 24.0685 18.2802 24.4665 17.4892 25.2778C16.7131 26.0738 16.3251 27.0688 16.3251 28.2781C16.3251 29.4873 16.7131 30.4823 17.4892 31.2936C18.2802 32.0896 19.2503 32.4876 20.4294 32.4876ZM28.9066 32.4876C29.7871 32.4876 30.5781 32.1967 31.2647 31.6304V32.258H33.1153V24.2982H31.2647V24.9258C30.5781 24.3594 29.7871 24.0685 28.9066 24.0685C27.832 24.0685 26.9365 24.4665 26.2052 25.2778C25.4888 26.0738 25.1306 27.0688 25.1306 28.2781C25.1306 29.4873 25.4888 30.4823 26.2052 31.2936C26.9365 32.0896 27.832 32.4876 28.9066 32.4876ZM29.1454 30.5742C28.5633 30.5742 28.0559 30.3599 27.6529 29.9159C27.2499 29.472 27.0559 28.9363 27.0559 28.2781C27.0559 27.6198 27.2499 27.0841 27.6529 26.6402C28.0559 26.1963 28.5633 25.982 29.1454 25.982C29.7274 25.982 30.2199 26.1963 30.6229 26.6402C31.0259 27.0841 31.2348 27.6198 31.2348 28.2781C31.2348 28.9363 31.0259 29.472 30.6229 29.9159C30.2199 30.3599 29.7274 30.5742 29.1454 30.5742ZM36.5629 35.7021V31.6304C37.2494 32.1967 38.0255 32.4876 38.9061 32.4876C39.9807 32.4876 40.8761 32.0896 41.6074 31.2936C42.3388 30.4823 42.6969 29.4873 42.6969 28.2781C42.6969 27.0688 42.3388 26.0738 41.6074 25.2778C40.8761 24.4665 39.9807 24.0685 38.9061 24.0685C38.0255 24.0685 37.2494 24.3594 36.5629 24.9258V24.2982H34.6973V35.7021H36.5629ZM38.6673 30.5742C38.0852 30.5742 37.5927 30.3599 37.1897 29.9159C36.7868 29.472 36.5928 28.9363 36.5928 28.2781C36.5928 27.6198 36.7868 27.0841 37.1897 26.6402C37.5927 26.1963 38.0852 25.982 38.6673 25.982C39.2493 25.982 39.7419 26.1963 40.1448 26.6402C40.5478 27.0841 40.7567 27.6198 40.7567 28.2781C40.7567 28.9363 40.5478 29.472 40.1448 29.9159C39.7419 30.3599 39.2493 30.5742 38.6673 30.5742ZM44.9058 23.594C45.6073 23.594 46.0998 23.0583 46.0998 22.3694C46.0998 21.6806 45.5774 21.1601 44.9058 21.1601C44.2342 21.1601 43.7267 21.6806 43.7267 22.3694C43.7267 23.0583 44.2342 23.594 44.9058 23.594ZM45.846 32.258V24.2982H43.9805V32.258H45.846ZM51.6816 32.258V30.4364H50.7115C50.1593 30.4364 49.7563 30.0231 49.7563 29.472V25.9667H51.6816V24.2982H49.7563V22.7368H47.8907V24.2982H46.7863V25.9667H47.8907V29.7476C47.8907 30.467 48.1444 31.064 48.6519 31.5385C49.1593 32.0131 49.7862 32.258 50.5324 32.258H51.6816ZM56.3232 32.4876C57.2037 32.4876 57.9947 32.1967 58.6813 31.6304V32.258H60.5319V24.2982H58.6813V24.9258C57.9947 24.3594 57.2037 24.0685 56.3232 24.0685C55.2486 24.0685 54.3531 24.4665 53.6218 25.2778C52.9054 26.0738 52.5472 27.0688 52.5472 28.2781C52.5472 29.4873 52.9054 30.4823 53.6218 31.2936C54.3531 32.0896 55.2486 32.4876 56.3232 32.4876ZM56.562 30.5742C55.9799 30.5742 55.4725 30.3599 55.0695 29.9159C54.6665 29.472 54.4725 28.9363 54.4725 28.2781C54.4725 27.6198 54.6665 27.0841 55.0695 26.6402C55.4725 26.1963 55.9799 25.982 56.562 25.982C57.144 25.982 57.6365 26.1963 58.0395 26.6402C58.4425 27.0841 58.6514 27.6198 58.6514 28.2781C58.6514 28.9363 58.4425 29.472 58.0395 29.9159C57.6365 30.3599 57.144 30.5742 56.562 30.5742ZM63.9795 32.258V20.7775H62.1139V32.258H63.9795Z" fill="#1D1D1B"/>
<path d="M86.4856 32.4876C87.5602 32.4876 88.4557 32.0896 89.187 31.2936C89.9183 30.4823 90.2765 29.4873 90.2765 28.2781C90.2765 27.0688 89.9183 26.0738 89.187 25.2778C88.4557 24.4665 87.5602 24.0685 86.4856 24.0685C85.6051 24.0685 84.829 24.3594 84.1424 24.9258V20.7775H82.2769V32.258H84.1424V31.6304C84.829 32.1967 85.6051 32.4876 86.4856 32.4876ZM86.2468 30.5742C85.6648 30.5742 85.1722 30.3599 84.7693 29.9159C84.3663 29.472 84.1723 28.9363 84.1723 28.2781C84.1723 27.6198 84.3663 27.0841 84.7693 26.6402C85.1722 26.1963 85.6648 25.982 86.2468 25.982C86.8289 25.982 87.3214 26.1963 87.7244 26.6402C88.1273 27.0841 88.3363 27.6198 88.3363 28.2781C88.3363 28.9363 88.1273 29.472 87.7244 29.9159C87.3214 30.3599 86.8289 30.5742 86.2468 30.5742ZM95.4703 32.4876C97.0373 32.4876 98.3806 31.6916 99.0969 30.4211L97.2911 29.8853C96.8433 30.4517 96.2314 30.7272 95.4703 30.7272C94.3808 30.7272 93.4853 30.0231 93.2017 28.9822H99.3656C99.4104 28.6761 99.4253 28.4464 99.4253 28.2781C99.4253 27.0841 99.0372 26.0891 98.2462 25.2778C97.4702 24.4665 96.5001 24.0685 95.3509 24.0685C94.2017 24.0685 93.2316 24.4665 92.4405 25.2778C91.6645 26.0738 91.2764 27.0688 91.2764 28.2781C91.2764 29.4873 91.6794 30.4823 92.4704 31.2936C93.2763 32.0896 94.2763 32.4876 95.4703 32.4876ZM97.5 27.4974H93.2166C93.5002 26.5024 94.3509 25.8289 95.321 25.8289C96.3359 25.8289 97.2015 26.5024 97.5 27.4974ZM104.067 32.4876C104.947 32.4876 105.738 32.1967 106.425 31.6304V32.258H108.276V24.2982H106.425V24.9258C105.738 24.3594 104.947 24.0685 104.067 24.0685C102.992 24.0685 102.097 24.4665 101.365 25.2778C100.649 26.0738 100.291 27.0688 100.291 28.2781C100.291 29.4873 100.649 30.4823 101.365 31.2936C102.097 32.0896 102.992 32.4876 104.067 32.4876ZM104.306 30.5742C103.724 30.5742 103.216 30.3599 102.813 29.9159C102.41 29.472 102.216 28.9363 102.216 28.2781C102.216 27.6198 102.41 27.0841 102.813 26.6402C103.216 26.1963 103.724 25.982 104.306 25.982C104.888 25.982 105.38 26.1963 105.783 26.6402C106.186 27.0841 106.395 27.6198 106.395 28.2781C106.395 28.9363 106.186 29.472 105.783 29.9159C105.38 30.3599 104.888 30.5742 104.306 30.5742ZM111.723 32.258V27.8801C111.723 26.8239 112.484 26.0279 113.514 26.0279C113.783 26.0279 114.037 26.0891 114.275 26.1963V24.0685C113.111 24.0685 112.26 24.4665 111.723 25.2778V24.2982H109.858V32.258H111.723Z" fill="#1D1D1B"/>
<path fill-rule="evenodd" clip-rule="evenodd" d="M77.1217 27.5186L75.4704 30.0457C75.2637 30.362 74.9973 30.6256 74.6784 30.8291C74.2516 31.1016 73.759 31.2456 73.2541 31.2456C73.0687 31.2456 72.8825 31.226 72.7009 31.1874C72.0115 31.0408 71.4197 30.6353 71.0345 30.0457L69.3832 27.5186L68.1387 29.4231C67.9444 29.7202 67.8412 30.0664 67.8412 30.4202C67.8412 30.9277 68.0494 31.3871 68.3859 31.7197C68.7224 32.0522 69.1872 32.258 69.7006 32.258H76.8042C77.162 32.258 77.5123 32.156 77.813 31.964C78.2443 31.6887 78.5219 31.2665 78.622 30.8068C78.7222 30.347 78.6448 29.8494 78.3661 29.4231L77.1217 27.5186Z" fill="#9E50EE"/>
<path fill-rule="evenodd" clip-rule="evenodd" d="M72.8609 29.957C73.3261 30.0561 73.8296 29.9795 74.2609 29.7042C74.4824 29.5627 74.671 29.3764 74.8142 29.1575L78.3659 23.7217C78.6444 23.2954 78.7218 22.7978 78.6217 22.338C78.5215 21.8783 78.2441 21.4561 77.8127 21.1808C77.5121 20.9889 77.1617 20.8868 76.8039 20.8868H69.7003C69.1869 20.8868 68.722 21.0926 68.3855 21.4252C68.049 21.7578 67.8409 22.2172 67.8409 22.7247C67.8409 23.0785 67.9442 23.4247 68.1383 23.7217L71.6902 29.1575C71.9687 29.5837 72.3957 29.858 72.8609 29.957Z" fill="url(#paint0_linear_116_2080)"/>
<defs>
<linearGradient id="paint0_linear_116_2080" x1="608.972" y1="22.8531" x2="608.972" y2="932.045" gradientUnits="userSpaceOnUse">
<stop stop-color="#FF514F"/>
<stop offset="1" stop-color="#F55B51"/>
</linearGradient>
</defs>
</svg>
