<svg width="21" height="21" viewBox="0 0 21 21" fill="none" xmlns="http://www.w3.org/2000/svg">
<path d="M10.3498 0.310547C4.64825 0.310547 0.03125 4.93453 0.03125 10.6319C0.03125 16.3293 4.64825 20.9533 10.3498 20.9533C16.0616 20.9533 20.689 16.3293 20.689 10.6319C20.689 4.93453 16.0616 0.310547 10.3498 0.310547ZM10.3601 18.889C5.79475 18.889 2.09702 15.194 2.09702 10.6319C2.09702 6.06988 5.79475 2.37482 10.3601 2.37482C14.9255 2.37482 18.6232 6.06988 18.6232 10.6319C18.6232 15.194 14.9255 18.889 10.3601 18.889Z" fill="#F2F2F2"/>
<path d="M10.0208 4.43909H8.29395V11.3415L14.3379 14.9653L15.2014 13.5503L10.0208 10.4787V4.43909Z" fill="#F2F2F2"/>
</svg>
