<svg width="86" height="27" viewBox="0 0 86 27" fill="none" xmlns="http://www.w3.org/2000/svg">
<rect x="0.218993" y="0.218993" width="85.3475" height="25.9724" rx="1.78101" fill="white" stroke="#BBBBBB" stroke-width="0.437986"/>
<path d="M16.2823 7.90054V5H17.7391V7.90054H16.2823ZM25.0218 13.7012H22.1089V12.2512H25.0218V13.7012ZM19.0707 9.89977L17.0109 11.9509L14.951 9.89977L13.9213 10.9255L15.9812 12.9762L17.0109 11.9509L18.0406 12.9762L20.1005 10.9255L19.0707 9.89977ZM17.0109 14.0019L19.0707 16.0526L20.1005 15.0273L18.0406 12.9762L17.0109 14.0019ZM13.9209 15.0269L15.9812 12.9762L17.0109 14.0019L14.951 16.0526L13.9209 15.0269ZM16.2827 18.0518V20.9524H17.7391V18.0518H16.2827ZM11.9129 13.7012H9V12.2512H11.9129V13.7012ZM22.1607 6.82336L20.1009 8.87443L21.131 9.89977L23.1908 7.8491L22.1607 6.82336ZM21.131 16.0526L23.1908 18.1033L22.1607 19.129L20.1009 17.0779L21.131 16.0526ZM13.9213 17.0779L12.8912 16.0526L10.8313 18.1033L11.8615 19.129L13.9213 17.0779ZM11.8615 6.82336L13.9213 8.87443L12.8912 9.89977L10.8313 7.8491L11.8615 6.82336ZM32.0532 12.2332V10.8123H37.4523V9.35061H30.3622V16.6022H37.5029V15.1405H32.0536V13.6438H37.2341V12.2332H32.0532ZM42.3034 12.8904L40.8461 11.3937H38.7791L41.2067 13.8767L38.4948 16.6022H40.5618L42.3034 14.8526L44.0454 16.6022H46.1124L43.4005 13.8767L45.8281 11.3937H43.761L42.3034 12.8904ZM47.1122 16.6022V11.3937H48.7781V12.0964C49.0776 11.6362 49.6415 11.2418 50.6828 11.2418C52.8156 11.2418 53.5929 12.4506 53.5929 14.104V16.6022H51.9271V14.104C51.9271 13.2394 51.5661 12.5164 50.3526 12.5164C49.1386 12.5164 48.7781 13.2394 48.7781 14.104V16.6022H47.1122Z" fill="#1D1D1B"/>
<path fill-rule="evenodd" clip-rule="evenodd" d="M58.1832 16.7537C60.6108 16.7537 61.8499 15.6263 61.8499 13.9979C61.8499 12.3596 60.6108 11.2422 58.1832 11.2422C55.7557 11.2422 54.5162 12.3596 54.5162 13.9979C54.5162 15.6263 55.7557 16.7537 58.1832 16.7537ZM58.1832 15.4795C56.7459 15.4795 56.182 14.8526 56.182 13.9979C56.182 13.1433 56.7459 12.5164 58.1832 12.5164C59.6205 12.5164 60.1841 13.1433 60.1841 13.9979C60.1841 14.8526 59.6205 15.4795 58.1832 15.4795Z" fill="#1D1D1B"/>
<path d="M67.6183 11.3937H69.3755L66.5415 16.6022H64.8757L62.0418 11.3937H63.7989L65.7084 14.9232L67.6183 11.3937Z" fill="#1D1D1B"/>
<path fill-rule="evenodd" clip-rule="evenodd" d="M69.6315 15.0297C69.6315 16.2632 70.7944 16.7234 72.2976 16.7234C73.4709 16.7234 74.0348 16.4 74.3291 15.9194V16.6022H76.0001V13.391C76.0001 11.9752 75.36 11.2422 73.1 11.2422C72.1249 11.2422 71.3986 11.3738 70.891 11.4998C70.5962 11.5756 70.3426 11.6617 70.1292 11.7578L70.7079 12.8147C70.8961 12.7489 71.1043 12.6934 71.3428 12.6428C71.887 12.5258 72.442 12.4665 72.9987 12.4657C74.1716 12.4657 74.3343 12.8047 74.3343 13.2645C71.5665 13.0623 69.6315 13.3152 69.6315 15.0297ZM71.2973 14.8781C71.2973 14.1443 72.5516 14.1296 74.3291 14.185V14.5846C74.3291 15.0345 73.8621 15.4492 72.7039 15.4492C71.6172 15.4492 71.2973 15.2271 71.2973 14.8781Z" fill="#1D1D1B"/>
</svg>
