<svg width="131" height="57" viewBox="0 0 131 57" fill="none" xmlns="http://www.w3.org/2000/svg">
<rect width="130.601" height="56.3958" rx="7" fill="white"/>
<rect x="0.325008" y="0.325008" width="129.951" height="55.7457" rx="6.67499" stroke="#BBBBBB" stroke-opacity="0.5" stroke-width="0.650015"/>
<path d="M26.9714 20.5655V16.3251H29.1012V20.5655H26.9714ZM39.7481 29.0458H35.4896V26.9259H39.7481V29.0458ZM31.048 23.4883L28.0366 26.4869L25.0252 23.4883L23.5198 24.9879L26.5312 27.9859L28.0366 26.4869L29.542 27.9859L32.5534 24.9879L31.048 23.4883ZM28.0366 29.4854L31.048 32.4834L32.5534 30.9844L29.542 27.9859L28.0366 29.4854ZM23.5192 30.9838L26.5312 27.9859L28.0366 29.4854L25.0252 32.4834L23.5192 30.9838ZM26.9719 35.4062V39.6466H29.1012V35.4062H26.9719ZM20.5836 29.0458H16.3251V26.9259H20.5836V29.0458ZM35.5654 18.9907L32.554 21.9893L34.0599 23.4883L37.0713 20.4903L35.5654 18.9907ZM34.0599 32.4834L37.0713 35.4814L35.5654 36.981L32.554 33.9824L34.0599 32.4834ZM23.5198 33.9824L22.0138 32.4834L19.0024 35.4814L20.5084 36.981L23.5198 33.9824ZM20.5084 18.9907L23.5198 21.9893L22.0138 23.4883L19.0024 20.4903L20.5084 18.9907ZM50.0276 26.8996V24.8223H57.9208V22.6854H47.5555V33.2868H57.9949V31.15H50.0282V28.9619H57.6019V26.8996H50.0276ZM65.0129 27.8605L62.8825 25.6724H59.8606L63.4095 29.3024L59.4449 33.2868H62.4668L65.0129 30.729L67.5596 33.2868H70.5815L66.6168 29.3024L70.1658 25.6724H67.1439L65.0129 27.8605ZM72.0432 33.2868V25.6724H74.4785V26.6997C74.9164 26.0268 75.7408 25.4502 77.2631 25.4502C80.3812 25.4502 81.5176 27.2174 81.5176 29.6347V33.2868H79.0822V29.6347C79.0822 28.3707 78.5546 27.3136 76.7804 27.3136C75.0056 27.3136 74.4785 28.3707 74.4785 29.6347V33.2868H72.0432Z" fill="#1D1D1B"/>
<path fill-rule="evenodd" clip-rule="evenodd" d="M88.2285 33.5084C91.7774 33.5084 93.5889 31.8602 93.5889 29.4796C93.5889 27.0845 91.7774 25.4508 88.2285 25.4508C84.6795 25.4508 82.8674 27.0845 82.8674 29.4796C82.8674 31.8602 84.6795 33.5084 88.2285 33.5084ZM88.2285 31.6456C86.1272 31.6456 85.3028 30.7291 85.3028 29.4796C85.3028 28.2302 86.1272 27.3136 88.2285 27.3136C90.3297 27.3136 91.1536 28.2302 91.1536 29.4796C91.1536 30.7291 90.3297 31.6456 88.2285 31.6456Z" fill="#1D1D1B"/>
<path d="M102.022 25.6724H104.591L100.448 33.2869H98.0122L93.8691 25.6724H96.438L99.2296 30.8323L102.022 25.6724Z" fill="#1D1D1B"/>
<path fill-rule="evenodd" clip-rule="evenodd" d="M104.965 30.9879C104.965 32.7913 106.665 33.4641 108.863 33.4641C110.578 33.4641 111.402 32.9912 111.833 32.2887V33.2868H114.276V28.5922C114.276 26.5224 113.34 25.4508 110.036 25.4508C108.61 25.4508 107.549 25.6432 106.806 25.8274C106.375 25.9382 106.005 26.0642 105.693 26.2047L106.539 27.7497C106.814 27.6535 107.118 27.5725 107.467 27.4984C108.263 27.3274 109.074 27.2407 109.888 27.2396C111.602 27.2396 111.84 27.7352 111.84 28.4074C107.794 28.1118 104.965 28.4814 104.965 30.9879ZM107.4 30.7664C107.4 29.6936 109.234 29.672 111.833 29.753V30.3373C111.833 30.9949 111.15 31.6013 109.457 31.6013C107.868 31.6013 107.4 31.2765 107.4 30.7664Z" fill="#1D1D1B"/>
</svg>
