<svg width="132" height="58" viewBox="0 0 132 58" fill="none" xmlns="http://www.w3.org/2000/svg">
<path d="M0.452148 7.72082C0.452148 3.85483 3.58616 0.720825 7.45215 0.720825H124.053C127.919 0.720825 131.053 3.85483 131.053 7.72083V50.1166C131.053 53.9826 127.919 57.1166 124.053 57.1166H7.45215C3.58616 57.1166 0.452148 53.9826 0.452148 50.1166V7.72082Z" fill="white"/>
<path d="M0.777156 7.72082C0.777156 4.03433 3.76565 1.04583 7.45215 1.04583H124.053C127.739 1.04583 130.728 4.03433 130.728 7.72083V50.1166C130.728 53.8031 127.739 56.7916 124.053 56.7916H7.45215C3.76566 56.7916 0.777156 53.8031 0.777156 50.1166V7.72082Z" stroke="#BBBBBB" stroke-opacity="0.5" stroke-width="0.650015"/>
<path fill-rule="evenodd" clip-rule="evenodd" d="M18.4828 23.5978L25.9172 19.4768C26.3801 19.2202 26.9585 19.2403 27.3986 19.4885L34.7261 23.9071C35.1823 24.1843 35.4552 24.6766 35.4485 25.2103L35.2806 33.708C35.2739 34.2417 34.9684 34.7139 34.5055 34.9705L27.071 39.0915C26.6082 39.348 26.0298 39.3279 25.5897 39.0797L18.2942 34.7191C18.0662 34.5805 17.8799 34.3809 17.7675 34.1782C17.6551 33.9754 17.5685 33.6827 17.5879 33.4448L17.7238 24.8892C17.7305 24.3555 17.991 23.8704 18.4828 23.5978ZM16.8787 24.8655L16.7268 33.3922C16.7167 34.1927 17.1662 35.0036 17.8505 35.4194L25.162 39.809C25.8623 40.2537 26.7652 40.2453 27.4884 39.8444L34.9229 35.7234C35.6461 35.3226 36.1028 34.5773 36.1257 33.7317L36.2776 25.2051C36.2746 24.7903 36.1687 24.3947 35.9761 24.0471C35.7834 23.6996 35.504 23.4002 35.1539 23.1778L27.8424 18.7882C27.1421 18.3435 26.2391 18.3519 25.5159 18.7528L18.0814 22.8738C17.3582 23.2747 16.8887 24.0649 16.8787 24.8655Z" fill="#2292E7"/>
<path fill-rule="evenodd" clip-rule="evenodd" d="M21.7926 33.7256H23.7706V27.6031H21.7926V33.7256Z" fill="#2292E7"/>
<path fill-rule="evenodd" clip-rule="evenodd" d="M25.3717 32.5012H27.3497V26.3788H25.3717V32.5012Z" fill="#2292E7"/>
<path fill-rule="evenodd" clip-rule="evenodd" d="M29.14 30.9943H31.118V24.8718H29.14V30.9943Z" fill="#2292E7"/>
<path fill-rule="evenodd" clip-rule="evenodd" d="M53.4032 27.2264H51.7856L50.003 29.6807L48.2204 27.2264H46.6029L49.1447 30.6757L46.4708 34.2908H48.0554L50.003 31.6375L51.9177 34.2908H53.5352L50.8283 30.6757L53.4032 27.2264Z" fill="#2292E7"/>
<path fill-rule="evenodd" clip-rule="evenodd" d="M59.6534 30.6887C59.6534 32.1357 58.8622 33.1223 57.6754 33.1223C56.9831 33.1223 56.2249 32.7277 55.8622 32.1686V29.2417C56.2249 28.6826 56.9831 28.2879 57.6754 28.2879C58.8952 28.2879 59.6534 29.2417 59.6534 30.6887ZM57.9391 27.0382C57.1479 27.0382 56.3897 27.3671 55.8622 27.9262V27.2026H54.4776V36.7399H55.8622V33.4841C56.4227 34.0432 57.1479 34.3721 57.9391 34.3721C59.8183 34.3721 61.071 32.8921 61.071 30.6887C61.071 28.4852 59.8512 27.0382 57.9391 27.0382Z" fill="#2292E7"/>
<path fill-rule="evenodd" clip-rule="evenodd" d="M63.1714 30.1748C63.2697 29.3406 63.8594 28.2395 65.1697 28.2395C66.5456 28.2395 67.1025 29.3406 67.2008 30.1748H63.1714ZM65.1697 27.0382C63.2042 27.0382 61.73 28.6399 61.73 30.7421C61.73 32.9444 63.2042 34.4793 65.268 34.4793C66.3818 34.4793 67.3319 34.1123 68.0198 33.3782L68.1181 33.2781L67.4301 32.3104L67.2991 32.4439C66.8077 32.9444 66.087 33.2447 65.3663 33.2447C63.9904 33.2447 63.2697 32.277 63.1386 31.2426H68.5112V30.8088C68.544 28.6065 67.1681 27.0382 65.1697 27.0382Z" fill="#2292E7"/>
<path fill-rule="evenodd" clip-rule="evenodd" d="M70.6323 28.003V27.2046H69.2657V34.291H70.6323V29.4003C70.9252 28.9013 71.7061 28.4355 72.2593 28.4355C72.3894 28.4355 72.5196 28.4355 72.6497 28.4688L72.845 28.5021V27.0382H72.6823C71.9013 27.0715 71.1855 27.4042 70.6323 28.003Z" fill="#2292E7"/>
<path fill-rule="evenodd" clip-rule="evenodd" d="M77.2696 32.8944C77.1695 32.9938 76.9359 33.1263 76.6689 33.1263C76.2016 33.1263 76.1349 32.6957 76.1349 32.4307V28.4229H77.5033V27.1643H76.1349V25.3425H74.7331V27.1643H73.5984V28.4229H74.7331V32.6626C74.7331 33.7887 75.3339 34.3849 76.4019 34.3849C77.0026 34.3849 77.4365 34.2193 77.7703 33.9212L77.837 33.855L77.4031 32.7288L77.2696 32.8944Z" fill="#2292E7"/>
<path fill-rule="evenodd" clip-rule="evenodd" d="M87.088 29.4399C87.088 31.9125 85.5321 33.6267 83.3473 33.6267C81.0962 33.6267 79.6066 31.9454 79.6066 29.4399C79.6066 26.9344 81.1293 25.2531 83.3473 25.2531C85.5652 25.2531 87.088 26.9344 87.088 29.4399ZM83.3473 24.4949C80.6659 24.4949 78.779 26.5388 78.779 29.4399C78.779 32.341 80.6659 34.385 83.3473 34.385C85.9956 34.385 87.9156 32.3081 87.9156 29.4399C87.9156 26.5718 85.9956 24.4949 83.3473 24.4949Z" fill="#2292E7"/>
<path fill-rule="evenodd" clip-rule="evenodd" d="M89.6831 28.9457C90.0488 28.3537 90.9464 27.7288 91.9437 27.7288C93.4064 27.7288 94.3373 28.8799 94.3373 30.6887C94.3373 32.4975 93.4064 33.6485 91.9437 33.6485C90.9464 33.6485 90.082 33.0237 89.6831 32.3988V28.9457ZM91.9769 27.0382C91.1458 27.0382 90.2815 27.4 89.7163 28.0248V27.2026H88.9517V36.7399H89.7163V33.3526C90.3147 33.9774 91.1126 34.3721 91.9769 34.3721C93.8718 34.3721 95.1684 32.8921 95.1684 30.6887C95.1351 28.5181 93.8718 27.0382 91.9769 27.0382Z" fill="#2292E7"/>
<path fill-rule="evenodd" clip-rule="evenodd" d="M98.6555 33.3581C98.5232 33.4906 98.2915 33.6562 97.9937 33.6562C97.5303 33.6562 97.4311 33.2256 97.4311 32.8613V27.8598H98.7879V27.1643H97.4311V25.3425H96.6699V27.1643H95.5447V27.8598H96.6699V32.8613C96.6699 33.8218 97.1332 34.3849 97.9606 34.3849C98.5563 34.3849 98.8541 34.1531 99.1189 33.9212L99.2181 33.8218L98.7548 33.2256L98.6555 33.3581Z" fill="#2292E7"/>
<path fill-rule="evenodd" clip-rule="evenodd" d="M100.443 34.2908H101.29V27.2264H100.443V34.2908Z" fill="#2292E7"/>
<path fill-rule="evenodd" clip-rule="evenodd" d="M100.819 25.1544C100.52 25.1544 100.254 25.4204 100.254 25.7196C100.254 26.0188 100.52 26.2847 100.819 26.2847C101.119 26.2847 101.385 26.0188 101.385 25.7196C101.385 25.4204 101.152 25.1544 100.819 25.1544Z" fill="#2292E7"/>
<path fill-rule="evenodd" clip-rule="evenodd" d="M108.223 30.7421C108.223 32.2103 107.432 33.7452 105.718 33.7452C104.069 33.7452 103.212 32.2437 103.212 30.7421C103.212 29.2405 104.069 27.7389 105.718 27.7389C107.432 27.7389 108.223 29.3073 108.223 30.7421ZM105.718 27.0382C103.806 27.0382 102.421 28.6065 102.421 30.7421C102.421 32.911 103.806 34.4793 105.718 34.4793C107.63 34.4793 109.014 32.911 109.014 30.7421C109.014 28.6065 107.63 27.0382 105.718 27.0382Z" fill="#2292E7"/>
<path fill-rule="evenodd" clip-rule="evenodd" d="M112.876 27.0382C112.057 27.0382 111.205 27.504 110.615 28.003V27.2046H109.862V34.291H110.615V28.9013C111.041 28.3357 111.926 27.7369 112.81 27.7369C113.891 27.7369 114.383 28.2359 114.383 29.4003V34.291H115.136V29.4003C115.136 27.8034 114.383 27.0382 112.876 27.0382Z" fill="#2292E7"/>
<path fill-rule="evenodd" clip-rule="evenodd" d="M46.1887 25.9474L45.1608 24.5891H39.6895V34.1967H46.0893V32.8383H41.1485V29.9561H45.9898V28.5978H41.1485V25.9474H46.1887Z" fill="#2292E7"/>
<path fill-rule="evenodd" clip-rule="evenodd" d="M116.498 26.6231H116.633C116.7 26.6231 116.754 26.6058 116.794 26.5711C116.835 26.5364 116.855 26.4924 116.855 26.4389C116.855 26.3762 116.837 26.3313 116.801 26.3041C116.765 26.277 116.708 26.2634 116.631 26.2634H116.498V26.6231ZM117.042 26.4339C117.042 26.5007 117.024 26.5598 116.988 26.6112C116.953 26.6626 116.903 26.7008 116.839 26.7259L117.137 27.221H116.926L116.667 26.7773H116.498V27.221H116.313V26.1042H116.64C116.778 26.1042 116.88 26.1314 116.945 26.1857C117.009 26.24 117.042 26.3227 117.042 26.4339ZM115.623 26.662C115.623 26.4782 115.669 26.3059 115.761 26.145C115.853 25.9842 115.979 25.8573 116.14 25.7645C116.301 25.6717 116.474 25.6252 116.66 25.6252C116.843 25.6252 117.016 25.6712 117.176 25.7631C117.337 25.855 117.464 25.9814 117.557 26.1423C117.649 26.3031 117.696 26.4764 117.696 26.662C117.696 26.8431 117.651 27.0132 117.562 27.1722C117.473 27.3312 117.348 27.4585 117.187 27.5541C117.027 27.6497 116.851 27.6975 116.66 27.6975C116.469 27.6975 116.294 27.6499 116.133 27.5548C115.973 27.4596 115.847 27.3326 115.758 27.1735C115.668 27.0145 115.623 26.844 115.623 26.662ZM115.849 26.662C115.849 26.8065 115.886 26.9417 115.958 27.0674C116.031 27.1932 116.13 27.2922 116.256 27.3645C116.381 27.4368 116.516 27.4729 116.66 27.4729C116.805 27.4729 116.94 27.4366 117.064 27.3639C117.189 27.2912 117.287 27.1928 117.36 27.0687C117.433 26.9446 117.47 26.809 117.47 26.662C117.47 26.5166 117.434 26.3816 117.361 26.2571C117.288 26.1326 117.19 26.0338 117.066 25.9607C116.942 25.8876 116.807 25.851 116.66 25.851C116.514 25.851 116.379 25.8874 116.255 25.9601C116.131 26.0328 116.032 26.1312 115.959 26.2553C115.886 26.3793 115.849 26.5149 115.849 26.662Z" fill="#2292E7"/>
</svg>
