<svg xmlns="http://www.w3.org/2000/svg" fill="none" viewBox="1 0 85.79 26.41">
<g filter="url(#filter0_d_313_2987)">
<path d="M1 2C1 0.895429 1.89543 0 3 0H84.7855C85.8901 0 86.7855 0.895431 86.7855 2V24.4104C86.7855 25.5149 85.8901 26.4104 84.7855 26.4104H3C1.89543 26.4104 1 25.5149 1 24.4104V2Z" fill="white"/>
<path d="M1.21899 2C1.21899 1.01638 2.01638 0.218993 3 0.218993H84.7855C85.7691 0.218993 86.5665 1.01638 86.5665 2V24.4104C86.5665 25.394 85.7691 26.1914 84.7855 26.1914H3C2.01638 26.1914 1.21899 25.394 1.21899 24.4104V2Z" stroke="#BBBBBB" stroke-width="0.437986"/>
</g>
<path fill-rule="evenodd" clip-rule="evenodd" d="M12.0907 9.46887L17.0296 6.73121C17.3371 6.56077 17.7213 6.57413 18.0137 6.73902L22.8815 9.67435C23.1846 9.85847 23.3659 10.1855 23.3614 10.5401L23.2498 16.1853C23.2454 16.5398 23.0424 16.8535 22.735 17.024L17.7961 19.7616C17.4886 19.9321 17.1044 19.9187 16.812 19.7538L11.9655 16.857C11.814 16.7649 11.6902 16.6323 11.6156 16.4976C11.5409 16.3629 11.4834 16.1685 11.4963 16.0104L11.5865 10.3268C11.591 9.97224 11.764 9.64996 12.0907 9.46887ZM11.0251 10.3111L10.9242 15.9755C10.9175 16.5073 11.2161 17.046 11.6707 17.3222L16.5279 20.2383C16.9931 20.5337 17.5929 20.5281 18.0734 20.2618L23.0122 17.5242C23.4927 17.2579 23.796 16.7627 23.8112 16.201L23.9122 10.5366C23.9102 10.2611 23.8398 9.99825 23.7119 9.76738C23.5839 9.53651 23.3983 9.33761 23.1657 9.18989L18.3085 6.2738C17.8433 5.97838 17.2434 5.98393 16.763 6.25024L11.8241 8.9879C11.3437 9.25421 11.0318 9.77921 11.0251 10.3111Z" fill="#2292E7"/>
<path fill-rule="evenodd" clip-rule="evenodd" d="M14.2896 16.1971H15.6036V12.1298H14.2896V16.1971Z" fill="#2292E7"/>
<path fill-rule="evenodd" clip-rule="evenodd" d="M16.6672 15.3835H17.9812V11.3163H16.6672V15.3835Z" fill="#2292E7"/>
<path fill-rule="evenodd" clip-rule="evenodd" d="M19.1705 14.3823H20.4845V10.3151H19.1705V14.3823Z" fill="#2292E7"/>
<path fill-rule="evenodd" clip-rule="evenodd" d="M35.2893 11.8795H34.2147L33.0305 13.5099L31.8463 11.8795H30.7717L32.4603 14.1709L30.684 16.5725H31.7366L33.0305 14.8098L34.3024 16.5725H35.377L33.5787 14.1709L35.2893 11.8795Z" fill="#1D1D1B"/>
<path fill-rule="evenodd" clip-rule="evenodd" d="M39.4409 14.1794C39.4409 15.1407 38.9153 15.7961 38.1269 15.7961C37.667 15.7961 37.1633 15.5339 36.9224 15.1625V13.2181C37.1633 12.8467 37.667 12.5845 38.1269 12.5845C38.9372 12.5845 39.4409 13.2181 39.4409 14.1794ZM38.3021 11.7543C37.7765 11.7543 37.2728 11.9728 36.9224 12.3442V11.8635H36.0025V18.1993H36.9224V16.0364C37.2947 16.4078 37.7765 16.6263 38.3021 16.6263C39.5505 16.6263 40.3827 15.6432 40.3827 14.1794C40.3827 12.7156 39.5724 11.7543 38.3021 11.7543Z" fill="#1D1D1B"/>
<path fill-rule="evenodd" clip-rule="evenodd" d="M41.7782 13.838C41.8435 13.2838 42.2353 12.5523 43.1058 12.5523C44.0198 12.5523 44.3898 13.2838 44.4551 13.838H41.7782ZM43.1058 11.7543C41.8 11.7543 40.8207 12.8183 40.8207 14.2149C40.8207 15.6779 41.8 16.6976 43.1711 16.6976C43.911 16.6976 44.5421 16.4538 44.9991 15.9661L45.0644 15.8996L44.6074 15.2567L44.5204 15.3454C44.1939 15.6779 43.7151 15.8774 43.2363 15.8774C42.3223 15.8774 41.8435 15.2346 41.7565 14.5474H45.3256V14.2592C45.3473 12.7962 44.4333 11.7543 43.1058 11.7543Z" fill="#1D1D1B"/>
<path fill-rule="evenodd" clip-rule="evenodd" d="M46.7347 12.3952V11.8648H45.8268V16.5724H46.7347V13.3235C46.9292 12.992 47.448 12.6826 47.8155 12.6826C47.902 12.6826 47.9884 12.6826 48.0749 12.7047L48.2046 12.7268V11.7543H48.0965C47.5777 11.7764 47.1022 11.9974 46.7347 12.3952Z" fill="#1D1D1B"/>
<path fill-rule="evenodd" clip-rule="evenodd" d="M51.144 15.6449C51.0775 15.7109 50.9223 15.7989 50.7449 15.7989C50.4345 15.7989 50.3902 15.5128 50.3902 15.3368V12.6744H51.2992V11.8382H50.3902V10.628H49.459V11.8382H48.7051V12.6744H49.459V15.4908C49.459 16.239 49.858 16.635 50.5675 16.635C50.9666 16.635 51.2549 16.525 51.4766 16.327L51.5209 16.283L51.2327 15.5348L51.144 15.6449Z" fill="#1D1D1B"/>
<path fill-rule="evenodd" clip-rule="evenodd" d="M57.6663 13.3498C57.6663 14.9924 56.6327 16.1312 55.1812 16.1312C53.6858 16.1312 52.6962 15.0143 52.6962 13.3498C52.6962 11.6854 53.7078 10.5685 55.1812 10.5685C56.6547 10.5685 57.6663 11.6854 57.6663 13.3498ZM55.1812 10.0648C53.3999 10.0648 52.1464 11.4226 52.1464 13.3498C52.1464 15.2771 53.3999 16.6349 55.1812 16.6349C56.9405 16.6349 58.216 15.2552 58.216 13.3498C58.216 11.4445 56.9405 10.0648 55.1812 10.0648Z" fill="#1D1D1B"/>
<path fill-rule="evenodd" clip-rule="evenodd" d="M59.3903 13.0215C59.6332 12.6282 60.2295 12.2131 60.892 12.2131C61.8637 12.2131 62.4821 12.9778 62.4821 14.1794C62.4821 15.381 61.8637 16.1457 60.892 16.1457C60.2295 16.1457 59.6553 15.7306 59.3903 15.3155V13.0215ZM60.9141 11.7543C60.362 11.7543 59.7878 11.9946 59.4123 12.4097V11.8635H58.9044V18.1993H59.4123V15.949C59.8099 16.3642 60.3399 16.6263 60.9141 16.6263C62.1729 16.6263 63.0342 15.6432 63.0342 14.1794C63.0121 12.7374 62.1729 11.7543 60.9141 11.7543Z" fill="#1D1D1B"/>
<path fill-rule="evenodd" clip-rule="evenodd" d="M65.3513 15.9529C65.2634 16.0409 65.1095 16.1509 64.9116 16.1509C64.6038 16.1509 64.5378 15.8649 64.5378 15.6229V12.3003H65.4392V11.8382H64.5378V10.628H64.0322V11.8382H63.2847V12.3003H64.0322V15.6229C64.0322 16.261 64.34 16.635 64.8896 16.635C65.2853 16.635 65.4832 16.481 65.6591 16.327L65.725 16.261L65.4172 15.8649L65.3513 15.9529Z" fill="#1D1D1B"/>
<path fill-rule="evenodd" clip-rule="evenodd" d="M66.5385 16.5725H67.1016V11.8795H66.5385V16.5725Z" fill="#1D1D1B"/>
<path fill-rule="evenodd" clip-rule="evenodd" d="M66.7885 10.5028C66.5898 10.5028 66.4131 10.6794 66.4131 10.8782C66.4131 11.077 66.5898 11.2536 66.7885 11.2536C66.9873 11.2536 67.164 11.077 67.164 10.8782C67.164 10.6794 67.0094 10.5028 66.7885 10.5028Z" fill="#1D1D1B"/>
<path fill-rule="evenodd" clip-rule="evenodd" d="M71.7068 14.2149C71.7068 15.1902 71.1811 16.2099 70.0423 16.2099C68.9473 16.2099 68.3779 15.2124 68.3779 14.2149C68.3779 13.2173 68.9473 12.2198 70.0423 12.2198C71.1811 12.2198 71.7068 13.2617 71.7068 14.2149ZM70.0423 11.7543C68.7721 11.7543 67.8522 12.7962 67.8522 14.2149C67.8522 15.6557 68.7721 16.6976 70.0423 16.6976C71.3125 16.6976 72.2324 15.6557 72.2324 14.2149C72.2324 12.7962 71.3125 11.7543 70.0423 11.7543Z" fill="#1D1D1B"/>
<path fill-rule="evenodd" clip-rule="evenodd" d="M74.7981 11.7543C74.254 11.7543 73.6881 12.0637 73.2964 12.3952V11.8648H72.7958V16.5724H73.2964V12.992C73.5793 12.6163 74.167 12.2184 74.7546 12.2184C75.4728 12.2184 75.7993 12.55 75.7993 13.3235V16.5724H76.2999V13.3235C76.2999 12.2626 75.7993 11.7543 74.7981 11.7543Z" fill="#1D1D1B"/>
<path fill-rule="evenodd" clip-rule="evenodd" d="M30.4959 11.0297L29.813 10.1273H26.1783V16.5098H30.4298V15.6075H27.1475V13.6927H30.3637V12.7904H27.1475V11.0297H30.4959Z" fill="#1D1D1B"/>
<path fill-rule="evenodd" clip-rule="evenodd" d="M77.2044 11.4786H77.2943C77.3386 11.4786 77.3743 11.4671 77.4012 11.444C77.4281 11.421 77.4415 11.3917 77.4415 11.3562C77.4415 11.3146 77.4296 11.2847 77.4058 11.2667C77.3819 11.2486 77.3442 11.2396 77.2926 11.2396H77.2044V11.4786ZM77.5655 11.3529C77.5655 11.3973 77.5537 11.4365 77.5302 11.4707C77.5066 11.5048 77.4734 11.5302 77.4307 11.5469L77.6288 11.8758H77.489L77.3167 11.581H77.2044V11.8758H77.0812V11.1339H77.2984C77.3905 11.1339 77.458 11.1519 77.501 11.188C77.544 11.2241 77.5655 11.279 77.5655 11.3529ZM76.6234 11.5044C76.6234 11.3823 76.6539 11.2678 76.715 11.161C76.776 11.0541 76.8599 10.9699 76.9667 10.9082C77.0735 10.8465 77.1885 10.8157 77.3117 10.8157C77.4338 10.8157 77.5482 10.8462 77.655 10.9073C77.7618 10.9683 77.846 11.0523 77.9076 11.1591C77.9692 11.266 78 11.3811 78 11.5044C78 11.6247 77.9704 11.7377 77.9113 11.8433C77.8521 11.949 77.7691 12.0335 77.6623 12.097C77.5555 12.1605 77.4387 12.1923 77.3117 12.1923C77.1854 12.1923 77.0689 12.1607 76.9621 12.0975C76.8553 12.0343 76.7722 11.9499 76.7127 11.8442C76.6532 11.7386 76.6234 11.6253 76.6234 11.5044ZM76.7734 11.5044C76.7734 11.6004 76.7975 11.6902 76.8458 11.7738C76.894 11.8573 76.9599 11.9231 77.0434 11.9711C77.1269 12.0191 77.2163 12.0431 77.3117 12.0431C77.4083 12.0431 77.4978 12.019 77.5805 11.9707C77.6632 11.9224 77.7288 11.857 77.7773 11.7746C77.8258 11.6922 77.8501 11.6021 77.8501 11.5044C77.8501 11.4078 77.826 11.3182 77.7777 11.2355C77.7294 11.1527 77.6641 11.0871 77.5817 11.0385C77.4994 10.99 77.4094 10.9657 77.3117 10.9657C77.2152 10.9657 77.1256 10.9898 77.043 11.0381C76.9603 11.0864 76.8947 11.1518 76.8462 11.2342C76.7976 11.3166 76.7734 11.4067 76.7734 11.5044Z" fill="#1D1D1B"/>
<defs>
<filter id="filter0_d_313_2987" x="0.34302" y="0" width="87.0995" height="27.7243" filterUnits="userSpaceOnUse" color-interpolation-filters="sRGB">
<feFlood flood-opacity="0" result="BackgroundImageFix"/>
<feColorMatrix in="SourceAlpha" type="matrix" values="0 0 0 0 0 0 0 0 0 0 0 0 0 0 0 0 0 0 127 0" result="hardAlpha"/>
<feOffset dy="0.65698"/>
<feGaussianBlur stdDeviation="0.32849"/>
<feComposite in2="hardAlpha" operator="out"/>
<feColorMatrix type="matrix" values="0 0 0 0 0 0 0 0 0 0 0 0 0 0 0 0 0 0 0.25 0"/>
<feBlend mode="normal" in2="BackgroundImageFix" result="effect1_dropShadow_313_2987"/>
<feBlend mode="normal" in="SourceGraphic" in2="effect1_dropShadow_313_2987" result="shape"/>
</filter>
</defs>
</svg>