<svg width="446" height="34" viewBox="0 0 446 34" fill="none" xmlns="http://www.w3.org/2000/svg">
<g filter="url(#filter0_d_216_3)">
<path d="M2 1H443.755V21.6428C443.755 26.203 440.058 29.8999 435.498 29.8999H10.2571C5.69684 29.8999 2 26.203 2 21.6428V1Z" fill="#FF7700"/>
</g>
<path d="M152.453 22V10H155.281V22H152.453ZM153.875 8.29688C153.427 8.29688 153.042 8.14844 152.719 7.85156C152.396 7.54948 152.234 7.1875 152.234 6.76562C152.234 6.33854 152.396 5.97656 152.719 5.67969C153.042 5.3776 153.427 5.22656 153.875 5.22656C154.328 5.22656 154.714 5.3776 155.031 5.67969C155.354 5.97656 155.516 6.33854 155.516 6.76562C155.516 7.1875 155.354 7.54948 155.031 7.85156C154.714 8.14844 154.328 8.29688 153.875 8.29688ZM166.637 26.5V20.1094H166.52C166.374 20.401 166.163 20.7109 165.887 21.0391C165.611 21.362 165.247 21.638 164.794 21.8672C164.34 22.0964 163.77 22.2109 163.083 22.2109C162.14 22.2109 161.296 21.9688 160.551 21.4844C159.807 21 159.218 20.2969 158.786 19.375C158.353 18.4531 158.137 17.3333 158.137 16.0156C158.137 14.6823 158.356 13.5573 158.794 12.6406C159.236 11.7187 159.833 11.0234 160.583 10.5547C161.333 10.0807 162.169 9.84375 163.09 9.84375C163.794 9.84375 164.372 9.96354 164.825 10.2031C165.278 10.4375 165.637 10.7214 165.903 11.0547C166.169 11.3828 166.374 11.6927 166.52 11.9844H166.692V10H169.473V26.5H166.637ZM163.872 19.8906C164.471 19.8906 164.981 19.7292 165.403 19.4062C165.825 19.0781 166.145 18.6224 166.364 18.0391C166.583 17.4557 166.692 16.776 166.692 16C166.692 15.224 166.583 14.5495 166.364 13.9766C166.15 13.4036 165.833 12.9583 165.411 12.6406C164.994 12.3229 164.481 12.1641 163.872 12.1641C163.241 12.1641 162.715 12.3281 162.294 12.6562C161.872 12.9844 161.554 13.4375 161.34 14.0156C161.127 14.5937 161.02 15.2552 161.02 16C161.02 16.75 161.127 17.4193 161.34 18.0078C161.559 18.5911 161.879 19.0521 162.301 19.3906C162.728 19.724 163.252 19.8906 163.872 19.8906ZM183.951 22.2344C182.779 22.2344 181.763 21.9766 180.904 21.4609C180.045 20.9453 179.378 20.224 178.904 19.2969C178.435 18.3698 178.201 17.2865 178.201 16.0469C178.201 14.8073 178.435 13.7214 178.904 12.7891C179.378 11.8568 180.045 11.1328 180.904 10.6172C181.763 10.1016 182.779 9.84375 183.951 9.84375C185.123 9.84375 186.138 10.1016 186.998 10.6172C187.857 11.1328 188.521 11.8568 188.99 12.7891C189.464 13.7214 189.701 14.8073 189.701 16.0469C189.701 17.2865 189.464 18.3698 188.99 19.2969C188.521 20.224 187.857 20.9453 186.998 21.4609C186.138 21.9766 185.123 22.2344 183.951 22.2344ZM183.966 19.9687C184.602 19.9687 185.133 19.7943 185.56 19.4453C185.987 19.0911 186.305 18.6172 186.513 18.0234C186.727 17.4297 186.834 16.7682 186.834 16.0391C186.834 15.3047 186.727 14.6406 186.513 14.0469C186.305 13.4479 185.987 12.9714 185.56 12.6172C185.133 12.263 184.602 12.0859 183.966 12.0859C183.315 12.0859 182.774 12.263 182.341 12.6172C181.914 12.9714 181.594 13.4479 181.381 14.0469C181.172 14.6406 181.068 15.3047 181.068 16.0391C181.068 16.7682 181.172 17.4297 181.381 18.0234C181.594 18.6172 181.914 19.0911 182.341 19.4453C182.774 19.7943 183.315 19.9687 183.966 19.9687ZM192.541 26.5V10H195.322V11.9844H195.487C195.632 11.6927 195.838 11.3828 196.104 11.0547C196.369 10.7214 196.729 10.4375 197.182 10.2031C197.635 9.96354 198.213 9.84375 198.916 9.84375C199.843 9.84375 200.679 10.0807 201.424 10.5547C202.174 11.0234 202.768 11.7187 203.205 12.6406C203.648 13.5573 203.869 14.6823 203.869 16.0156C203.869 17.3333 203.653 18.4531 203.221 19.375C202.789 20.2969 202.2 21 201.455 21.4844C200.711 21.9688 199.867 22.2109 198.924 22.2109C198.237 22.2109 197.666 22.0964 197.213 21.8672C196.76 21.638 196.395 21.362 196.119 21.0391C195.849 20.7109 195.638 20.401 195.487 20.1094H195.369V26.5H192.541ZM195.315 16C195.315 16.776 195.424 17.4557 195.643 18.0391C195.867 18.6224 196.187 19.0781 196.604 19.4062C197.026 19.7292 197.536 19.8906 198.135 19.8906C198.76 19.8906 199.283 19.724 199.705 19.3906C200.127 19.0521 200.445 18.5911 200.658 18.0078C200.877 17.4193 200.987 16.75 200.987 16C200.987 15.2552 200.88 14.5937 200.666 14.0156C200.453 13.4375 200.135 12.9844 199.713 12.6562C199.291 12.3281 198.765 12.1641 198.135 12.1641C197.531 12.1641 197.018 12.3229 196.596 12.6406C196.174 12.9583 195.854 13.4036 195.635 13.9766C195.421 14.5495 195.315 15.224 195.315 16ZM212.723 10V12.1875H205.825V10H212.723ZM207.528 7.125H210.356V18.3906C210.356 18.7708 210.414 19.0625 210.528 19.2656C210.648 19.4635 210.804 19.599 210.997 19.6719C211.19 19.7448 211.403 19.7812 211.638 19.7812C211.815 19.7812 211.976 19.7682 212.122 19.7422C212.273 19.7161 212.388 19.6927 212.466 19.6719L212.942 21.8828C212.791 21.9349 212.575 21.9922 212.294 22.0547C212.018 22.1172 211.679 22.1536 211.278 22.1641C210.57 22.1849 209.932 22.0781 209.364 21.8437C208.796 21.6042 208.346 21.2344 208.013 20.7344C207.684 20.2344 207.523 19.6094 207.528 18.8594V7.125ZM215.529 22V10H218.357V22H215.529ZM216.951 8.29688C216.503 8.29688 216.117 8.14844 215.794 7.85156C215.471 7.54948 215.31 7.1875 215.31 6.76562C215.31 6.33854 215.471 5.97656 215.794 5.67969C216.117 5.3776 216.503 5.22656 216.951 5.22656C217.404 5.22656 217.789 5.3776 218.107 5.67969C218.43 5.97656 218.591 6.33854 218.591 6.76562C218.591 7.1875 218.43 7.54948 218.107 7.85156C217.789 8.14844 217.404 8.29688 216.951 8.29688ZM226.939 22.2344C225.768 22.2344 224.752 21.9766 223.893 21.4609C223.033 20.9453 222.366 20.224 221.893 19.2969C221.424 18.3698 221.189 17.2865 221.189 16.0469C221.189 14.8073 221.424 13.7214 221.893 12.7891C222.366 11.8568 223.033 11.1328 223.893 10.6172C224.752 10.1016 225.768 9.84375 226.939 9.84375C228.111 9.84375 229.127 10.1016 229.986 10.6172C230.846 11.1328 231.51 11.8568 231.978 12.7891C232.452 13.7214 232.689 14.8073 232.689 16.0469C232.689 17.2865 232.452 18.3698 231.978 19.2969C231.51 20.224 230.846 20.9453 229.986 21.4609C229.127 21.9766 228.111 22.2344 226.939 22.2344ZM226.955 19.9687C227.59 19.9687 228.122 19.7943 228.549 19.4453C228.976 19.0911 229.294 18.6172 229.502 18.0234C229.715 17.4297 229.822 16.7682 229.822 16.0391C229.822 15.3047 229.715 14.6406 229.502 14.0469C229.294 13.4479 228.976 12.9714 228.549 12.6172C228.122 12.263 227.59 12.0859 226.955 12.0859C226.304 12.0859 225.762 12.263 225.33 12.6172C224.903 12.9714 224.583 13.4479 224.369 14.0469C224.161 14.6406 224.057 15.3047 224.057 16.0391C224.057 16.7682 224.161 17.4297 224.369 18.0234C224.583 18.6172 224.903 19.0911 225.33 19.4453C225.762 19.7943 226.304 19.9687 226.955 19.9687ZM238.358 14.9687V22H235.53V10H238.233V12.0391H238.374C238.65 11.3672 239.09 10.8333 239.694 10.4375C240.303 10.0417 241.056 9.84375 241.952 9.84375C242.78 9.84375 243.501 10.0208 244.116 10.375C244.735 10.7292 245.215 11.2422 245.553 11.9141C245.897 12.5859 246.066 13.401 246.061 14.3594V22H243.233V14.7969C243.233 13.9948 243.025 13.3672 242.608 12.9141C242.196 12.4609 241.626 12.2344 240.897 12.2344C240.402 12.2344 239.962 12.3437 239.577 12.5625C239.196 12.776 238.897 13.0859 238.678 13.4922C238.465 13.8984 238.358 14.3906 238.358 14.9687Z" fill="white"/>
<path d="M36.5781 22V6H46.9844V8.42969H39.4766V12.7734H46.4453V15.2031H39.4766V19.5703H47.0469V22H36.5781ZM52.5689 10L54.9908 14.4297L57.4517 10H60.4439L56.8267 16L60.5064 22H57.5298L54.9908 17.6797L52.4752 22H49.4752L53.1314 16L49.5689 10H52.5689ZM65.8995 14.9687V22H63.0714V10H65.7745V12.0391H65.9152C66.1912 11.3672 66.6313 10.8333 67.2355 10.4375C67.8448 10.0417 68.5974 9.84375 69.4933 9.84375C70.3214 9.84375 71.0428 10.0208 71.6573 10.375C72.2771 10.7292 72.7563 11.2422 73.0948 11.9141C73.4386 12.5859 73.6079 13.401 73.6027 14.3594V22H70.7745V14.7969C70.7745 13.9948 70.5662 13.3672 70.1495 12.9141C69.7381 12.4609 69.1678 12.2344 68.4386 12.2344C67.9438 12.2344 67.5037 12.3437 67.1183 12.5625C66.7381 12.776 66.4386 13.0859 66.2198 13.4922C66.0063 13.8984 65.8995 14.3906 65.8995 14.9687ZM82.152 22.2344C80.9802 22.2344 79.9645 21.9766 79.1052 21.4609C78.2458 20.9453 77.5791 20.224 77.1052 19.2969C76.6364 18.3698 76.402 17.2865 76.402 16.0469C76.402 14.8073 76.6364 13.7214 77.1052 12.7891C77.5791 11.8568 78.2458 11.1328 79.1052 10.6172C79.9645 10.1016 80.9802 9.84375 82.152 9.84375C83.3239 9.84375 84.3395 10.1016 85.1989 10.6172C86.0583 11.1328 86.7223 11.8568 87.1911 12.7891C87.6651 13.7214 87.902 14.8073 87.902 16.0469C87.902 17.2865 87.6651 18.3698 87.1911 19.2969C86.7223 20.224 86.0583 20.9453 85.1989 21.4609C84.3395 21.9766 83.3239 22.2344 82.152 22.2344ZM82.1677 19.9687C82.8031 19.9687 83.3343 19.7943 83.7614 19.4453C84.1885 19.0911 84.5062 18.6172 84.7145 18.0234C84.9281 17.4297 85.0348 16.7682 85.0348 16.0391C85.0348 15.3047 84.9281 14.6406 84.7145 14.0469C84.5062 13.4479 84.1885 12.9714 83.7614 12.6172C83.3343 12.263 82.8031 12.0859 82.1677 12.0859C81.5166 12.0859 80.9749 12.263 80.5427 12.6172C80.1156 12.9714 79.7953 13.4479 79.5817 14.0469C79.3734 14.6406 79.2692 15.3047 79.2692 16.0391C79.2692 16.7682 79.3734 17.4297 79.5817 18.0234C79.7953 18.6172 80.1156 19.0911 80.5427 19.4453C80.9749 19.7943 81.5166 19.9687 82.1677 19.9687ZM101.053 10L96.7795 22H93.6545L89.3811 10H92.3967L95.1545 18.9141H95.2795L98.0452 10H101.053ZM106.559 22.2422C105.799 22.2422 105.114 22.1068 104.505 21.8359C103.901 21.5599 103.421 21.1536 103.067 20.6172C102.718 20.0807 102.544 19.4193 102.544 18.6328C102.544 17.9557 102.669 17.3958 102.919 16.9531C103.169 16.5104 103.51 16.1562 103.942 15.8906C104.374 15.625 104.861 15.4245 105.403 15.2891C105.95 15.1484 106.515 15.0469 107.098 14.9844C107.802 14.9115 108.372 14.8464 108.809 14.7891C109.247 14.7266 109.565 14.6328 109.762 14.5078C109.966 14.3776 110.067 14.1771 110.067 13.9062V13.8594C110.067 13.2708 109.893 12.8151 109.544 12.4922C109.195 12.1693 108.692 12.0078 108.036 12.0078C107.343 12.0078 106.794 12.1589 106.387 12.4609C105.986 12.763 105.716 13.1198 105.575 13.5312L102.934 13.1562C103.143 12.4271 103.486 11.8177 103.966 11.3281C104.445 10.8333 105.031 10.4635 105.723 10.2187C106.416 9.96875 107.182 9.84375 108.02 9.84375C108.598 9.84375 109.174 9.91146 109.747 10.0469C110.32 10.1823 110.843 10.4062 111.317 10.7187C111.791 11.026 112.171 11.4453 112.458 11.9766C112.749 12.5078 112.895 13.1719 112.895 13.9687V22H110.177V20.3516H110.083C109.911 20.6849 109.669 20.9974 109.356 21.2891C109.049 21.5755 108.661 21.8073 108.192 21.9844C107.729 22.1563 107.184 22.2422 106.559 22.2422ZM107.294 20.1641C107.861 20.1641 108.354 20.0521 108.77 19.8281C109.187 19.599 109.507 19.2969 109.731 18.9219C109.96 18.5469 110.075 18.138 110.075 17.6953V16.2812C109.986 16.3542 109.835 16.4219 109.622 16.4844C109.414 16.5469 109.179 16.6016 108.919 16.6484C108.658 16.6953 108.401 16.737 108.145 16.7734C107.89 16.8099 107.669 16.8411 107.481 16.8672C107.059 16.9245 106.682 17.0182 106.348 17.1484C106.015 17.2786 105.752 17.4609 105.559 17.6953C105.367 17.9245 105.27 18.2214 105.27 18.5859C105.27 19.1068 105.46 19.5 105.841 19.7656C106.221 20.0312 106.705 20.1641 107.294 20.1641Z" fill="white"/>
<path d="M297.273 11.3984H294.352C294.268 10.9193 294.115 10.4948 293.891 10.125C293.667 9.75 293.388 9.43229 293.055 9.17187C292.721 8.91146 292.341 8.71615 291.914 8.58594C291.492 8.45052 291.036 8.38281 290.547 8.38281C289.677 8.38281 288.906 8.60156 288.234 9.03906C287.563 9.47135 287.036 10.1068 286.656 10.9453C286.276 11.7786 286.086 12.7969 286.086 14C286.086 15.224 286.276 16.2552 286.656 17.0937C287.042 17.9271 287.568 18.5573 288.234 18.9844C288.906 19.4062 289.674 19.6172 290.539 19.6172C291.018 19.6172 291.466 19.5547 291.883 19.4297C292.305 19.2995 292.682 19.1094 293.016 18.8594C293.354 18.6094 293.638 18.3021 293.867 17.9375C294.102 17.5729 294.263 17.1562 294.352 16.6875L297.273 16.7031C297.164 17.4635 296.927 18.1771 296.562 18.8438C296.203 19.5104 295.732 20.099 295.148 20.6094C294.565 21.1146 293.883 21.5104 293.102 21.7969C292.32 22.0781 291.453 22.2187 290.5 22.2187C289.094 22.2187 287.839 21.8932 286.734 21.2422C285.63 20.5911 284.76 19.651 284.125 18.4219C283.49 17.1927 283.172 15.7187 283.172 14C283.172 12.276 283.492 10.8021 284.133 9.57812C284.773 8.34896 285.646 7.40885 286.75 6.75781C287.854 6.10677 289.104 5.78125 290.5 5.78125C291.391 5.78125 292.219 5.90625 292.984 6.15625C293.75 6.40625 294.432 6.77344 295.031 7.25781C295.63 7.73698 296.122 8.32552 296.508 9.02344C296.898 9.71615 297.154 10.5078 297.273 11.3984ZM303.696 22.2422C302.935 22.2422 302.251 22.1068 301.641 21.8359C301.037 21.5599 300.558 21.1536 300.204 20.6172C299.855 20.0807 299.68 19.4193 299.68 18.6328C299.68 17.9557 299.805 17.3958 300.055 16.9531C300.305 16.5104 300.646 16.1562 301.079 15.8906C301.511 15.625 301.998 15.4245 302.54 15.2891C303.086 15.1484 303.652 15.0469 304.235 14.9844C304.938 14.9115 305.508 14.8464 305.946 14.7891C306.383 14.7266 306.701 14.6328 306.899 14.5078C307.102 14.3776 307.204 14.1771 307.204 13.9062V13.8594C307.204 13.2708 307.029 12.8151 306.68 12.4922C306.331 12.1693 305.829 12.0078 305.172 12.0078C304.48 12.0078 303.93 12.1589 303.524 12.4609C303.123 12.763 302.852 13.1198 302.711 13.5312L300.071 13.1562C300.279 12.4271 300.623 11.8177 301.102 11.3281C301.581 10.8333 302.167 10.4635 302.86 10.2187C303.553 9.96875 304.318 9.84375 305.157 9.84375C305.735 9.84375 306.31 9.91146 306.883 10.0469C307.456 10.1823 307.98 10.4062 308.454 10.7187C308.928 11.026 309.308 11.4453 309.594 11.9766C309.886 12.5078 310.032 13.1719 310.032 13.9687V22H307.313V20.3516H307.219C307.047 20.6849 306.805 20.9974 306.493 21.2891C306.185 21.5755 305.797 21.8073 305.329 21.9844C304.865 22.1563 304.321 22.2422 303.696 22.2422ZM304.43 20.1641C304.998 20.1641 305.49 20.0521 305.907 19.8281C306.323 19.599 306.644 19.2969 306.868 18.9219C307.097 18.5469 307.211 18.138 307.211 17.6953V16.2812C307.123 16.3542 306.972 16.4219 306.758 16.4844C306.55 16.5469 306.316 16.6016 306.055 16.6484C305.795 16.6953 305.537 16.737 305.282 16.7734C305.027 16.8099 304.805 16.8411 304.618 16.8672C304.196 16.9245 303.818 17.0182 303.485 17.1484C303.152 17.2786 302.889 17.4609 302.696 17.6953C302.503 17.9245 302.407 18.2214 302.407 18.5859C302.407 19.1068 302.597 19.5 302.977 19.7656C303.357 20.0312 303.842 20.1641 304.43 20.1641ZM313.316 26.5V10H316.097V11.9844H316.261C316.407 11.6927 316.612 11.3828 316.878 11.0547C317.144 10.7214 317.503 10.4375 317.956 10.2031C318.409 9.96354 318.987 9.84375 319.691 9.84375C320.618 9.84375 321.454 10.0807 322.198 10.5547C322.948 11.0234 323.542 11.7187 323.98 12.6406C324.422 13.5573 324.644 14.6823 324.644 16.0156C324.644 17.3333 324.428 18.4531 323.995 19.375C323.563 20.2969 322.974 21 322.23 21.4844C321.485 21.9688 320.641 22.2109 319.698 22.2109C319.011 22.2109 318.441 22.0964 317.987 21.8672C317.534 21.638 317.17 21.362 316.894 21.0391C316.623 20.7109 316.412 20.401 316.261 20.1094H316.144V26.5H313.316ZM316.089 16C316.089 16.776 316.198 17.4557 316.417 18.0391C316.641 18.6224 316.961 19.0781 317.378 19.4062C317.8 19.7292 318.31 19.8906 318.909 19.8906C319.534 19.8906 320.058 19.724 320.48 19.3906C320.901 19.0521 321.219 18.5911 321.433 18.0078C321.651 17.4193 321.761 16.75 321.761 16C321.761 15.2552 321.654 14.5937 321.441 14.0156C321.227 13.4375 320.909 12.9844 320.487 12.6562C320.066 12.3281 319.54 12.1641 318.909 12.1641C318.305 12.1641 317.792 12.3229 317.37 12.6406C316.948 12.9583 316.628 13.4036 316.409 13.9766C316.196 14.5495 316.089 15.224 316.089 16ZM327.506 22V10H330.334V22H327.506ZM328.927 8.29688C328.48 8.29688 328.094 8.14844 327.771 7.85156C327.448 7.54948 327.287 7.1875 327.287 6.76562C327.287 6.33854 327.448 5.97656 327.771 5.67969C328.094 5.3776 328.48 5.22656 328.927 5.22656C329.381 5.22656 329.766 5.3776 330.084 5.67969C330.407 5.97656 330.568 6.33854 330.568 6.76562C330.568 7.1875 330.407 7.54948 330.084 7.85156C329.766 8.14844 329.381 8.29688 328.927 8.29688ZM339.674 10V12.1875H332.776V10H339.674ZM334.479 7.125H337.307V18.3906C337.307 18.7708 337.364 19.0625 337.479 19.2656C337.599 19.4635 337.755 19.599 337.947 19.6719C338.14 19.7448 338.354 19.7812 338.588 19.7812C338.765 19.7812 338.927 19.7682 339.072 19.7422C339.224 19.7161 339.338 19.6927 339.416 19.6719L339.893 21.8828C339.742 21.9349 339.526 21.9922 339.244 22.0547C338.968 22.1172 338.63 22.1536 338.229 22.1641C337.52 22.1849 336.882 22.0781 336.315 21.8437C335.747 21.6042 335.296 21.2344 334.963 20.7344C334.635 20.2344 334.474 19.6094 334.479 18.8594V7.125ZM345.932 22.2422C345.172 22.2422 344.487 22.1068 343.878 21.8359C343.274 21.5599 342.794 21.1536 342.44 20.6172C342.091 20.0807 341.917 19.4193 341.917 18.6328C341.917 17.9557 342.042 17.3958 342.292 16.9531C342.542 16.5104 342.883 16.1562 343.315 15.8906C343.748 15.625 344.235 15.4245 344.776 15.2891C345.323 15.1484 345.888 15.0469 346.471 14.9844C347.175 14.9115 347.745 14.8464 348.182 14.7891C348.62 14.7266 348.938 14.6328 349.136 14.5078C349.339 14.3776 349.44 14.1771 349.44 13.9062V13.8594C349.44 13.2708 349.266 12.8151 348.917 12.4922C348.568 12.1693 348.065 12.0078 347.409 12.0078C346.716 12.0078 346.167 12.1589 345.761 12.4609C345.36 12.763 345.089 13.1198 344.948 13.5312L342.307 13.1562C342.516 12.4271 342.86 11.8177 343.339 11.3281C343.818 10.8333 344.404 10.4635 345.096 10.2187C345.789 9.96875 346.555 9.84375 347.393 9.84375C347.971 9.84375 348.547 9.91146 349.12 10.0469C349.693 10.1823 350.216 10.4062 350.69 10.7187C351.164 11.026 351.544 11.4453 351.831 11.9766C352.123 12.5078 352.268 13.1719 352.268 13.9687V22H349.55V20.3516H349.456C349.284 20.6849 349.042 20.9974 348.729 21.2891C348.422 21.5755 348.034 21.8073 347.565 21.9844C347.102 22.1563 346.557 22.2422 345.932 22.2422ZM346.667 20.1641C347.235 20.1641 347.727 20.0521 348.143 19.8281C348.56 19.599 348.88 19.2969 349.104 18.9219C349.333 18.5469 349.448 18.138 349.448 17.6953V16.2812C349.36 16.3542 349.208 16.4219 348.995 16.4844C348.787 16.5469 348.552 16.6016 348.292 16.6484C348.031 16.6953 347.774 16.737 347.518 16.7734C347.263 16.8099 347.042 16.8411 346.854 16.8672C346.432 16.9245 346.055 17.0182 345.721 17.1484C345.388 17.2786 345.125 17.4609 344.932 17.6953C344.74 17.9245 344.643 18.2214 344.643 18.5859C344.643 19.1068 344.833 19.5 345.214 19.7656C345.594 20.0312 346.078 20.1641 346.667 20.1641ZM358.38 6V22H355.552V6H358.38ZM361.853 22V6H367.978C369.135 6 370.096 6.18229 370.861 6.54687C371.632 6.90625 372.208 7.39844 372.588 8.02344C372.973 8.64844 373.166 9.35677 373.166 10.1484C373.166 10.7995 373.041 11.3568 372.791 11.8203C372.541 12.2786 372.205 12.651 371.783 12.9375C371.361 13.224 370.89 13.4297 370.369 13.5547V13.7109C370.937 13.7422 371.481 13.9167 372.002 14.2344C372.528 14.5469 372.958 14.9896 373.291 15.5625C373.624 16.1354 373.791 16.8281 373.791 17.6406C373.791 18.4687 373.59 19.2135 373.189 19.875C372.788 20.5312 372.184 21.0495 371.377 21.4297C370.57 21.8099 369.554 22 368.33 22H361.853ZM364.752 19.5781H367.869C368.921 19.5781 369.679 19.3776 370.143 18.9766C370.611 18.5703 370.846 18.0495 370.846 17.4141C370.846 16.9401 370.728 16.513 370.494 16.1328C370.26 15.7474 369.926 15.4453 369.494 15.2266C369.062 15.0026 368.546 14.8906 367.947 14.8906H364.752V19.5781ZM364.752 12.8047H367.619C368.119 12.8047 368.57 12.7135 368.971 12.5312C369.372 12.3437 369.687 12.0807 369.916 11.7422C370.15 11.3984 370.268 10.9922 370.268 10.5234C370.268 9.90365 370.049 9.39323 369.611 8.99219C369.179 8.59114 368.536 8.39062 367.682 8.39062H364.752V12.8047ZM381.94 22.2344C380.737 22.2344 379.698 21.9844 378.823 21.4844C377.953 20.9792 377.284 20.2656 376.815 19.3437C376.346 18.4167 376.112 17.3255 376.112 16.0703C376.112 14.8359 376.346 13.7526 376.815 12.8203C377.289 11.8828 377.95 11.1536 378.799 10.6328C379.648 10.1068 380.646 9.84375 381.791 9.84375C382.531 9.84375 383.229 9.96354 383.885 10.2031C384.547 10.4375 385.13 10.8021 385.635 11.2969C386.146 11.7917 386.547 12.4219 386.838 13.1875C387.13 13.9479 387.276 14.8542 387.276 15.9062V16.7734H377.44V14.8672H384.565C384.56 14.3255 384.443 13.8437 384.213 13.4219C383.984 12.9948 383.664 12.6589 383.252 12.4141C382.846 12.1693 382.372 12.0469 381.831 12.0469C381.252 12.0469 380.745 12.1875 380.307 12.4687C379.87 12.7448 379.528 13.1094 379.284 13.5625C379.044 14.0104 378.922 14.5026 378.916 15.0391V16.7031C378.916 17.401 379.044 18 379.299 18.5C379.555 18.9948 379.911 19.375 380.37 19.6406C380.828 19.901 381.364 20.0312 381.979 20.0312C382.39 20.0312 382.763 19.974 383.096 19.8594C383.43 19.7396 383.719 19.5651 383.963 19.3359C384.208 19.1068 384.393 18.8229 384.518 18.4844L387.159 18.7812C386.992 19.4792 386.674 20.0885 386.206 20.6094C385.742 21.125 385.148 21.526 384.424 21.8125C383.7 22.0937 382.872 22.2344 381.94 22.2344ZM393.562 22.2422C392.801 22.2422 392.116 22.1068 391.507 21.8359C390.903 21.5599 390.424 21.1536 390.069 20.6172C389.72 20.0807 389.546 19.4193 389.546 18.6328C389.546 17.9557 389.671 17.3958 389.921 16.9531C390.171 16.5104 390.512 16.1562 390.944 15.8906C391.377 15.625 391.864 15.4245 392.405 15.2891C392.952 15.1484 393.517 15.0469 394.101 14.9844C394.804 14.9115 395.374 14.8464 395.812 14.7891C396.249 14.7266 396.567 14.6328 396.765 14.5078C396.968 14.3776 397.069 14.1771 397.069 13.9062V13.8594C397.069 13.2708 396.895 12.8151 396.546 12.4922C396.197 12.1693 395.694 12.0078 395.038 12.0078C394.345 12.0078 393.796 12.1589 393.39 12.4609C392.989 12.763 392.718 13.1198 392.577 13.5312L389.937 13.1562C390.145 12.4271 390.489 11.8177 390.968 11.3281C391.447 10.8333 392.033 10.4635 392.726 10.2187C393.418 9.96875 394.184 9.84375 395.022 9.84375C395.601 9.84375 396.176 9.91146 396.749 10.0469C397.322 10.1823 397.845 10.4062 398.319 10.7187C398.793 11.026 399.174 11.4453 399.46 11.9766C399.752 12.5078 399.897 13.1719 399.897 13.9687V22H397.179V20.3516H397.085C396.913 20.6849 396.671 20.9974 396.358 21.2891C396.051 21.5755 395.663 21.8073 395.194 21.9844C394.731 22.1563 394.187 22.2422 393.562 22.2422ZM394.296 20.1641C394.864 20.1641 395.356 20.0521 395.772 19.8281C396.189 19.599 396.509 19.2969 396.733 18.9219C396.963 18.5469 397.077 18.138 397.077 17.6953V16.2812C396.989 16.3542 396.838 16.4219 396.624 16.4844C396.416 16.5469 396.181 16.6016 395.921 16.6484C395.661 16.6953 395.403 16.737 395.147 16.7734C394.892 16.8099 394.671 16.8411 394.483 16.8672C394.062 16.9245 393.684 17.0182 393.351 17.1484C393.017 17.2786 392.754 17.4609 392.562 17.6953C392.369 17.9245 392.272 18.2214 392.272 18.5859C392.272 19.1068 392.463 19.5 392.843 19.7656C393.223 20.0312 393.707 20.1641 394.296 20.1641ZM403.181 22V10H405.923V12H406.048C406.267 11.3073 406.642 10.7734 407.173 10.3984C407.71 10.0182 408.322 9.82812 409.009 9.82812C409.166 9.82812 409.34 9.83594 409.533 9.85156C409.731 9.86198 409.895 9.88021 410.025 9.90625V12.5078C409.905 12.4661 409.715 12.4297 409.455 12.3984C409.199 12.362 408.952 12.3437 408.713 12.3437C408.197 12.3437 407.733 12.4557 407.322 12.6797C406.916 12.8984 406.595 13.2031 406.361 13.5937C406.127 13.9844 406.009 14.4349 406.009 14.9453V22H403.181Z" fill="white"/>
<path d="M137.282 10.0001H133.757L137.674 16L133.757 22H137.282L141.2 16L137.282 10.0001Z" fill="white"/>
<path d="M129.526 10H126L129.526 15.9999L126 21.9999H129.526L133.443 15.9999L129.526 10Z" fill="white"/>
<path d="M268.282 10.0001H264.757L268.674 16L264.757 22H268.282L272.2 16L268.282 10.0001Z" fill="white"/>
<path d="M260.526 10H257L260.526 15.9999L257 21.9999H260.526L264.443 15.9999L260.526 10Z" fill="white"/>
<defs>
<filter id="filter0_d_216_3" x="0" y="1" width="445.755" height="32.8999" filterUnits="userSpaceOnUse" color-interpolation-filters="sRGB">
<feFlood flood-opacity="0" result="BackgroundImageFix"/>
<feColorMatrix in="SourceAlpha" type="matrix" values="0 0 0 0 0 0 0 0 0 0 0 0 0 0 0 0 0 0 127 0" result="hardAlpha"/>
<feOffset dy="2"/>
<feGaussianBlur stdDeviation="1"/>
<feComposite in2="hardAlpha" operator="out"/>
<feColorMatrix type="matrix" values="0 0 0 0 0 0 0 0 0 0 0 0 0 0 0 0 0 0 0.25 0"/>
<feBlend mode="normal" in2="BackgroundImageFix" result="effect1_dropShadow_216_3"/>
<feBlend mode="normal" in="SourceGraphic" in2="effect1_dropShadow_216_3" result="shape"/>
</filter>
</defs>
</svg>
