<svg width="9" height="9" viewBox="0 0 9 9" fill="none" xmlns="http://www.w3.org/2000/svg">
<path d="M0.9 0H8.1C8.33869 0 8.56761 0.0948211 8.7364 0.263604C8.90518 0.432387 9 0.661305 9 0.9V6.3C9 6.53869 8.90518 6.76761 8.7364 6.9364C8.56761 7.10518 8.33869 7.2 8.1 7.2H5.355L3.69 8.8695C3.6 8.955 3.4875 9 3.375 9H3.15C3.03065 9 2.91619 8.95259 2.8318 8.8682C2.74741 8.78381 2.7 8.66935 2.7 8.55V7.2H0.9C0.661305 7.2 0.432387 7.10518 0.263604 6.9364C0.0948211 6.76761 0 6.53869 0 6.3V0.9C0 0.4005 0.405 0 0.9 0ZM4.5855 1.575C4.185 1.575 3.8655 1.656 3.6225 1.818C3.375 1.98 3.249 2.25 3.2715 2.5605H4.158C4.158 2.4345 4.203 2.34 4.275 2.277C4.365 2.214 4.464 2.1825 4.5855 2.1825C4.725 2.1825 4.8465 2.2185 4.9275 2.2995C5.0085 2.376 5.049 2.475 5.049 2.61C5.049 2.736 5.013 2.8485 4.95 2.943C4.8735 3.042 4.779 3.123 4.662 3.186C4.428 3.33 4.275 3.456 4.1805 3.564C4.095 3.672 4.05 3.825 4.05 4.05H4.95C4.95 3.924 4.9725 3.825 5.013 3.744C5.0535 3.6675 5.13 3.6 5.247 3.5325C5.454 3.438 5.625 3.312 5.7555 3.15C5.886 2.9835 5.9535 2.808 5.9535 2.61C5.9535 2.295 5.832 2.043 5.589 1.854C5.346 1.6695 5.0085 1.575 4.5855 1.575ZM4.05 4.5V5.4H4.95V4.5H4.05Z" fill="white"/>
</svg>
