<svg xmlns="http://www.w3.org/2000/svg" fill="none" viewBox="8.56 15.19 720.71 240.37">
<path d="M10.2831 205.423L19.3718 197.918L31.1658 158.799L59.9307 153.961L78.1433 182.462L102.793 168.103L127.722 163.909L137.143 153.041L161.113 149.009L180.002 182.966L190.609 157.973L219.374 153.134L253.164 117.742L280.011 113.226L308.773 124.17L333.703 119.976L355.053 87.0677L376.29 92.3881L405.054 87.5494L427.956 66.9862L459.598 61.6636L492.182 39.6162L517.408 62.1509L539.796 76.9522L574.372 63.709L602.12 66.4682L639.575 36.9584L672.115 54.6939L727.54 16.9147" stroke="#3D943B" stroke-width="3.45538"/>
<path d="M603.498 68.0941L574.406 66.0998L540.179 78.0653L514.509 62.1113L492.262 42.1687L461.458 62.1113L428.943 68.0941L406.696 88.0366L377.604 94.0194L357.068 88.0366L334.821 119.945L309.151 125.927L280.059 113.962L254.389 117.95L220.162 153.847L191.07 159.83L180.802 183.761L160.266 149.859L138.019 153.847L127.751 165.813L102.081 169.801L78.1229 183.761L59.2983 155.841L31.9172 159.83L19.938 197.721L11.3814 205.698V255.554H726.713V20.2319L673.662 56.1285L639.436 38.1802L603.498 68.0941Z" fill="url(#paint0_linear_307_2993)" fill-opacity="0.2"/>
<defs>
<linearGradient id="paint0_linear_307_2993" x1="360.491" y1="56.1285" x2="360.491" y2="255.554" gradientUnits="userSpaceOnUse">
<stop stop-color="#3D943B"/>
<stop offset="1" stop-color="#3D943B" stop-opacity="0.05"/>
</linearGradient>
</defs>
</svg>