<svg width="86" height="27" viewBox="0 0 86 27" fill="none" xmlns="http://www.w3.org/2000/svg">
<path d="M0.218993 2C0.218993 1.01638 1.01638 0.218993 2 0.218993H83.7855C84.7691 0.218993 85.5665 1.01638 85.5665 2V24.4104C85.5665 25.394 84.7691 26.1914 83.7855 26.1914H2C1.01638 26.1914 0.218993 25.394 0.218993 24.4104V2Z" fill="white" stroke="#BBBBBB" stroke-width="0.437986"/>
<path d="M17.262 21.524C21.825 21.524 25.524 17.825 25.524 13.262C25.524 8.69902 21.825 5 17.262 5C12.699 5 9 8.69902 9 13.262C9 17.825 12.699 21.524 17.262 21.524Z" fill="#FF7700"/>
<path d="M17.0014 10.0321C17.5681 10.0321 18.0328 10.4968 18.0328 11.0634V16.7414C18.0328 17.3081 17.5681 17.7727 17.0014 17.7727C16.4348 17.7727 15.9701 17.3081 15.9701 16.7414V11.0634C15.9701 10.4968 16.4348 10.0321 17.0014 10.0321ZM13.6468 11.9701C14.2134 11.9701 14.6781 12.4348 14.6781 13.0014V16.7414C14.6781 17.3081 14.2134 17.7727 13.6468 17.7727C13.0801 17.7727 12.6154 17.3081 12.6154 16.7414V13.0014C12.6154 12.4348 13.0688 11.9701 13.6468 11.9701ZM20.3561 8.23009C20.9228 8.23009 21.3874 8.69476 21.3874 9.26143V16.7527C21.3874 17.3194 20.9228 17.7841 20.3561 17.7841C19.7894 17.7841 19.3248 17.3194 19.3248 16.7527V9.26143C19.3248 8.69476 19.7894 8.23009 20.3561 8.23009Z" fill="white"/>
<path d="M29.8534 9.77127C29.7061 9.77127 29.5474 9.73727 29.4114 9.6806C29.2754 9.62394 29.1507 9.54461 29.0487 9.43127C28.9467 9.32927 28.8674 9.20461 28.7994 9.06861C28.7427 8.93261 28.7087 8.78527 28.7087 8.61527C28.7087 8.45661 28.7427 8.29794 28.7994 8.16194C28.8561 8.02594 28.9354 7.90127 29.0487 7.79927C29.1507 7.69727 29.2754 7.60661 29.4114 7.54994C29.5474 7.49328 29.7061 7.45927 29.8534 7.45927C30.1707 7.45927 30.4427 7.57261 30.6694 7.78794C30.8961 8.01461 31.0094 8.27527 31.0094 8.59261C31.0094 8.90994 30.8961 9.18194 30.6694 9.39727C30.4427 9.65794 30.1707 9.77127 29.8534 9.77127ZM28.9694 17.3986V10.7346H30.7487V17.3986H28.9694ZM36.5401 17.5459V16.5939C36.3814 16.8773 36.1207 17.1153 35.7807 17.3193C35.4407 17.5233 35.0101 17.6139 34.5001 17.6139C34.0694 17.6139 33.6727 17.5233 33.2874 17.3533C32.9021 17.1719 32.5621 16.9226 32.2674 16.6166C31.9727 16.2993 31.7347 15.9253 31.5647 15.4946C31.3947 15.0639 31.3041 14.5879 31.3041 14.0666C31.3041 13.5453 31.3947 13.0693 31.5647 12.6386C31.7347 12.2079 31.9727 11.8339 32.2674 11.5166C32.5621 11.2106 32.9021 10.9613 33.2874 10.7799C33.6727 10.5986 34.0807 10.5079 34.5001 10.5193C35.0101 10.5193 35.4294 10.6213 35.7807 10.8139C36.1207 11.0179 36.3814 11.2559 36.5401 11.5393V10.7346H38.3194V20.3339H36.5401V17.5459ZM34.8627 15.9706C35.1007 15.9706 35.3274 15.9253 35.5314 15.8459C35.7467 15.7553 35.9394 15.6306 36.0981 15.4719C36.2567 15.3133 36.3927 15.1093 36.4947 14.8713C36.5967 14.6333 36.6421 14.3726 36.6421 14.0666C36.6421 13.7606 36.5967 13.4999 36.4947 13.2619C36.3927 13.0239 36.2681 12.8313 36.0981 12.6613C35.9394 12.5026 35.7467 12.3779 35.5314 12.2873C35.3161 12.1966 35.0894 12.1626 34.8627 12.1626C34.6247 12.1626 34.3981 12.2079 34.1941 12.2986C33.9787 12.3893 33.7861 12.5139 33.6274 12.6839C33.4687 12.8426 33.3327 13.0466 33.2307 13.2846C33.1287 13.5226 33.0834 13.7833 33.0834 14.0779C33.0834 14.3726 33.1287 14.6333 33.2307 14.8713C33.3327 15.1093 33.4574 15.3019 33.6274 15.4719C33.7861 15.6306 33.9787 15.7666 34.1941 15.8573C34.4094 15.9253 34.6361 15.9706 34.8627 15.9706ZM44.6774 10.5193C45.1987 10.5193 45.6634 10.6099 46.094 10.7799C46.5247 10.9613 46.8987 11.1993 47.2047 11.5166C47.522 11.8339 47.76 12.2079 47.9414 12.6386C48.1227 13.0693 48.202 13.5453 48.202 14.0666C48.202 14.5879 48.1114 15.0639 47.9414 15.4946C47.76 15.9253 47.522 16.2993 47.2047 16.6166C46.8874 16.9339 46.5247 17.1719 46.094 17.3533C45.6634 17.5346 45.1874 17.6139 44.6774 17.6139C44.156 17.6139 43.6914 17.5233 43.2607 17.3533C42.83 17.1719 42.456 16.9339 42.15 16.6166C41.8327 16.2993 41.5947 15.9253 41.4134 15.4946C41.232 15.0639 41.1527 14.5879 41.1527 14.0666C41.1527 13.5453 41.2434 13.0693 41.4134 12.6386C41.5947 12.2079 41.8327 11.8339 42.15 11.5166C42.4674 11.1993 42.83 10.9613 43.2607 10.7799C43.6914 10.6099 44.1674 10.5193 44.6774 10.5193ZM44.6774 15.9706C44.904 15.9706 45.1194 15.9253 45.3347 15.8459C45.55 15.7553 45.7427 15.6306 45.9014 15.4719C46.06 15.3133 46.196 15.1093 46.2867 14.8713C46.3774 14.6333 46.434 14.3726 46.434 14.0666C46.434 13.7606 46.3887 13.4999 46.2867 13.2619C46.196 13.0239 46.06 12.8313 45.9014 12.6613C45.7427 12.5026 45.55 12.3779 45.3347 12.2873C45.1307 12.1966 44.904 12.1626 44.6774 12.1626C44.4394 12.1626 44.224 12.2079 44.0087 12.2873C43.8047 12.3779 43.612 12.5026 43.4534 12.6613C43.2947 12.8199 43.1587 13.0239 43.068 13.2619C42.9774 13.4999 42.9207 13.7606 42.9207 14.0666C42.9207 14.3726 42.966 14.6333 43.068 14.8713C43.1587 15.1093 43.2947 15.3019 43.4534 15.4719C43.612 15.6306 43.8047 15.7553 44.0087 15.8459C44.224 15.9253 44.4507 15.9706 44.6774 15.9706ZM48.61 10.7346H50.3894V11.5393C50.548 11.2559 50.8087 11.0179 51.1487 10.8139C51.4887 10.6099 51.9194 10.5193 52.4294 10.5193C52.86 10.5193 53.2567 10.6099 53.642 10.7799C54.0274 10.9613 54.3674 11.2106 54.662 11.5166C54.9567 11.8339 55.1947 12.2079 55.3647 12.6386C55.5347 13.0693 55.6254 13.5453 55.6254 14.0666C55.6254 14.5879 55.5347 15.0639 55.3647 15.4946C55.1947 15.9253 54.9567 16.2993 54.662 16.6166C54.3674 16.9226 54.0274 17.1719 53.642 17.3533C53.2567 17.5346 52.8487 17.6253 52.4294 17.6139C51.9194 17.6139 51.5 17.5119 51.1487 17.3193C50.8087 17.1153 50.548 16.8773 50.3894 16.5939V20.3339H48.61V10.7346ZM52.0667 15.9706C52.3047 15.9706 52.5314 15.9253 52.7354 15.8346C52.9507 15.7439 53.1434 15.6193 53.302 15.4493C53.4607 15.2906 53.5967 15.0866 53.6987 14.8486C53.8007 14.6106 53.846 14.3499 53.846 14.0553C53.846 13.7606 53.8007 13.4999 53.6987 13.2619C53.5967 13.0239 53.472 12.8313 53.302 12.6613C53.1434 12.5026 52.9507 12.3666 52.7354 12.2759C52.52 12.1853 52.2934 12.1399 52.0667 12.1399C51.8287 12.1399 51.602 12.1853 51.398 12.2646C51.1827 12.3553 50.99 12.4799 50.8314 12.6386C50.6727 12.7973 50.5367 13.0013 50.4347 13.2393C50.3327 13.4773 50.2874 13.7379 50.2874 14.0439C50.2874 14.3499 50.3327 14.6106 50.4347 14.8486C50.5367 15.0866 50.6614 15.2793 50.8314 15.4493C50.99 15.6079 51.1827 15.7326 51.398 15.8233C51.602 15.9253 51.8287 15.9706 52.0667 15.9706ZM56.6 12.2533H55.4327V10.7346H56.6V8.69461H58.3794V10.7346H60.0114V12.2533H58.3794V14.8373C58.3794 14.9959 58.3907 15.1319 58.4247 15.2679C58.4587 15.4039 58.5153 15.5059 58.606 15.5966C58.7307 15.7439 58.912 15.8119 59.15 15.8119C59.3087 15.8119 59.422 15.8006 59.5127 15.7666C59.6033 15.7326 59.694 15.6873 59.7733 15.6419L60.272 17.2059C60.0567 17.3079 59.83 17.3873 59.6034 17.4326C59.3654 17.4779 59.0934 17.5119 58.81 17.5119C58.47 17.5119 58.1754 17.4553 57.9034 17.3533C57.6314 17.2513 57.416 17.1039 57.2347 16.9226C56.804 16.5146 56.6 15.9366 56.6 15.1773V12.2533ZM61.7567 9.77127C61.6093 9.77127 61.4507 9.73727 61.3147 9.6806C61.1787 9.62394 61.054 9.54461 60.952 9.43127C60.85 9.32927 60.7707 9.20461 60.7027 9.06861C60.646 8.93261 60.612 8.78527 60.612 8.61527C60.612 8.45661 60.646 8.29794 60.7027 8.16194C60.7593 8.02594 60.8387 7.90127 60.952 7.79927C61.054 7.69727 61.1787 7.60661 61.3147 7.54994C61.4507 7.49328 61.6093 7.45927 61.7567 7.45927C62.074 7.45927 62.346 7.57261 62.5727 7.78794C62.7993 8.01461 62.9127 8.27527 62.9127 8.59261C62.9127 8.90994 62.7993 9.18194 62.5727 9.39727C62.346 9.61261 62.074 9.77127 61.7567 9.77127ZM60.8727 17.3986V10.7346H62.652V17.3986H60.8727ZM66.7433 10.5193C67.2647 10.5193 67.7293 10.6099 68.16 10.7799C68.5907 10.9613 68.9647 11.1993 69.2707 11.5166C69.588 11.8339 69.826 12.2079 70.0073 12.6386C70.1887 13.0693 70.268 13.5453 70.268 14.0666C70.268 14.5879 70.1773 15.0639 70.0073 15.4946C69.826 15.9253 69.588 16.2993 69.2707 16.6166C68.9533 16.9339 68.5907 17.1719 68.16 17.3533C67.7293 17.5346 67.2533 17.6139 66.7433 17.6139C66.222 17.6139 65.7573 17.5233 65.3267 17.3533C64.896 17.1719 64.522 16.9339 64.216 16.6166C63.8987 16.2993 63.6607 15.9253 63.4793 15.4946C63.298 15.0639 63.2187 14.5879 63.2187 14.0666C63.2187 13.5453 63.3093 13.0693 63.4793 12.6386C63.6607 12.2079 63.8987 11.8339 64.216 11.5166C64.5333 11.1993 64.896 10.9613 65.3267 10.7799C65.7573 10.6099 66.2333 10.5193 66.7433 10.5193ZM66.7433 15.9706C66.97 15.9706 67.1853 15.9253 67.4007 15.8459C67.616 15.7553 67.8087 15.6306 67.9673 15.4719C68.126 15.3133 68.262 15.1093 68.3527 14.8713C68.4433 14.6333 68.5 14.3726 68.5 14.0666C68.5 13.7606 68.4547 13.4999 68.3527 13.2619C68.262 13.0239 68.126 12.8313 67.9673 12.6613C67.8087 12.5026 67.616 12.3779 67.4007 12.2873C67.1967 12.1966 66.97 12.1626 66.7433 12.1626C66.5053 12.1626 66.29 12.2079 66.0747 12.2873C65.8707 12.3779 65.678 12.5026 65.5193 12.6613C65.3607 12.8199 65.2247 13.0239 65.134 13.2619C65.0433 13.4999 64.9867 13.7606 64.9867 14.0666C64.9867 14.3726 65.032 14.6333 65.134 14.8713C65.2247 15.1093 65.3607 15.3019 65.5193 15.4719C65.678 15.6306 65.8707 15.7553 66.0747 15.8459C66.29 15.9253 66.5053 15.9706 66.7433 15.9706ZM72.3307 11.6073H72.444C72.648 11.2673 72.9313 11.0066 73.2827 10.8139C73.634 10.6213 74.042 10.5193 74.4953 10.5193C74.9147 10.5193 75.2773 10.5873 75.5947 10.7233C75.912 10.8593 76.1727 11.0519 76.3767 11.3013C76.5807 11.5506 76.7393 11.8453 76.8413 12.1966C76.9433 12.5479 77 12.9333 77 13.3639V17.3986H75.2207V13.5793C75.2207 13.1033 75.1187 12.7406 74.9033 12.5139C74.688 12.2873 74.382 12.1626 73.974 12.1626C73.7247 12.1626 73.5093 12.2193 73.328 12.3213C73.1467 12.4233 72.9767 12.5706 72.852 12.7406C72.716 12.9219 72.6253 13.1259 72.5573 13.3639C72.4893 13.6019 72.4553 13.8626 72.4553 14.1346V17.3986H70.676V10.7346H72.3533L72.3307 11.6073Z" fill="#1D1D1B"/>
</svg>
