<svg width="132" height="57" viewBox="0 0 132 57" fill="none" xmlns="http://www.w3.org/2000/svg">
<rect x="0.925781" y="0.452271" width="130.601" height="56.3958" rx="7" fill="white"/>
<rect x="1.25079" y="0.777278" width="129.951" height="55.7457" rx="6.67499" stroke="#BBBBBB" stroke-opacity="0.5" stroke-width="0.650015"/>
<path d="M29.1518 40.94C35.7246 40.94 41.0528 35.6118 41.0528 29.039C41.0528 22.4663 35.7246 17.1381 29.1518 17.1381C22.5791 17.1381 17.2509 22.4663 17.2509 29.039C17.2509 35.6118 22.5791 40.94 29.1518 40.94Z" fill="#FF7700"/>
<path d="M28.7767 24.3865C29.5929 24.3865 30.2622 25.0558 30.2622 25.872V34.0509C30.2622 34.8671 29.5929 35.5365 28.7767 35.5365C27.9604 35.5365 27.2911 34.8671 27.2911 34.0509V25.872C27.2911 25.0558 27.9604 24.3865 28.7767 24.3865ZM23.9444 27.178C24.7607 27.178 25.43 27.8474 25.43 28.6636V34.0509C25.43 34.8671 24.7607 35.5365 23.9444 35.5365C23.1282 35.5365 22.4589 34.8671 22.4589 34.0509V28.6636C22.4589 27.8474 23.1119 27.178 23.9444 27.178ZM33.6089 21.7908C34.4251 21.7908 35.0945 22.4601 35.0945 23.2764V34.0672C35.0945 34.8835 34.4251 35.5528 33.6089 35.5528C32.7926 35.5528 32.1233 34.8835 32.1233 34.0672V23.2764C32.1233 22.4601 32.7926 21.7908 33.6089 21.7908Z" fill="white"/>
<path d="M47.2887 24.0107C47.0765 24.0107 46.8479 23.9618 46.652 23.8801C46.4561 23.7985 46.2766 23.6842 46.1296 23.521C45.9827 23.3741 45.8684 23.1945 45.7705 22.9986C45.6889 22.8027 45.6399 22.5905 45.6399 22.3456C45.6399 22.117 45.6889 21.8885 45.7705 21.6926C45.8521 21.4967 45.9664 21.3171 46.1296 21.1702C46.2766 21.0232 46.4561 20.8926 46.652 20.811C46.8479 20.7294 47.0765 20.6804 47.2887 20.6804C47.7458 20.6804 48.1376 20.8437 48.4641 21.1539C48.7906 21.4804 48.9539 21.8558 48.9539 22.3129C48.9539 22.77 48.7906 23.1618 48.4641 23.472C48.1376 23.8475 47.7458 24.0107 47.2887 24.0107ZM46.0154 34.9975V25.3984H48.5784V34.9975H46.0154ZM56.9205 35.2097V33.8384C56.692 34.2466 56.3165 34.5894 55.8267 34.8832C55.337 35.1771 54.7166 35.3077 53.982 35.3077C53.3616 35.3077 52.7903 35.1771 52.2352 34.9322C51.6802 34.671 51.1904 34.3119 50.766 33.8711C50.3415 33.414 49.9987 32.8752 49.7538 32.2549C49.5089 31.6345 49.3783 30.9489 49.3783 30.1979C49.3783 29.447 49.5089 28.7613 49.7538 28.141C49.9987 27.5206 50.3415 26.9819 50.766 26.5248C51.1904 26.084 51.6802 25.7249 52.2352 25.4637C52.7903 25.2025 53.378 25.0719 53.982 25.0882C54.7166 25.0882 55.3207 25.2351 55.8267 25.5126C56.3165 25.8065 56.692 26.1493 56.9205 26.5574V25.3984H59.4835V39.2257H56.9205V35.2097ZM54.5044 32.9405C54.8472 32.9405 55.1737 32.8752 55.4676 32.761C55.7778 32.6304 56.0553 32.4508 56.2838 32.2222C56.5124 31.9937 56.7083 31.6998 56.8552 31.357C57.0021 31.0142 57.0674 30.6387 57.0674 30.1979C57.0674 29.7572 57.0021 29.3817 56.8552 29.0389C56.7083 28.696 56.5287 28.4185 56.2838 28.1736C56.0553 27.9451 55.7778 27.7655 55.4676 27.6349C55.1574 27.5043 54.8309 27.4553 54.5044 27.4553C54.1616 27.4553 53.8351 27.5206 53.5412 27.6512C53.231 27.7818 52.9535 27.9614 52.725 28.2063C52.4964 28.4348 52.3005 28.7287 52.1536 29.0715C52.0067 29.4143 51.9414 29.7898 51.9414 30.2143C51.9414 30.6387 52.0067 31.0142 52.1536 31.357C52.3005 31.6998 52.4801 31.9774 52.725 32.2222C52.9535 32.4508 53.231 32.6467 53.5412 32.7773C53.8514 32.8752 54.1779 32.9405 54.5044 32.9405ZM68.6419 25.0882C69.3929 25.0882 70.0622 25.2188 70.6825 25.4637C71.3029 25.7249 71.8416 26.0677 72.2824 26.5248C72.7395 26.9819 73.0823 27.5206 73.3435 28.141C73.6047 28.7613 73.719 29.447 73.719 30.1979C73.719 30.9489 73.5884 31.6345 73.3435 32.2549C73.0823 32.8752 72.7395 33.414 72.2824 33.8711C71.8253 34.3282 71.3029 34.671 70.6825 34.9322C70.0622 35.1934 69.3765 35.3077 68.6419 35.3077C67.891 35.3077 67.2216 35.1771 66.6013 34.9322C65.9809 34.671 65.4422 34.3282 65.0014 33.8711C64.5443 33.414 64.2015 32.8752 63.9403 32.2549C63.6791 31.6345 63.5648 30.9489 63.5648 30.1979C63.5648 29.447 63.6954 28.7613 63.9403 28.141C64.2015 27.5206 64.5443 26.9819 65.0014 26.5248C65.4585 26.0677 65.9809 25.7249 66.6013 25.4637C67.2216 25.2188 67.9073 25.0882 68.6419 25.0882ZM68.6419 32.9405C68.9684 32.9405 69.2786 32.8752 69.5888 32.761C69.8989 32.6304 70.1765 32.4508 70.405 32.2222C70.6336 31.9937 70.8295 31.6998 70.9601 31.357C71.0907 31.0142 71.1723 30.6387 71.1723 30.1979C71.1723 29.7572 71.107 29.3817 70.9601 29.0389C70.8295 28.696 70.6336 28.4185 70.405 28.1736C70.1765 27.9451 69.8989 27.7655 69.5888 27.6349C69.2949 27.5043 68.9684 27.4553 68.6419 27.4553C68.2991 27.4553 67.9889 27.5206 67.6787 27.6349C67.3849 27.7655 67.1073 27.9451 66.8788 28.1736C66.6502 28.4022 66.4543 28.696 66.3237 29.0389C66.1931 29.3817 66.1115 29.7572 66.1115 30.1979C66.1115 30.6387 66.1768 31.0142 66.3237 31.357C66.4543 31.6998 66.6502 31.9774 66.8788 32.2222C67.1073 32.4508 67.3849 32.6304 67.6787 32.761C67.9889 32.8752 68.3154 32.9405 68.6419 32.9405ZM74.3067 25.3984H76.8697V26.5574C77.0983 26.1493 77.4738 25.8065 77.9635 25.5126C78.4533 25.2188 79.0736 25.0882 79.8082 25.0882C80.4286 25.0882 81 25.2188 81.555 25.4637C82.1101 25.7249 82.5998 26.084 83.0243 26.5248C83.4487 26.9819 83.7916 27.5206 84.0364 28.141C84.2813 28.7613 84.4119 29.447 84.4119 30.1979C84.4119 30.9489 84.2813 31.6345 84.0364 32.2549C83.7916 32.8752 83.4487 33.414 83.0243 33.8711C82.5998 34.3119 82.1101 34.671 81.555 34.9322C81 35.1934 80.4123 35.324 79.8082 35.3077C79.0736 35.3077 78.4696 35.1608 77.9635 34.8832C77.4738 34.5894 77.0983 34.2466 76.8697 33.8384V39.2257H74.3067V25.3984ZM79.2858 32.9405C79.6287 32.9405 79.9552 32.8752 80.249 32.7446C80.5592 32.614 80.8367 32.4345 81.0653 32.1896C81.2938 31.961 81.4897 31.6672 81.6367 31.3244C81.7836 30.9815 81.8489 30.6061 81.8489 30.1816C81.8489 29.7572 81.7836 29.3817 81.6367 29.0389C81.4897 28.696 81.3102 28.4185 81.0653 28.1736C80.8367 27.9451 80.5592 27.7492 80.249 27.6186C79.9389 27.488 79.6124 27.4227 79.2858 27.4227C78.943 27.4227 78.6165 27.488 78.3227 27.6023C78.0125 27.7329 77.735 27.9124 77.5064 28.141C77.2779 28.3695 77.082 28.6634 76.935 29.0062C76.7881 29.349 76.7228 29.7245 76.7228 30.1653C76.7228 30.6061 76.7881 30.9815 76.935 31.3244C77.082 31.6672 77.2615 31.9447 77.5064 32.1896C77.735 32.4181 78.0125 32.5977 78.3227 32.7283C78.6165 32.8752 78.943 32.9405 79.2858 32.9405ZM85.8159 27.5859H84.1344V25.3984H85.8159V22.4599H88.3789V25.3984H90.7297V27.5859H88.3789V31.308C88.3789 31.5366 88.3952 31.7325 88.4442 31.9284C88.4932 32.1243 88.5748 32.2712 88.7054 32.4018C88.885 32.614 89.1462 32.712 89.489 32.712C89.7176 32.712 89.8808 32.6957 90.0114 32.6467C90.142 32.5977 90.2726 32.5324 90.3869 32.4671L91.1052 34.72C90.795 34.8669 90.4685 34.9812 90.142 35.0465C89.7992 35.1118 89.4074 35.1608 88.9993 35.1608C88.5095 35.1608 88.0851 35.0791 87.6933 34.9322C87.3015 34.7853 86.9913 34.5731 86.7301 34.3118C86.1097 33.7241 85.8159 32.8916 85.8159 31.7978V27.5859ZM93.2438 24.0107C93.0316 24.0107 92.803 23.9618 92.6071 23.8801C92.4112 23.7985 92.2316 23.6842 92.0847 23.521C91.9378 23.3741 91.8235 23.1945 91.7255 22.9986C91.6439 22.8027 91.5949 22.5905 91.5949 22.3456C91.5949 22.117 91.6439 21.8885 91.7255 21.6926C91.8072 21.4967 91.9214 21.3171 92.0847 21.1702C92.2316 21.0232 92.4112 20.8926 92.6071 20.811C92.803 20.7294 93.0316 20.6804 93.2438 20.6804C93.7009 20.6804 94.0927 20.8437 94.4192 21.1539C94.7457 21.4804 94.9089 21.8558 94.9089 22.3129C94.9089 22.77 94.7457 23.1618 94.4192 23.472C94.0927 23.7822 93.7009 24.0107 93.2438 24.0107ZM91.9704 34.9975V25.3984H94.5335V34.9975H91.9704ZM100.427 25.0882C101.178 25.0882 101.847 25.2188 102.467 25.4637C103.088 25.7249 103.627 26.0677 104.067 26.5248C104.524 26.9819 104.867 27.5206 105.128 28.141C105.39 28.7613 105.504 29.447 105.504 30.1979C105.504 30.9489 105.373 31.6345 105.128 32.2549C104.867 32.8752 104.524 33.414 104.067 33.8711C103.61 34.3282 103.088 34.671 102.467 34.9322C101.847 35.1934 101.161 35.3077 100.427 35.3077C99.6758 35.3077 99.0065 35.1771 98.3862 34.9322C97.7658 34.671 97.2271 34.3282 96.7863 33.8711C96.3292 33.414 95.9864 32.8752 95.7252 32.2549C95.464 31.6345 95.3497 30.9489 95.3497 30.1979C95.3497 29.447 95.4803 28.7613 95.7252 28.141C95.9864 27.5206 96.3292 26.9819 96.7863 26.5248C97.2434 26.0677 97.7658 25.7249 98.3862 25.4637C99.0065 25.2188 99.6922 25.0882 100.427 25.0882ZM100.427 32.9405C100.753 32.9405 101.063 32.8752 101.374 32.761C101.684 32.6304 101.961 32.4508 102.19 32.2222C102.418 31.9937 102.614 31.6998 102.745 31.357C102.876 31.0142 102.957 30.6387 102.957 30.1979C102.957 29.7572 102.892 29.3817 102.745 29.0389C102.614 28.696 102.418 28.4185 102.19 28.1736C101.961 27.9451 101.684 27.7655 101.374 27.6349C101.08 27.5043 100.753 27.4553 100.427 27.4553C100.084 27.4553 99.7738 27.5206 99.4636 27.6349C99.1698 27.7655 98.8922 27.9451 98.6637 28.1736C98.4351 28.4022 98.2392 28.696 98.1086 29.0389C97.978 29.3817 97.8964 29.7572 97.8964 30.1979C97.8964 30.6387 97.9617 31.0142 98.1086 31.357C98.2392 31.6998 98.4351 31.9774 98.6637 32.2222C98.8922 32.4508 99.1698 32.6304 99.4636 32.761C99.7738 32.8752 100.084 32.9405 100.427 32.9405ZM108.475 26.6554H108.638C108.932 26.1656 109.34 25.7902 109.846 25.5126C110.352 25.2351 110.94 25.0882 111.593 25.0882C112.197 25.0882 112.72 25.1861 113.177 25.382C113.634 25.5779 114.009 25.8555 114.303 26.2146C114.597 26.5738 114.826 26.9982 114.972 27.5043C115.119 28.0104 115.201 28.5654 115.201 29.1858V34.9975H112.638V29.496C112.638 28.8103 112.491 28.2879 112.181 27.9614C111.871 27.6349 111.43 27.4553 110.842 27.4553C110.483 27.4553 110.173 27.537 109.912 27.6839C109.65 27.8308 109.406 28.043 109.226 28.2879C109.03 28.5491 108.9 28.843 108.802 29.1858C108.704 29.5286 108.655 29.9041 108.655 30.2959V34.9975H106.092V25.3984H108.508L108.475 26.6554Z" fill="#1D1D1B"/>
</svg>
