<svg xmlns="http://www.w3.org/2000/svg" fill="none" viewBox="9.96 15.63 877.65 247.92">
<path d="M164.017 71.0528L199.588 68.9604L241.435 83.607L268.636 68.9604L300.021 43.852L339.776 66.8681L377.439 73.1452L404.639 94.0688L421.378 98.2535L440.21 100.346L465.318 94.0688L488.334 138.008L523.904 133.824L557.382 123.362L588.768 127.547L632.707 165.209L649.446 169.394H664.093L678.739 198.687L703.848 163.117L731.048 165.209L743.603 175.671L774.988 177.763L804.281 198.687L836.167 186.133L846.129 200.779L854.498 213.334H875.422L885.884 221.703V263.55H13.3669V18.7437L78.2303 58.4986L117.985 39.6673L164.017 71.0528Z" fill="url(#paint0_linear_307_3000)" fill-opacity="0.2"/>
<path d="M885.883 221.703L875.421 213.333L855.768 211.241L835.666 186.133L804.496 197.128L777.078 177.763L745.693 175.671L732.584 165.69L703.303 161.238L679.93 196.737L667.16 170.387L632.022 165.044L590.987 127.562L558.192 122.575L522.931 133.811L488.334 138.008L466.635 94.4193L440.622 99.8162L405.484 94.4734L377.644 72.666L338.992 66.7888L299.323 43.3347L268.293 66.7784L240.795 82.1241L198.619 67.9004L164.664 70.548L119.099 39.2111L79.1626 57.5472L11.6886 17.3614" stroke="#BF3D3D" stroke-width="3.45538"/>
<defs>
<linearGradient id="paint0_linear_307_3000" x1="439.709" y1="54.3139" x2="439.709" y2="263.55" gradientUnits="userSpaceOnUse">
<stop stop-color="#BF3D3D"/>
<stop offset="1" stop-color="#BF3D3D" stop-opacity="0.05"/>
</linearGradient>
</defs>
</svg>