<svg width="6" height="6" viewBox="0 0 6 6" fill="none" xmlns="http://www.w3.org/2000/svg">
<path d="M1.46491 1.46504C1.76247 1.16748 2.15159 1.01743 2.54325 1.01743V2.54339L3.6216 3.62173C3.02647 4.21685 2.06003 4.21685 1.46237 3.62173C0.867242 3.02661 0.867242 2.06017 1.46491 1.46504ZM2.54325 0.00012207C3.94713 0.00012207 5.08652 1.1395 5.08652 2.54339C5.08652 3.94727 3.94713 5.08665 2.54325 5.08665C1.13937 5.08665 -1.14441e-05 3.94727 -1.14441e-05 2.54339C-1.14441e-05 1.1395 1.13937 0.00012207 2.54325 0.00012207ZM2.54325 4.578C3.66738 4.578 4.57786 3.66751 4.57786 2.54339C4.57786 1.41926 3.66738 0.508775 2.54325 0.508775C1.41913 0.508775 0.508642 1.41926 0.508642 2.54339C0.508642 3.66751 1.41913 4.578 2.54325 4.578Z" fill="white"/>
</svg>
