<svg xmlns="http://www.w3.org/2000/svg" fill="none" viewBox="-0.73 1.64 877.92 248.36">
<path d="M0.923279 52.6924L41.3209 67.0341L75.7361 46.3183L101.917 52.1093L124.092 82.9692H154.027L172.613 39.9442L195.475 67.0341L213.011 74.9059L229.17 57.1752L265.528 20.822L308.306 39.9442H340.543L372.78 67.0341H402.715L414.999 26.7797L435.198 3.29333L456.828 31.9767H491.368L521.303 3.29333L558.411 31.9767L598.876 26.7797L627.225 20.822L651.403 52.6924L694.003 39.9442L726.24 52.6924L772.518 34.3783L810.288 52.6924L875.532 39.9442" stroke="url(#paint0_linear_307_2997)" stroke-width="3.31492"/>
<path d="M725.204 53.318L693.622 40.7638L651.513 53.318L626.247 21.9325L558.872 32.3944L520.974 5.1936L491.497 32.3944H457.81L434.65 5.1936L415.7 26.1173L403.068 67.9646H373.591L339.904 40.7638H310.427L266.212 21.9325L238.841 49.1333L213.576 76.334L194.626 67.9646L173.572 42.8562L152.517 82.6111H123.04L101.986 53.318L76.7202 47.0409L38.8218 67.9646L0.92334 53.318V250L874.692 245.816V40.7638L862.06 42.8562L809.423 53.318L771.524 34.4867L725.204 53.318Z" fill="url(#paint1_linear_307_2997)" fill-opacity="0.1"/>
<defs>
<linearGradient id="paint0_linear_307_2997" x1="876.794" y1="-8.65776" x2="2.34165" y2="112.111" gradientUnits="userSpaceOnUse">
<stop offset="0.9999" stop-color="#109CF1"/>
<stop offset="1" stop-color="#CF6BFF"/>
</linearGradient>
<linearGradient id="paint1_linear_307_2997" x1="451.493" y1="40.7638" x2="451.493" y2="250" gradientUnits="userSpaceOnUse">
<stop stop-color="#109CF1"/>
<stop offset="1" stop-color="#109CF1" stop-opacity="0.05"/>
</linearGradient>
</defs>
</svg>