<svg width="86" height="27" viewBox="0 0 86 27" fill="none" xmlns="http://www.w3.org/2000/svg">
<path d="M0.218993 2C0.218993 1.01638 1.01638 0.218993 2 0.218993H83.7855C84.7691 0.218993 85.5665 1.01638 85.5665 2V24.4104C85.5665 25.394 84.7691 26.1914 83.7855 26.1914H2C1.01638 26.1914 0.218993 25.394 0.218993 24.4104V2Z" fill="white" stroke="#BBBBBB" stroke-width="0.437986"/>
<path d="M9 13.3878C9 17.7644 15.5872 17.7644 15.5872 13.3878C15.5872 9 9 9 9 13.3878ZM10.6859 13.3878C10.6859 11.1213 13.9013 11.1213 13.9013 13.3878C13.8679 13.7897 13.6781 14.1581 13.3878 14.4261C13.0863 14.694 12.6956 14.8504 12.2936 14.8504C11.8917 14.8504 11.5009 14.7052 11.1995 14.4261C10.9092 14.147 10.7194 13.7785 10.6859 13.3878ZM18.7357 10.2058H17.0833V16.5474H21.0692V15.0737H18.7357V10.2058ZM24.173 12.3271H24.0948L22.9448 10.217H21.1808V10.4403L23.3244 13.879V16.5586H24.9322V13.879L27.1205 10.4403V10.217H25.3229L24.173 12.3271ZM31.3743 12.93L28.851 10.1723H28.237V16.5586H29.9228V13.7227L31.2961 15.1183H31.4859L32.8592 13.7227V16.5586H34.5451V10.217H33.9757L31.3743 12.93ZM39.2231 10.2058H36.3873V16.5474H38.0397V14.9285H39.2231C42.2823 14.9285 42.2823 10.2058 39.2231 10.2058ZM39.2231 13.4548H38.0397V11.6461H39.2231C40.1833 11.6795 40.1051 13.4548 39.2231 13.4548ZM45.1181 11.6461H46.6924V16.5586H48.3001V11.6461H49.8744V10.217H45.1293V11.6461H45.1181ZM53.9718 10.2058H51.136V16.5474H52.7772V14.694H53.6146L54.7199 16.5474H56.5621V16.3241L55.3004 14.2809C56.9528 13.2315 56.4951 10.2058 53.9718 10.2058ZM53.9718 13.2315H52.7884V11.6461H53.9718C54.8874 11.6795 54.8539 13.2315 53.9718 13.2315ZM60.1683 10.1388L57.2543 16.3353V16.5586H58.862L59.2416 15.7659H61.7649L62.1445 16.5586H63.7522V16.3353L60.9052 10.1388H60.1683ZM59.8334 14.3703L60.5591 12.7067L61.2848 14.3703H59.8334ZM67.3026 10.2058H64.891V16.5474H67.3026C71.4671 16.5586 71.4671 10.2058 67.3026 10.2058ZM67.3026 15.0848H66.5322V11.6795H67.3026C69.3234 11.6795 69.3234 15.0848 67.3026 15.0848ZM73.5437 15.1183V13.9795H75.732V12.5392H73.5437V11.6349H75.9218V10.2058H71.9025V16.5474H76V15.1071L73.5437 15.1183Z" fill="#1D1D1B"/>
<path d="M12.2155 13.9907L9.72577 17.0164H14.7053L12.2155 13.9907Z" fill="#2AA76D"/>
<path d="M28.9961 8.99998L31.296 11.2664L33.596 8.99998H28.9961Z" fill="#DF553A"/>
</svg>
