<svg width="131" height="57" viewBox="0 0 131 57" fill="none" xmlns="http://www.w3.org/2000/svg">
<rect width="130.601" height="56.3958" rx="7" fill="white"/>
<rect x="0.325008" y="0.325008" width="129.951" height="55.7457" rx="6.67499" stroke="#BBBBBB" stroke-opacity="0.5" stroke-width="0.650015"/>
<path d="M16.3247 28.7649C16.3247 35.1632 25.9549 35.1632 25.9549 28.7649C25.9549 22.3502 16.3247 22.3502 16.3247 28.7649ZM18.7894 28.7649C18.7894 25.4514 23.4902 25.4514 23.4902 28.7649C23.4413 29.3525 23.1638 29.8911 22.7394 30.2829C22.2987 30.6746 21.7274 30.9031 21.1398 30.9031C20.5522 30.9031 19.9809 30.6909 19.5402 30.2829C19.1158 29.8748 18.8384 29.3362 18.7894 28.7649ZM30.5578 24.113H28.1421V33.3841H33.9692V31.2296H30.5578V24.113ZM38.5068 27.2143H38.3925L36.7113 24.1293H34.1324V24.4558L37.2663 29.4831V33.4004H39.6167V29.4831L42.8159 24.4558V24.1293H40.188L38.5068 27.2143ZM49.0347 28.0957L45.3459 24.064H44.4481V33.4004H46.9128V29.2545L48.9205 31.2948H49.198L51.2056 29.2545V33.4004H53.6703V24.1293H52.8378L49.0347 28.0957ZM60.5094 24.113H56.3635V33.3841H58.7792V31.0174H60.5094C64.9817 31.0174 64.9817 24.113 60.5094 24.113ZM60.5094 28.8628H58.7792V26.2186H60.5094C61.9131 26.2676 61.7988 28.8628 60.5094 28.8628ZM69.1276 26.2186H71.429V33.4004H73.7794V26.2186H76.0809V24.1293H69.1439V26.2186H69.1276ZM82.0712 24.113H77.9253V33.3841H80.3247V30.6746H81.5489L83.1648 33.3841H85.858V33.0577L84.0136 30.0707C86.4293 28.5364 85.7601 24.113 82.0712 24.113ZM82.0712 28.5364H80.341V26.2186H82.0712C83.4096 26.2676 83.3607 28.5364 82.0712 28.5364ZM91.1301 24.0151L86.87 33.074V33.4004H89.2204L89.7754 32.2415H93.4642L94.0192 33.4004H96.3696V33.074L92.2074 24.0151H91.1301ZM90.6404 30.2012L91.7014 27.7692L92.7624 30.2012H90.6404ZM101.56 24.113H98.0345V33.3841H101.56C107.648 33.4004 107.648 24.113 101.56 24.113ZM101.56 31.2459H100.434V26.2675H101.56C104.514 26.2675 104.514 31.2459 101.56 31.2459ZM110.684 31.2948V29.63H113.883V27.5244H110.684V26.2023H114.161V24.113H108.285V33.3841H114.275V31.2785L110.684 31.2948Z" fill="#1D1D1B"/>
<path d="M21.0255 29.6464L17.3856 34.0697H24.6654L21.0255 29.6464Z" fill="#2AA76D"/>
<path d="M45.5581 22.3502L48.9205 25.6637L52.2829 22.3502H45.5581Z" fill="#DF553A"/>
</svg>
