<svg width="131" height="57" viewBox="0 0 131 57" fill="none" xmlns="http://www.w3.org/2000/svg">
<rect x="0.399292" y="0.453125" width="130.601" height="56.3958" rx="7" fill="white"/>
<rect x="0.7243" y="0.778133" width="129.951" height="55.7457" rx="6.67499" stroke="#BBBBBB" stroke-opacity="0.5" stroke-width="0.650015"/>
<path d="M27.8196 35.985C26.3643 36.5485 24.8629 36.8003 23.2974 36.7456C22.04 36.7016 20.7796 36.7532 19.5212 36.7271C19.1197 36.7188 18.8407 36.8425 18.574 37.1321C18.0167 37.7373 17.429 38.3146 16.7242 39.036C16.7242 38.6455 16.7242 38.452 16.7242 38.2586C16.7242 32.959 16.7239 27.6594 16.7244 22.3599C16.7245 21.4329 16.917 21.2457 17.8672 21.2455C19.9789 21.2449 22.0914 21.2793 24.202 21.2319C25.3696 21.2056 26.4003 21.5495 27.4412 22.1236C27.4857 22.1577 27.485 22.1944 27.4432 22.211C24.7182 23.6566 23.0625 26.9618 23.5476 29.954C23.981 32.6278 25.3303 34.6532 27.804 35.8992C27.8105 35.9276 27.8196 35.985 27.8196 35.985Z" fill="#194CDD"/>
<path d="M27.8321 36.0134C27.7892 35.9938 27.7801 35.9363 27.8048 35.8785C30.615 34.4755 31.8587 32.2289 31.8297 29.1665C31.799 25.924 30.2399 23.6904 27.4546 22.2032C27.4546 22.2032 27.4553 22.1665 27.4539 22.1482C28.3847 21.5522 29.3979 21.2689 30.496 21.2503C31.7419 21.2293 32.9492 21.2964 34.1216 21.8409C35.5955 22.5254 36.7829 23.4921 37.5954 24.8949C38.9823 27.2898 39.0961 29.8172 37.98 32.2902C36.9764 34.514 35.2085 35.9562 32.7534 36.5173C31.0513 36.9063 29.4519 36.6889 27.8321 36.0134Z" fill="#009AF9"/>
<path d="M27.4576 22.1348C30.2919 23.6272 31.8177 25.9188 31.8484 29.2092C31.8774 32.3168 30.6306 34.5966 27.8068 35.9916C25.3022 34.7859 23.9495 32.7306 23.5149 30.0172C23.0286 26.9808 24.7258 23.6018 27.4576 22.1348Z" fill="#002ED8"/>
<path d="M40.9097 33.2305V25.0968H44.1187C44.7356 25.0968 45.2612 25.2146 45.6954 25.4502C46.1296 25.6832 46.4606 26.0076 46.6883 26.4233C46.9186 26.8363 47.0338 27.3129 47.0338 27.853C47.0338 28.3931 46.9173 28.8697 46.6843 29.2828C46.4513 29.6958 46.1137 30.0175 45.6716 30.2478C45.232 30.4782 44.6999 30.5934 44.075 30.5934H42.0297V29.2153H43.797C44.128 29.2153 44.4007 29.1583 44.6151 29.0445C44.8322 28.928 44.9937 28.7678 45.0997 28.5639C45.2082 28.3574 45.2625 28.1204 45.2625 27.853C45.2625 27.583 45.2082 27.3473 45.0997 27.1461C44.9937 26.9422 44.8322 26.7847 44.6151 26.6735C44.398 26.5596 44.1227 26.5027 43.7891 26.5027H42.6294V33.2305H40.9097ZM50.777 33.3496C50.16 33.3496 49.6265 33.2186 49.1764 32.9564C48.729 32.6917 48.3835 32.3236 48.1399 31.8523C47.8963 31.3784 47.7745 30.829 47.7745 30.2042C47.7745 29.574 47.8963 29.0233 48.1399 28.552C48.3835 28.0781 48.729 27.71 49.1764 27.4479C49.6265 27.1832 50.16 27.0508 50.777 27.0508C51.3939 27.0508 51.9261 27.1832 52.3735 27.4479C52.8236 27.71 53.1705 28.0781 53.4141 28.552C53.6576 29.0233 53.7794 29.574 53.7794 30.2042C53.7794 30.829 53.6576 31.3784 53.4141 31.8523C53.1705 32.3236 52.8236 32.6917 52.3735 32.9564C51.9261 33.2186 51.3939 33.3496 50.777 33.3496ZM50.7849 32.039C51.0656 32.039 51.2999 31.9596 51.4879 31.8007C51.6758 31.6392 51.8175 31.4195 51.9128 31.1414C52.0108 30.8634 52.0598 30.547 52.0598 30.1922C52.0598 29.8375 52.0108 29.5211 51.9128 29.2431C51.8175 28.965 51.6758 28.7453 51.4879 28.5838C51.2999 28.4223 51.0656 28.3415 50.7849 28.3415C50.5016 28.3415 50.2633 28.4223 50.07 28.5838C49.8794 28.7453 49.7351 28.965 49.6371 29.2431C49.5418 29.5211 49.4942 29.8375 49.4942 30.1922C49.4942 30.547 49.5418 30.8634 49.6371 31.1414C49.7351 31.4195 49.8794 31.6392 50.07 31.8007C50.2633 31.9596 50.5016 32.039 50.7849 32.039ZM57.6358 33.3496C57.0109 33.3496 56.4735 33.2172 56.0234 32.9525C55.5759 32.685 55.2317 32.3144 54.9908 31.8404C54.7525 31.3665 54.6333 30.8211 54.6333 30.2042C54.6333 29.5793 54.7538 29.0312 54.9947 28.5599C55.2383 28.086 55.5838 27.7167 56.0313 27.4519C56.4788 27.1845 57.0109 27.0508 57.6279 27.0508C58.16 27.0508 58.626 27.1474 59.0258 27.3407C59.4256 27.534 59.742 27.8054 59.975 28.1549C60.208 28.5043 60.3364 28.9147 60.3603 29.386H58.7637C58.7187 29.0815 58.5996 28.8366 58.4063 28.6513C58.2156 28.4633 57.9654 28.3693 57.6557 28.3693C57.3935 28.3693 57.1645 28.4408 56.9686 28.5838C56.7753 28.7241 56.6244 28.9293 56.5158 29.1994C56.4073 29.4694 56.353 29.7964 56.353 30.1803C56.353 30.5695 56.4059 30.9005 56.5119 31.1732C56.6204 31.4459 56.7726 31.6538 56.9686 31.7967C57.1645 31.9397 57.3935 32.0112 57.6557 32.0112C57.8489 32.0112 58.0224 31.9715 58.1759 31.8921C58.3321 31.8126 58.4605 31.6975 58.5612 31.5465C58.6644 31.393 58.7319 31.209 58.7637 30.9945H60.3603C60.3338 31.4605 60.2067 31.8709 59.979 32.2257C59.7539 32.5778 59.4428 32.8532 59.0457 33.0517C58.6485 33.2503 58.1786 33.3496 57.6358 33.3496ZM62.9765 31.4751L62.9805 29.4456H63.2267L65.1807 27.1302H67.1228L64.4976 30.1962H64.0965L62.9765 31.4751ZM61.4435 33.2305V25.0968H63.1354V33.2305H61.4435ZM65.2562 33.2305L63.461 30.5735L64.589 29.3781L67.238 33.2305H65.2562ZM70.4817 33.3496C69.8542 33.3496 69.3141 33.2225 68.8613 32.9683C68.4112 32.7115 68.0644 32.3488 67.8208 31.8801C67.5772 31.4089 67.4554 30.8515 67.4554 30.2081C67.4554 29.5806 67.5772 29.0299 67.8208 28.556C68.0644 28.082 68.4072 27.7127 68.8494 27.4479C69.2942 27.1832 69.8158 27.0508 70.4142 27.0508C70.8166 27.0508 71.1913 27.1156 71.5381 27.2454C71.8876 27.3725 72.1921 27.5644 72.4516 27.8212C72.7137 28.0781 72.9176 28.4011 73.0632 28.7903C73.2088 29.1769 73.2816 29.6296 73.2816 30.1486V30.6132H68.1306V29.5647H71.6891C71.6891 29.3212 71.6361 29.1054 71.5302 28.9174C71.4243 28.7294 71.2773 28.5825 71.0894 28.4765C70.904 28.368 70.6882 28.3137 70.442 28.3137C70.1852 28.3137 69.9575 28.3733 69.7589 28.4924C69.563 28.6089 69.4094 28.7665 69.2982 28.965C69.187 29.161 69.1301 29.3794 69.1274 29.6203V30.6172C69.1274 30.919 69.183 31.1798 69.2942 31.3996C69.4081 31.6194 69.5683 31.7888 69.7748 31.9079C69.9813 32.0271 70.2262 32.0867 70.5095 32.0867C70.6975 32.0867 70.8696 32.0602 71.0258 32.0072C71.182 31.9543 71.3157 31.8749 71.4269 31.7689C71.5381 31.663 71.6229 31.5333 71.6811 31.3797L73.2459 31.483C73.1665 31.859 73.0036 32.1873 72.7574 32.4679C72.5138 32.7459 72.1987 32.9631 71.8122 33.1193C71.4283 33.2728 70.9848 33.3496 70.4817 33.3496ZM77.6305 27.1302V28.4011H73.9568V27.1302H77.6305ZM74.7908 25.6687H76.4827V31.3559C76.4827 31.5121 76.5065 31.6339 76.5542 31.7213C76.6018 31.806 76.668 31.8656 76.7528 31.9C76.8401 31.9344 76.9407 31.9516 77.0546 31.9516C77.134 31.9516 77.2135 31.945 77.2929 31.9318C77.3723 31.9159 77.4332 31.904 77.4756 31.896L77.7417 33.155C77.6569 33.1815 77.5378 33.2119 77.3842 33.2464C77.2307 33.2834 77.044 33.3059 76.8242 33.3139C76.4165 33.3298 76.0591 33.2755 75.7519 33.151C75.4474 33.0266 75.2105 32.8333 75.041 32.5712C74.8716 32.3091 74.7882 31.9781 74.7908 31.5783V25.6687ZM82.4638 33.3088C81.7406 33.3088 81.0845 33.141 80.4955 32.8055C79.9065 32.4625 79.4405 31.9891 79.0975 31.3851C78.762 30.7738 78.5942 30.0841 78.5942 29.3161C78.5942 28.5482 78.762 27.8622 79.0975 27.2583C79.4405 26.6469 79.9065 26.1735 80.4955 25.838C81.0845 25.495 81.7406 25.3235 82.4638 25.3235C83.1945 25.3235 83.8544 25.495 84.4434 25.838C85.0324 26.1735 85.4947 26.6469 85.8302 27.2583C86.1657 27.8622 86.3334 28.5482 86.3334 29.3161C86.3334 30.0841 86.1657 30.7738 85.8302 31.3851C85.4947 31.9891 85.0324 32.4625 84.4434 32.8055C83.8544 33.141 83.1945 33.3088 82.4638 33.3088ZM82.4638 32.6265C83.0454 32.6265 83.5673 32.4923 84.0296 32.2239C84.4918 31.9555 84.8572 31.5715 85.1256 31.072C85.394 30.565 85.5282 29.9797 85.5282 29.3161C85.5282 28.6526 85.394 28.071 85.1256 27.5714C84.8572 27.0719 84.4918 26.6879 84.0296 26.4195C83.5673 26.1511 83.0454 26.0169 82.4638 26.0169C81.8823 26.0169 81.3604 26.1511 80.8981 26.4195C80.4358 26.6879 80.0705 27.0719 79.8021 27.5714C79.5337 28.071 79.3995 28.6526 79.3995 29.3161C79.3995 29.9797 79.5337 30.565 79.8021 31.072C80.0705 31.5715 80.4358 31.9555 80.8981 32.2239C81.3604 32.4923 81.8823 32.6265 82.4638 32.6265ZM88.5376 28.4662C88.7315 28.0561 89.0372 27.7168 89.4547 27.4484C89.8797 27.1726 90.383 27.0346 90.9645 27.0346C91.5162 27.0346 92.0121 27.1651 92.452 27.4261C92.8993 27.6796 93.246 28.0449 93.4921 28.5221C93.7456 28.9918 93.8723 29.5398 93.8723 30.1661C93.8723 30.7924 93.7456 31.3441 93.4921 31.8213C93.246 32.2985 92.8993 32.6675 92.452 32.9285C92.0121 33.1895 91.5162 33.3199 90.9645 33.3199C90.3904 33.3199 89.8909 33.1857 89.4659 32.9173C89.0409 32.6415 88.7315 32.2985 88.5376 31.8884V36.1159H87.7659V27.1241H88.5376V28.4662ZM93.0783 30.1661C93.0783 29.6591 92.9776 29.2229 92.7763 28.8576C92.5824 28.4848 92.314 28.2015 91.9711 28.0076C91.6281 27.8138 91.2404 27.7168 90.8079 27.7168C90.3904 27.7168 90.0064 27.8175 89.656 28.0188C89.313 28.2201 89.0409 28.5072 88.8396 28.88C88.6383 29.2528 88.5376 29.6852 88.5376 30.1773C88.5376 30.6694 88.6383 31.1018 88.8396 31.4746C89.0409 31.8474 89.313 32.1345 89.656 32.3358C90.0064 32.5371 90.3904 32.6377 90.8079 32.6377C91.2404 32.6377 91.6281 32.5408 91.9711 32.3469C92.314 32.1456 92.5824 31.8586 92.7763 31.4858C92.9776 31.1055 93.0783 30.6656 93.0783 30.1661ZM96.3306 27.7839V31.5753C96.3306 31.9481 96.4014 32.2053 96.5431 32.3469C96.6847 32.4886 96.9345 32.5594 97.2924 32.5594H98.0081V33.2305H97.1694C96.6176 33.2305 96.2075 33.1037 95.9391 32.8502C95.6707 32.5893 95.5365 32.1643 95.5365 31.5753V27.7839H94.6865V27.1241H95.5365V25.5919H96.3306V27.1241H98.0081V27.7839H96.3306ZM99.6907 25.9722C99.5341 25.9722 99.3999 25.9162 99.2881 25.8044C99.1762 25.6926 99.1203 25.5546 99.1203 25.3906C99.1203 25.2266 99.1762 25.0924 99.2881 24.988C99.3999 24.8761 99.5341 24.8202 99.6907 24.8202C99.8473 24.8202 99.9815 24.8761 100.093 24.988C100.205 25.0924 100.261 25.2266 100.261 25.3906C100.261 25.5546 100.205 25.6926 100.093 25.8044C99.9815 25.9162 99.8473 25.9722 99.6907 25.9722ZM100.082 27.1241V33.2305H99.2993V27.1241H100.082ZM104.528 33.3199C103.954 33.3199 103.436 33.1932 102.973 32.9397C102.519 32.6787 102.157 32.3134 101.888 31.8437C101.628 31.3665 101.497 30.811 101.497 30.1773C101.497 29.5435 101.631 28.9918 101.9 28.5221C102.168 28.0449 102.533 27.6796 102.996 27.4261C103.458 27.1651 103.976 27.0346 104.55 27.0346C105.124 27.0346 105.643 27.1651 106.105 27.4261C106.575 27.6796 106.94 28.0449 107.201 28.5221C107.469 28.9918 107.603 29.5435 107.603 30.1773C107.603 30.8036 107.469 31.3553 107.201 31.8325C106.932 32.3097 106.563 32.6787 106.094 32.9397C105.624 33.1932 105.102 33.3199 104.528 33.3199ZM104.528 32.6377C104.93 32.6377 105.303 32.5483 105.646 32.3693C105.989 32.1829 106.265 31.907 106.474 31.5417C106.69 31.1689 106.798 30.7141 106.798 30.1773C106.798 29.6405 106.694 29.1894 106.485 28.824C106.276 28.4512 106 28.1754 105.657 27.9964C105.314 27.81 104.942 27.7168 104.539 27.7168C104.136 27.7168 103.764 27.81 103.421 27.9964C103.078 28.1754 102.802 28.4512 102.593 28.824C102.392 29.1894 102.291 29.6405 102.291 30.1773C102.291 30.7141 102.392 31.1689 102.593 31.5417C102.802 31.907 103.074 32.1829 103.409 32.3693C103.752 32.5483 104.125 32.6377 104.528 32.6377ZM111.894 27.0123C112.624 27.0123 113.221 27.2397 113.683 27.6945C114.145 28.1418 114.376 28.7942 114.376 29.6516V33.2305H113.605V29.7411C113.605 29.0775 113.437 28.5705 113.101 28.2201C112.773 27.8697 112.322 27.6945 111.748 27.6945C111.159 27.6945 110.689 27.8809 110.339 28.2537C109.989 28.6265 109.813 29.1745 109.813 29.8977V33.2305H109.031V27.1241H109.813V28.1642C110.007 27.7914 110.287 27.5081 110.652 27.3142C111.017 27.1129 111.431 27.0123 111.894 27.0123Z" fill="#1D1D1B"/>
</svg>
