<svg width="131" height="57" viewBox="0 0 131 57" fill="none" xmlns="http://www.w3.org/2000/svg">
<rect x="0.399292" y="0.452271" width="130.601" height="56.3958" rx="7" fill="white"/>
<rect x="0.7243" y="0.777278" width="129.951" height="55.7457" rx="6.67499" stroke="#BBBBBB" stroke-opacity="0.5" stroke-width="0.650015"/>
<path d="M27.8196 35.9842C26.3643 36.5476 24.8629 36.7995 23.2974 36.7447C22.04 36.7008 20.7796 36.7524 19.5212 36.7262C19.1197 36.7179 18.8407 36.8417 18.574 37.1312C18.0167 37.7364 17.429 38.3137 16.7242 39.0351C16.7242 38.6447 16.7242 38.4512 16.7242 38.2577C16.7242 32.9581 16.7239 27.6586 16.7244 22.359C16.7245 21.432 16.917 21.2449 17.8672 21.2446C19.9789 21.2441 22.0914 21.2785 24.202 21.231C25.3696 21.2048 26.4003 21.5486 27.4412 22.1227C27.4857 22.1569 27.485 22.1936 27.4432 22.2101C24.7182 23.6558 23.0625 26.961 23.5476 29.9531C23.981 32.6269 25.3303 34.6523 27.804 35.8983C27.8105 35.9267 27.8196 35.9842 27.8196 35.9842Z" fill="#194CDD"/>
<path d="M27.8321 36.0125C27.7892 35.9928 27.7801 35.9354 27.8048 35.8775C30.615 34.4745 31.8587 32.2279 31.8297 29.1655C31.799 25.9231 30.2399 23.6894 27.4546 22.2022C27.4546 22.2022 27.4553 22.1655 27.4539 22.1472C28.3847 21.5512 29.3979 21.2679 30.496 21.2494C31.7419 21.2284 32.9492 21.2954 34.1216 21.8399C35.5955 22.5244 36.7829 23.4911 37.5954 24.8939C38.9823 27.2888 39.0961 29.8163 37.98 32.2892C36.9764 34.5131 35.2085 35.9553 32.7534 36.5163C31.0513 36.9053 29.4519 36.6879 27.8321 36.0125Z" fill="#009AF9"/>
<path d="M27.4576 22.1338C30.2919 23.6262 31.8177 25.9178 31.8484 29.2082C31.8774 32.3159 30.6306 34.5957 27.8068 35.9906C25.3022 34.7849 23.9495 32.7296 23.5149 30.0162C23.0286 26.9798 24.7258 23.6008 27.4576 22.1338Z" fill="#002ED8"/>
<path d="M40.9097 33.2297V25.096H44.1187C44.7356 25.096 45.2612 25.2139 45.6954 25.4495C46.1296 25.6825 46.4606 26.0068 46.6883 26.4225C46.9186 26.8356 47.0338 27.3122 47.0338 27.8523C47.0338 28.3924 46.9173 28.869 46.6843 29.282C46.4513 29.6951 46.1137 30.0168 45.6716 30.2471C45.232 30.4775 44.6999 30.5926 44.075 30.5926H42.0297V29.2145H43.797C44.128 29.2145 44.4007 29.1576 44.6151 29.0437C44.8322 28.9272 44.9937 28.7671 45.0997 28.5632C45.2082 28.3567 45.2625 28.1197 45.2625 27.8523C45.2625 27.5822 45.2082 27.3466 45.0997 27.1454C44.9937 26.9415 44.8322 26.7839 44.6151 26.6727C44.398 26.5589 44.1227 26.502 43.7891 26.502H42.6294V33.2297H40.9097ZM50.777 33.3489C50.16 33.3489 49.6265 33.2178 49.1764 32.9557C48.729 32.6909 48.3835 32.3229 48.1399 31.8516C47.8963 31.3777 47.7745 30.8283 47.7745 30.2034C47.7745 29.5733 47.8963 29.0226 48.1399 28.5513C48.3835 28.0773 48.729 27.7093 49.1764 27.4472C49.6265 27.1824 50.16 27.05 50.777 27.05C51.3939 27.05 51.9261 27.1824 52.3735 27.4472C52.8236 27.7093 53.1705 28.0773 53.4141 28.5513C53.6576 29.0226 53.7794 29.5733 53.7794 30.2034C53.7794 30.8283 53.6576 31.3777 53.4141 31.8516C53.1705 32.3229 52.8236 32.6909 52.3735 32.9557C51.9261 33.2178 51.3939 33.3489 50.777 33.3489ZM50.7849 32.0383C51.0656 32.0383 51.2999 31.9588 51.4879 31.8C51.6758 31.6385 51.8175 31.4187 51.9128 31.1407C52.0108 30.8627 52.0598 30.5463 52.0598 30.1915C52.0598 29.8367 52.0108 29.5203 51.9128 29.2423C51.8175 28.9643 51.6758 28.7446 51.4879 28.583C51.2999 28.4215 51.0656 28.3408 50.7849 28.3408C50.5016 28.3408 50.2633 28.4215 50.07 28.583C49.8794 28.7446 49.7351 28.9643 49.6371 29.2423C49.5418 29.5203 49.4942 29.8367 49.4942 30.1915C49.4942 30.5463 49.5418 30.8627 49.6371 31.1407C49.7351 31.4187 49.8794 31.6385 50.07 31.8C50.2633 31.9588 50.5016 32.0383 50.7849 32.0383ZM57.6358 33.3489C57.0109 33.3489 56.4735 33.2165 56.0234 32.9517C55.5759 32.6843 55.2317 32.3136 54.9908 31.8397C54.7525 31.3658 54.6333 30.8203 54.6333 30.2034C54.6333 29.5786 54.7538 29.0305 54.9947 28.5592C55.2383 28.0853 55.5838 27.7159 56.0313 27.4512C56.4788 27.1837 57.0109 27.05 57.6279 27.05C58.16 27.05 58.626 27.1467 59.0258 27.34C59.4256 27.5332 59.742 27.8046 59.975 28.1541C60.208 28.5036 60.3364 28.914 60.3603 29.3853H58.7637C58.7187 29.0808 58.5996 28.8359 58.4063 28.6506C58.2156 28.4626 57.9654 28.3686 57.6557 28.3686C57.3935 28.3686 57.1645 28.4401 56.9686 28.583C56.7753 28.7234 56.6244 28.9286 56.5158 29.1986C56.4073 29.4687 56.353 29.7957 56.353 30.1796C56.353 30.5688 56.4059 30.8998 56.5119 31.1725C56.6204 31.4452 56.7726 31.653 56.9686 31.796C57.1645 31.939 57.3935 32.0105 57.6557 32.0105C57.8489 32.0105 58.0224 31.9708 58.1759 31.8913C58.3321 31.8119 58.4605 31.6967 58.5612 31.5458C58.6644 31.3922 58.7319 31.2082 58.7637 30.9938H60.3603C60.3338 31.4598 60.2067 31.8701 59.979 32.2249C59.7539 32.5771 59.4428 32.8524 59.0457 33.051C58.6485 33.2496 58.1786 33.3489 57.6358 33.3489ZM62.9765 31.4743L62.9805 29.4449H63.2267L65.1807 27.1295H67.1228L64.4976 30.1955H64.0965L62.9765 31.4743ZM61.4435 33.2297V25.096H63.1354V33.2297H61.4435ZM65.2562 33.2297L63.461 30.5728L64.589 29.3774L67.238 33.2297H65.2562ZM70.4817 33.3489C69.8542 33.3489 69.3141 33.2218 68.8613 32.9676C68.4112 32.7108 68.0644 32.3481 67.8208 31.8794C67.5772 31.4081 67.4554 30.8508 67.4554 30.2074C67.4554 29.5799 67.5772 29.0292 67.8208 28.5552C68.0644 28.0813 68.4072 27.712 68.8494 27.4472C69.2942 27.1824 69.8158 27.05 70.4142 27.05C70.8166 27.05 71.1913 27.1149 71.5381 27.2446C71.8876 27.3717 72.1921 27.5637 72.4516 27.8205C72.7137 28.0773 72.9176 28.4004 73.0632 28.7896C73.2088 29.1761 73.2816 29.6289 73.2816 30.1478V30.6125H68.1306V29.564H71.6891C71.6891 29.3204 71.6361 29.1046 71.5302 28.9167C71.4243 28.7287 71.2773 28.5817 71.0894 28.4758C70.904 28.3673 70.6882 28.313 70.442 28.313C70.1852 28.313 69.9575 28.3726 69.7589 28.4917C69.563 28.6082 69.4094 28.7657 69.2982 28.9643C69.187 29.1602 69.1301 29.3787 69.1274 29.6196V30.6165C69.1274 30.9183 69.183 31.1791 69.2942 31.3989C69.4081 31.6186 69.5683 31.7881 69.7748 31.9072C69.9813 32.0264 70.2262 32.0859 70.5095 32.0859C70.6975 32.0859 70.8696 32.0595 71.0258 32.0065C71.182 31.9536 71.3157 31.8741 71.4269 31.7682C71.5381 31.6623 71.6229 31.5326 71.6811 31.379L73.2459 31.4823C73.1665 31.8582 73.0036 32.1865 72.7574 32.4672C72.5138 32.7452 72.1987 32.9623 71.8122 33.1185C71.4283 33.2721 70.9848 33.3489 70.4817 33.3489ZM77.6305 27.1295V28.4004H73.9568V27.1295H77.6305ZM74.7908 25.6679H76.4827V31.3552C76.4827 31.5114 76.5065 31.6332 76.5542 31.7206C76.6018 31.8053 76.668 31.8649 76.7528 31.8993C76.8401 31.9337 76.9407 31.9509 77.0546 31.9509C77.134 31.9509 77.2135 31.9443 77.2929 31.931C77.3723 31.9152 77.4332 31.9032 77.4756 31.8953L77.7417 33.1543C77.6569 33.1808 77.5378 33.2112 77.3842 33.2456C77.2307 33.2827 77.044 33.3052 76.8242 33.3131C76.4165 33.329 76.0591 33.2747 75.7519 33.1503C75.4474 33.0259 75.2105 32.8326 75.041 32.5705C74.8716 32.3083 74.7882 31.9774 74.7908 31.5776V25.6679ZM82.4638 33.308C81.7406 33.308 81.0845 33.1403 80.4955 32.8048C79.9065 32.4618 79.4405 31.9883 79.0975 31.3844C78.762 30.773 78.5942 30.0834 78.5942 29.3154C78.5942 28.5474 78.762 27.8615 79.0975 27.2576C79.4405 26.6462 79.9065 26.1727 80.4955 25.8372C81.0845 25.4943 81.7406 25.3228 82.4638 25.3228C83.1945 25.3228 83.8544 25.4943 84.4434 25.8372C85.0324 26.1727 85.4947 26.6462 85.8302 27.2576C86.1657 27.8615 86.3334 28.5474 86.3334 29.3154C86.3334 30.0834 86.1657 30.773 85.8302 31.3844C85.4947 31.9883 85.0324 32.4618 84.4434 32.8048C83.8544 33.1403 83.1945 33.308 82.4638 33.308ZM82.4638 32.6258C83.0454 32.6258 83.5673 32.4916 84.0296 32.2232C84.4918 31.9548 84.8572 31.5708 85.1256 31.0713C85.394 30.5643 85.5282 29.979 85.5282 29.3154C85.5282 28.6518 85.394 28.0703 85.1256 27.5707C84.8572 27.0712 84.4918 26.6872 84.0296 26.4188C83.5673 26.1504 83.0454 26.0162 82.4638 26.0162C81.8823 26.0162 81.3604 26.1504 80.8981 26.4188C80.4358 26.6872 80.0705 27.0712 79.8021 27.5707C79.5337 28.0703 79.3995 28.6518 79.3995 29.3154C79.3995 29.979 79.5337 30.5643 79.8021 31.0713C80.0705 31.5708 80.4358 31.9548 80.8981 32.2232C81.3604 32.4916 81.8823 32.6258 82.4638 32.6258ZM88.5376 28.4654C88.7315 28.0554 89.0372 27.7161 89.4547 27.4477C89.8797 27.1718 90.383 27.0339 90.9645 27.0339C91.5162 27.0339 92.0121 27.1644 92.452 27.4253C92.8993 27.6788 93.246 28.0442 93.4921 28.5213C93.7456 28.9911 93.8723 29.5391 93.8723 30.1654C93.8723 30.7917 93.7456 31.3434 93.4921 31.8206C93.246 32.2978 92.8993 32.6668 92.452 32.9278C92.0121 33.1887 91.5162 33.3192 90.9645 33.3192C90.3904 33.3192 89.8909 33.185 89.4659 32.9166C89.0409 32.6407 88.7315 32.2978 88.5376 31.8877V36.1152H87.7659V27.1234H88.5376V28.4654ZM93.0783 30.1654C93.0783 29.6584 92.9776 29.2222 92.7763 28.8569C92.5824 28.4841 92.314 28.2007 91.9711 28.0069C91.6281 27.813 91.2404 27.7161 90.8079 27.7161C90.3904 27.7161 90.0064 27.8168 89.656 28.0181C89.313 28.2194 89.0409 28.5064 88.8396 28.8792C88.6383 29.252 88.5376 29.6845 88.5376 30.1766C88.5376 30.6686 88.6383 31.1011 88.8396 31.4739C89.0409 31.8467 89.313 32.1337 89.656 32.335C90.0064 32.5363 90.3904 32.637 90.8079 32.637C91.2404 32.637 91.6281 32.5401 91.9711 32.3462C92.314 32.1449 92.5824 31.8579 92.7763 31.4851C92.9776 31.1048 93.0783 30.6649 93.0783 30.1654ZM96.3306 27.7832V31.5745C96.3306 31.9473 96.4014 32.2046 96.5431 32.3462C96.6847 32.4879 96.9345 32.5587 97.2924 32.5587H98.0081V33.2297H97.1694C96.6176 33.2297 96.2075 33.103 95.9391 32.8495C95.6707 32.5885 95.5365 32.1635 95.5365 31.5745V27.7832H94.6865V27.1234H95.5365V25.5912H96.3306V27.1234H98.0081V27.7832H96.3306ZM99.6907 25.9714C99.5341 25.9714 99.3999 25.9155 99.2881 25.8037C99.1762 25.6918 99.1203 25.5539 99.1203 25.3899C99.1203 25.2258 99.1762 25.0916 99.2881 24.9873C99.3999 24.8754 99.5341 24.8195 99.6907 24.8195C99.8473 24.8195 99.9815 24.8754 100.093 24.9873C100.205 25.0916 100.261 25.2258 100.261 25.3899C100.261 25.5539 100.205 25.6918 100.093 25.8037C99.9815 25.9155 99.8473 25.9714 99.6907 25.9714ZM100.082 27.1234V33.2297H99.2993V27.1234H100.082ZM104.528 33.3192C103.954 33.3192 103.436 33.1925 102.973 32.939C102.519 32.678 102.157 32.3127 101.888 31.8429C101.628 31.3658 101.497 30.8103 101.497 30.1766C101.497 29.5428 101.631 28.9911 101.9 28.5213C102.168 28.0442 102.533 27.6788 102.996 27.4253C103.458 27.1644 103.976 27.0339 104.55 27.0339C105.124 27.0339 105.643 27.1644 106.105 27.4253C106.575 27.6788 106.94 28.0442 107.201 28.5213C107.469 28.9911 107.603 29.5428 107.603 30.1766C107.603 30.8028 107.469 31.3546 107.201 31.8318C106.932 32.3089 106.563 32.678 106.094 32.939C105.624 33.1925 105.102 33.3192 104.528 33.3192ZM104.528 32.637C104.93 32.637 105.303 32.5475 105.646 32.3686C105.989 32.1822 106.265 31.9063 106.474 31.541C106.69 31.1682 106.798 30.7134 106.798 30.1766C106.798 29.6397 106.694 29.1886 106.485 28.8233C106.276 28.4505 106 28.1746 105.657 27.9957C105.314 27.8093 104.942 27.7161 104.539 27.7161C104.136 27.7161 103.764 27.8093 103.421 27.9957C103.078 28.1746 102.802 28.4505 102.593 28.8233C102.392 29.1886 102.291 29.6397 102.291 30.1766C102.291 30.7134 102.392 31.1682 102.593 31.541C102.802 31.9063 103.074 32.1822 103.409 32.3686C103.752 32.5475 104.125 32.637 104.528 32.637ZM111.894 27.0115C112.624 27.0115 113.221 27.2389 113.683 27.6937C114.145 28.1411 114.376 28.7935 114.376 29.6509V33.2297H113.605V29.7404C113.605 29.0768 113.437 28.5698 113.101 28.2194C112.773 27.869 112.322 27.6937 111.748 27.6937C111.159 27.6937 110.689 27.8801 110.339 28.2529C109.989 28.6257 109.813 29.1737 109.813 29.897V33.2297H109.031V27.1234H109.813V28.1635C110.007 27.7907 110.287 27.5073 110.652 27.3135C111.017 27.1122 111.431 27.0115 111.894 27.0115Z" fill="#1D1D1B"/>
</svg>
