<svg width="86" height="27" viewBox="0 0 86 27" fill="none" xmlns="http://www.w3.org/2000/svg">
<path d="M0.218993 2C0.218993 1.01638 1.01638 0.218993 2 0.218993H83.7855C84.7691 0.218993 85.5665 1.01638 85.5665 2V24.4104C85.5665 25.394 84.7691 26.1914 83.7855 26.1914H2C1.01638 26.1914 0.218993 25.394 0.218993 24.4104V2Z" fill="white" stroke="#BBBBBB" stroke-width="0.437986"/>
<path d="M17.5612 18.0547C16.5694 18.4387 15.5463 18.6103 14.4794 18.573C13.6226 18.543 12.7636 18.5782 11.9061 18.5604C11.6325 18.5547 11.4423 18.6391 11.2606 18.8364C10.8808 19.2488 10.4804 19.6422 10 20.1338C10 19.8678 10 19.7359 10 19.604C10 15.9926 9.99987 12.3811 10.0002 8.76967C10.0003 8.13793 10.1315 8.0104 10.779 8.01023C12.218 8.00986 13.6576 8.0333 15.0959 8.00096C15.8916 7.98307 16.594 8.21741 17.3033 8.60863C17.3336 8.63189 17.3332 8.65689 17.3047 8.66817C15.4477 9.65334 14.3194 11.9057 14.6499 13.9448C14.9453 15.7669 15.8648 17.1471 17.5506 17.9962C17.555 18.0155 17.5612 18.0547 17.5612 18.0547Z" fill="#194CDD"/>
<path d="M17.5698 18.0739C17.5406 18.0605 17.5344 18.0213 17.5511 17.9819C19.4662 17.0258 20.3137 15.4948 20.294 13.4079C20.2731 11.1983 19.2106 9.67616 17.3125 8.66267C17.3125 8.66267 17.313 8.63767 17.312 8.62521C17.9463 8.21902 18.6368 8.02596 19.3851 8.01334C20.2342 7.99902 21.0569 8.0447 21.8558 8.41576C22.8602 8.88223 23.6694 9.541 24.2231 10.497C25.1682 12.129 25.2458 13.8514 24.4852 15.5366C23.8013 17.0521 22.5965 18.0349 20.9234 18.4172C19.7636 18.6823 18.6736 18.5342 17.5698 18.0739Z" fill="#009AF9"/>
<path d="M17.3149 8.61609C19.2463 9.63312 20.2861 11.1948 20.307 13.4371C20.3268 15.5548 19.4771 17.1084 17.5528 18.059C15.846 17.2374 14.9242 15.8367 14.628 13.9877C14.2966 11.9185 15.4532 9.61583 17.3149 8.61609Z" fill="#002ED8"/>
<path d="M26.4817 16V10.4572H28.6686C29.089 10.4572 29.4471 10.5375 29.743 10.698C30.0389 10.8568 30.2645 11.0779 30.4196 11.3611C30.5766 11.6426 30.6551 11.9674 30.6551 12.3355C30.6551 12.7035 30.5757 13.0283 30.4169 13.3098C30.2582 13.5913 30.0281 13.8105 29.7268 13.9674C29.4273 14.1244 29.0646 14.2029 28.6388 14.2029H27.245V13.2638H28.4493C28.6749 13.2638 28.8607 13.225 29.0069 13.1474C29.1548 13.068 29.2649 12.9588 29.3371 12.8199C29.411 12.6792 29.448 12.5177 29.448 12.3355C29.448 12.1514 29.411 11.9908 29.3371 11.8537C29.2649 11.7148 29.1548 11.6074 29.0069 11.5316C28.8589 11.4541 28.6713 11.4153 28.4439 11.4153H27.6536V16H26.4817ZM33.2059 16.0812C32.7855 16.0812 32.422 15.9919 32.1152 15.8133C31.8103 15.6328 31.5749 15.382 31.4089 15.0609C31.2429 14.7379 31.1599 14.3635 31.1599 13.9377C31.1599 13.5083 31.2429 13.133 31.4089 12.8118C31.5749 12.4888 31.8103 12.238 32.1152 12.0594C32.422 11.879 32.7855 11.7888 33.2059 11.7888C33.6263 11.7888 33.989 11.879 34.2939 12.0594C34.6007 12.238 34.837 12.4888 35.003 12.8118C35.169 13.133 35.252 13.5083 35.252 13.9377C35.252 14.3635 35.169 14.7379 35.003 15.0609C34.837 15.382 34.6007 15.6328 34.2939 15.8133C33.989 15.9919 33.6263 16.0812 33.2059 16.0812ZM33.2114 15.1881C33.4026 15.1881 33.5623 15.1339 33.6904 15.0257C33.8185 14.9156 33.915 14.7659 33.98 14.5764C34.0468 14.387 34.0801 14.1713 34.0801 13.9296C34.0801 13.6878 34.0468 13.4722 33.98 13.2827C33.915 13.0933 33.8185 12.9435 33.6904 12.8334C33.5623 12.7234 33.4026 12.6683 33.2114 12.6683C33.0183 12.6683 32.8559 12.7234 32.7242 12.8334C32.5943 12.9435 32.496 13.0933 32.4292 13.2827C32.3642 13.4722 32.3318 13.6878 32.3318 13.9296C32.3318 14.1713 32.3642 14.387 32.4292 14.5764C32.496 14.7659 32.5943 14.9156 32.7242 15.0257C32.8559 15.1339 33.0183 15.1881 33.2114 15.1881ZM37.88 16.0812C37.4542 16.0812 37.0879 15.991 36.7812 15.8105C36.4763 15.6283 36.2417 15.3757 36.0775 15.0527C35.9151 14.7298 35.8339 14.3581 35.8339 13.9377C35.8339 13.5119 35.916 13.1384 36.0802 12.8172C36.2462 12.4942 36.4817 12.2425 36.7866 12.0621C37.0915 11.8799 37.4542 11.7888 37.8746 11.7888C38.2373 11.7888 38.5548 11.8546 38.8273 11.9863C39.0997 12.118 39.3153 12.303 39.4741 12.5411C39.6329 12.7793 39.7204 13.059 39.7366 13.3801H38.6486C38.618 13.1727 38.5368 13.0058 38.4051 12.8795C38.2751 12.7513 38.1046 12.6873 37.8935 12.6873C37.7149 12.6873 37.5588 12.736 37.4253 12.8334C37.2936 12.9291 37.1908 13.0689 37.1168 13.2529C37.0428 13.437 37.0058 13.6598 37.0058 13.9214C37.0058 14.1867 37.0419 14.4122 37.1141 14.5981C37.188 14.7839 37.2918 14.9255 37.4253 15.023C37.5588 15.1204 37.7149 15.1691 37.8935 15.1691C38.0252 15.1691 38.1434 15.1421 38.2481 15.0879C38.3545 15.0338 38.442 14.9553 38.5106 14.8525C38.581 14.7478 38.627 14.6224 38.6486 14.4763H39.7366C39.7186 14.7938 39.632 15.0735 39.4768 15.3153C39.3234 15.5552 39.1114 15.7429 38.8408 15.8782C38.5701 16.0135 38.2499 16.0812 37.88 16.0812ZM41.5195 14.8037L41.5222 13.4207H41.69L43.0216 11.8429H44.3451L42.5561 13.9323H42.2827L41.5195 14.8037ZM40.4748 16V10.4572H41.6278V16H40.4748ZM43.073 16L41.8497 14.1894L42.6183 13.3747L44.4235 16H43.073ZM46.634 16.0812C46.2064 16.0812 45.8383 15.9946 45.5298 15.8214C45.2231 15.6464 44.9867 15.3992 44.8207 15.0798C44.6547 14.7586 44.5717 14.3788 44.5717 13.9404C44.5717 13.5128 44.6547 13.1375 44.8207 12.8145C44.9867 12.4915 45.2204 12.2398 45.5217 12.0594C45.8248 11.879 46.1803 11.7888 46.588 11.7888C46.8623 11.7888 47.1176 11.833 47.354 11.9214C47.5921 12.008 47.7996 12.1388 47.9764 12.3138C48.1551 12.4888 48.294 12.7089 48.3932 12.9742C48.4925 13.2376 48.5421 13.5461 48.5421 13.8998V14.2164H45.0318V13.5019H47.4568C47.4568 13.3359 47.4207 13.1889 47.3485 13.0608C47.2764 12.9327 47.1762 12.8325 47.0481 12.7604C46.9218 12.6864 46.7748 12.6494 46.607 12.6494C46.432 12.6494 46.2768 12.69 46.1415 12.7712C46.0079 12.8506 45.9033 12.9579 45.8275 13.0933C45.7517 13.2268 45.7129 13.3756 45.7111 13.5398V14.2192C45.7111 14.4248 45.749 14.6026 45.8248 14.7523C45.9024 14.9021 46.0116 15.0176 46.1523 15.0987C46.293 15.1799 46.4599 15.2205 46.653 15.2205C46.7811 15.2205 46.8984 15.2025 47.0048 15.1664C47.1113 15.1303 47.2024 15.0762 47.2782 15.004C47.354 14.9319 47.4117 14.8434 47.4514 14.7388L48.5177 14.8092C48.4636 15.0654 48.3526 15.2891 48.1848 15.4804C48.0188 15.6698 47.8041 15.8178 47.5407 15.9242C47.2791 16.0289 46.9769 16.0812 46.634 16.0812ZM51.5057 11.8429V12.7089H49.0022V11.8429H51.5057ZM49.5705 10.8469H50.7235V14.7226C50.7235 14.829 50.7397 14.912 50.7722 14.9715C50.8047 15.0293 50.8498 15.0699 50.9075 15.0933C50.9671 15.1168 51.0356 15.1285 51.1132 15.1285C51.1674 15.1285 51.2215 15.124 51.2756 15.115C51.3297 15.1042 51.3712 15.096 51.4001 15.0906L51.5814 15.9486C51.5237 15.9666 51.4425 15.9874 51.3379 16.0108C51.2332 16.0361 51.106 16.0514 50.9563 16.0568C50.6784 16.0677 50.4348 16.0307 50.2255 15.9459C50.018 15.8611 49.8565 15.7294 49.7411 15.5507C49.6256 15.3721 49.5687 15.1466 49.5705 14.8741V10.8469ZM54.7994 16.0533C54.3066 16.0533 53.8595 15.939 53.4581 15.7104C53.0567 15.4767 52.7391 15.154 52.5054 14.7425C52.2768 14.3258 52.1624 13.8558 52.1624 13.3325C52.1624 12.8092 52.2768 12.3417 52.5054 11.9302C52.7391 11.5135 53.0567 11.1909 53.4581 10.9623C53.8595 10.7285 54.3066 10.6117 54.7994 10.6117C55.2974 10.6117 55.747 10.7285 56.1484 10.9623C56.5498 11.1909 56.8648 11.5135 57.0935 11.9302C57.3221 12.3417 57.4364 12.8092 57.4364 13.3325C57.4364 13.8558 57.3221 14.3258 57.0935 14.7425C56.8648 15.154 56.5498 15.4767 56.1484 15.7104C55.747 15.939 55.2974 16.0533 54.7994 16.0533ZM54.7994 15.5884C55.1957 15.5884 55.5514 15.497 55.8664 15.3141C56.1814 15.1312 56.4304 14.8695 56.6133 14.5291C56.7962 14.1836 56.8877 13.7847 56.8877 13.3325C56.8877 12.8803 56.7962 12.484 56.6133 12.1436C56.4304 11.8032 56.1814 11.5415 55.8664 11.3586C55.5514 11.1757 55.1957 11.0842 54.7994 11.0842C54.4031 11.0842 54.0475 11.1757 53.7324 11.3586C53.4174 11.5415 53.1685 11.8032 52.9855 12.1436C52.8026 12.484 52.7112 12.8803 52.7112 13.3325C52.7112 13.7847 52.8026 14.1836 52.9855 14.5291C53.1685 14.8695 53.4174 15.1312 53.7324 15.3141C54.0475 15.497 54.4031 15.5884 54.7994 15.5884ZM58.9385 12.7533C59.0706 12.4738 59.2789 12.2427 59.5635 12.0597C59.8531 11.8717 60.196 11.7778 60.5923 11.7778C60.9683 11.7778 61.3062 11.8667 61.606 12.0445C61.9108 12.2173 62.1471 12.4662 62.3148 12.7914C62.4875 13.1115 62.5739 13.4849 62.5739 13.9117C62.5739 14.3385 62.4875 14.7145 62.3148 15.0397C62.1471 15.3649 61.9108 15.6164 61.606 15.7942C61.3062 15.9721 60.9683 16.061 60.5923 16.061C60.2011 16.061 59.8607 15.9695 59.5711 15.7866C59.2815 15.5986 59.0706 15.3649 58.9385 15.0854V17.9663H58.4126V11.8387H58.9385V12.7533ZM62.0328 13.9117C62.0328 13.5662 61.9642 13.269 61.827 13.02C61.6949 12.766 61.512 12.5729 61.2783 12.4408C61.0445 12.3087 60.7803 12.2427 60.4856 12.2427C60.2011 12.2427 59.9394 12.3112 59.7006 12.4484C59.4669 12.5856 59.2815 12.7812 59.1443 13.0353C59.0071 13.2893 58.9385 13.584 58.9385 13.9194C58.9385 14.2547 59.0071 14.5494 59.1443 14.8034C59.2815 15.0575 59.4669 15.2531 59.7006 15.3903C59.9394 15.5275 60.2011 15.5961 60.4856 15.5961C60.7803 15.5961 61.0445 15.53 61.2783 15.3979C61.512 15.2607 61.6949 15.0651 61.827 14.8111C61.9642 14.5519 62.0328 14.2522 62.0328 13.9117ZM64.2491 12.2884V14.872C64.2491 15.1261 64.2974 15.3014 64.3939 15.3979C64.4905 15.4944 64.6607 15.5427 64.9046 15.5427H65.3923V16H64.8207C64.4447 16 64.1653 15.9136 63.9824 15.7409C63.7995 15.563 63.708 15.2734 63.708 14.872V12.2884H63.1288V11.8387H63.708V10.7946H64.2491V11.8387H65.3923V12.2884H64.2491ZM66.5389 11.0537C66.4322 11.0537 66.3408 11.0156 66.2646 10.9394C66.1884 10.8632 66.1502 10.7692 66.1502 10.6574C66.1502 10.5456 66.1884 10.4542 66.2646 10.383C66.3408 10.3068 66.4322 10.2687 66.5389 10.2687C66.6456 10.2687 66.7371 10.3068 66.8133 10.383C66.8895 10.4542 66.9276 10.5456 66.9276 10.6574C66.9276 10.7692 66.8895 10.8632 66.8133 10.9394C66.7371 11.0156 66.6456 11.0537 66.5389 11.0537ZM66.8057 11.8387V16H66.2722V11.8387H66.8057ZM69.8353 16.061C69.4441 16.061 69.0909 15.9746 68.7759 15.8018C68.466 15.624 68.2196 15.375 68.0367 15.0549C67.8588 14.7298 67.7699 14.3512 67.7699 13.9194C67.7699 13.4875 67.8614 13.1115 68.0443 12.7914C68.2272 12.4662 68.4762 12.2173 68.7912 12.0445C69.1062 11.8667 69.4593 11.7778 69.8505 11.7778C70.2418 11.7778 70.5949 11.8667 70.9099 12.0445C71.23 12.2173 71.479 12.4662 71.6568 12.7914C71.8397 13.1115 71.9312 13.4875 71.9312 13.9194C71.9312 14.3462 71.8397 14.7221 71.6568 15.0473C71.4739 15.3725 71.2224 15.624 70.9023 15.8018C70.5822 15.9746 70.2265 16.061 69.8353 16.061ZM69.8353 15.5961C70.1097 15.5961 70.3637 15.5351 70.5974 15.4132C70.8312 15.2861 71.0192 15.0981 71.1614 14.8492C71.3088 14.5951 71.3824 14.2852 71.3824 13.9194C71.3824 13.5535 71.3113 13.2461 71.169 12.9972C71.0268 12.7431 70.8388 12.5551 70.6051 12.4332C70.3713 12.3062 70.1173 12.2427 69.8429 12.2427C69.5686 12.2427 69.3145 12.3062 69.0808 12.4332C68.8471 12.5551 68.6591 12.7431 68.5168 12.9972C68.3796 13.2461 68.311 13.5535 68.311 13.9194C68.311 14.2852 68.3796 14.5951 68.5168 14.8492C68.6591 15.0981 68.8445 15.2861 69.0732 15.4132C69.3069 15.5351 69.5609 15.5961 69.8353 15.5961ZM74.8548 11.7625C75.3527 11.7625 75.7592 11.9175 76.0742 12.2274C76.3892 12.5323 76.5467 12.9768 76.5467 13.5612V16H76.0208V13.6221C76.0208 13.1699 75.9065 12.8244 75.6779 12.5856C75.4543 12.3468 75.1469 12.2274 74.7557 12.2274C74.3543 12.2274 74.0342 12.3544 73.7954 12.6085C73.5566 12.8625 73.4372 13.236 73.4372 13.7288V16H72.9037V11.8387H73.4372V12.5475C73.5693 12.2935 73.7598 12.1004 74.0088 11.9683C74.2578 11.8311 74.5397 11.7625 74.8548 11.7625Z" fill="#1D1D1B"/>
</svg>
