<svg width="59" height="58" viewBox="0 0 59 58" fill="none" xmlns="http://www.w3.org/2000/svg">
<path d="M0.102783 7.51415C0.102783 3.64816 3.23679 0.51416 7.10278 0.51416H51.3704C55.2364 0.51416 58.3704 3.64817 58.3704 7.51416V50.0161C58.3704 53.8821 55.2364 57.0161 51.3704 57.0161H7.10278C3.23679 57.0161 0.102783 53.882 0.102783 50.0161V7.51415Z" fill="#BF3D3D" fill-opacity="0.9"/>
<path d="M0.102783 7.94862C0.102783 3.84268 3.53532 0.51416 7.76957 0.51416H50.7036C54.9378 0.51416 58.3704 3.84268 58.3704 7.94862V49.5816C58.3704 53.6875 54.9378 57.0161 50.7036 57.0161H7.76957C3.53532 57.0161 0.102783 53.6875 0.102783 49.5816V7.94862Z" fill="#BF3D3D" fill-opacity="0.9"/>
<path d="M14.8126 46.0681V36.1803H18.6688C19.5352 36.1803 20.2744 36.3168 20.8865 36.5899C21.4986 36.863 21.9695 37.2585 22.2991 37.7765C22.6287 38.2944 22.7935 38.9112 22.7935 39.6269C22.7935 40.3426 22.6287 40.9594 22.2991 41.4773C21.9695 41.9859 21.4986 42.3814 20.8865 42.6639C20.2744 42.937 19.5352 43.0735 18.6688 43.0735H15.5895L16.2251 42.4096V46.0681H14.8126ZM16.2251 42.5509L15.5895 41.8446H18.6265C19.5305 41.8446 20.2132 41.6515 20.6747 41.2655C21.1455 40.8794 21.3809 40.3332 21.3809 39.6269C21.3809 38.9206 21.1455 38.3744 20.6747 37.9883C20.2132 37.6022 19.5305 37.4092 18.6265 37.4092H15.5895L16.2251 36.7029V42.5509ZM29.1339 46.1811C27.8344 46.1811 26.8127 45.8091 26.0687 45.0652C25.3248 44.3213 24.9528 43.2336 24.9528 41.8022V36.1803H26.3653V41.7457C26.3653 42.8475 26.6055 43.6527 27.0857 44.1612C27.5754 44.6697 28.2629 44.924 29.1481 44.924C30.0427 44.924 30.7301 44.6697 31.2104 44.1612C31.7001 43.6527 31.9449 42.8475 31.9449 41.7457V36.1803H33.3151V41.8022C33.3151 43.2336 32.9431 44.3213 32.1992 45.0652C31.4646 45.8091 30.4429 46.1811 29.1339 46.1811ZM38.1364 46.0681V37.4092H34.7463V36.1803H42.9249V37.4092H39.5348V46.0681H38.1364Z" fill="white"/>
<path d="M30.391 29.2651C29.6937 30.3386 28.1215 30.3365 27.427 29.2612L19.2145 16.5444C18.4552 15.3686 19.3005 13.819 20.7001 13.8208L37.1587 13.8426C38.5584 13.8444 39.3995 15.3963 38.6371 16.57L30.391 29.2651Z" fill="white"/>
</svg>
