<svg width="32" height="32" viewBox="0 0 32 32" fill="none" xmlns="http://www.w3.org/2000/svg">
<path d="M0 2.00012C0 0.895552 0.895431 0.00012207 2 0.00012207H29.9725C31.077 0.00012207 31.9725 0.895553 31.9725 2.00012V29.0037C31.9725 30.1083 31.077 31.0037 29.9725 31.0037H2C0.895431 31.0037 0 30.1083 0 29.0037V2.00012Z" fill="#BF3D3D"/>
<path d="M0 4.07954C0 1.82654 1.8835 0.00012207 4.2069 0.00012207H27.7656C30.089 0.00012207 31.9725 1.82654 31.9725 4.07954V26.9243C31.9725 29.1773 30.089 31.0037 27.7656 31.0037H4.2069C1.88349 31.0037 0 29.1773 0 26.9243V4.07954Z" fill="#BF3D3D"/>
<path d="M8.4257 24.3142V18.6772H10.435C10.8735 18.6772 11.2369 18.757 11.525 18.9167C11.813 19.0763 12.0287 19.2947 12.1718 19.5718C12.3149 19.847 12.3865 20.1571 12.3865 20.5021C12.3865 20.8489 12.314 21.1608 12.169 21.4379C12.0259 21.7132 11.8094 21.9315 11.5195 22.093C11.2314 22.2526 10.869 22.3325 10.4322 22.3325H9.0505V21.6113H10.3552C10.6322 21.6113 10.857 21.5636 11.0295 21.4682C11.202 21.3709 11.3286 21.2388 11.4094 21.0718C11.4901 20.9049 11.5305 20.7149 11.5305 20.5021C11.5305 20.2892 11.4901 20.1002 11.4094 19.9351C11.3286 19.7699 11.2011 19.6406 11.0268 19.547C10.8543 19.4534 10.6267 19.4066 10.3442 19.4066H9.27621V24.3142H8.4257ZM17.086 18.6772H17.9393V22.3848C17.9393 22.7793 17.8466 23.1288 17.6613 23.4334C17.476 23.7362 17.2154 23.9748 16.8796 24.1491C16.5438 24.3216 16.1502 24.4078 15.6988 24.4078C15.2492 24.4078 14.8566 24.3216 14.5208 24.1491C14.185 23.9748 13.9244 23.7362 13.7391 23.4334C13.5537 23.1288 13.4611 22.7793 13.4611 22.3848V18.6772H14.3116V22.3159C14.3116 22.571 14.3675 22.7976 14.4795 22.9958C14.5932 23.194 14.7538 23.3499 14.9611 23.4637C15.1685 23.5756 15.4144 23.6316 15.6988 23.6316C15.9851 23.6316 16.2319 23.5756 16.4392 23.4637C16.6484 23.3499 16.808 23.194 16.9181 22.9958C17.0301 22.7976 17.086 22.571 17.086 22.3159V18.6772ZM18.9753 19.4094V18.6772H23.338V19.4094H21.5792V24.3142H20.7314V19.4094H18.9753Z" fill="white"/>
<path d="M16.6197 15.7762C16.2371 16.3653 15.3744 16.3641 14.9933 15.7741L10.487 8.79613C10.0703 8.15096 10.5341 7.30064 11.3022 7.30166L20.3333 7.31359C21.1013 7.31461 21.5628 8.16615 21.1445 8.81022L16.6197 15.7762Z" fill="white"/>
</svg>
