<svg width="132" height="57" viewBox="0 0 132 57" fill="none" xmlns="http://www.w3.org/2000/svg">
<path d="M0.452271 7.45227C0.452271 3.58628 3.58628 0.452271 7.45227 0.452271H124.053C127.919 0.452271 131.053 3.58628 131.053 7.45227V49.848C131.053 53.714 127.919 56.848 124.053 56.848H7.45228C3.58628 56.848 0.452271 53.714 0.452271 49.848V7.45227Z" fill="white"/>
<path d="M0.777278 7.45227C0.777278 3.76577 3.76577 0.777278 7.45227 0.777278H124.053C127.739 0.777278 130.728 3.76577 130.728 7.45227V49.848C130.728 53.5345 127.739 56.523 124.053 56.523H7.45228C3.76578 56.523 0.777278 53.5345 0.777278 49.848V7.45227Z" stroke="#BBBBBB" stroke-opacity="0.5" stroke-width="0.650015"/>
<path d="M57.5716 29.1869C57.57 29.7094 57.5158 30.2304 57.4101 30.7422C57.2942 31.2225 57.1319 31.6904 56.9253 32.1392C56.7032 32.5784 56.4613 32.9571 56.1381 33.3357C55.8349 33.6953 55.4918 34.0152 55.0883 34.2936L58.2171 37.6454H56.3395C56.0938 37.6459 55.8493 37.6125 55.6128 37.5459C55.3807 37.4659 55.1727 37.3285 55.0079 37.1465L53.2098 35.191C52.9187 35.272 52.6221 35.3321 52.3224 35.3708C52.0077 35.4115 51.6908 35.4317 51.3736 35.4313C50.5044 35.4388 49.6415 35.2831 48.8297 34.9722C48.0624 34.6532 47.3962 34.2339 46.851 33.6755C46.3002 33.1079 45.8678 32.4364 45.5791 31.7C45.2758 30.9419 45.1349 30.124 45.1349 29.2266C45.1349 28.3284 45.2758 27.5106 45.5791 26.7524C45.8678 26.016 46.3001 25.3445 46.851 24.777C47.3962 24.2185 48.0624 23.7992 48.8297 23.4802C49.5962 23.1612 50.4447 23.022 51.3736 23.022C52.3016 23.022 53.1501 23.181 53.9174 23.5001C54.6847 23.8199 55.3302 24.2384 55.8755 24.7977C56.4262 25.365 56.8586 26.0362 57.1474 26.7723C57.4299 27.4708 57.5716 28.3085 57.5716 29.1869ZM55.2291 29.1869C55.2291 28.5281 55.1289 27.9298 54.9673 27.3904C54.8018 26.8929 54.5412 26.4322 54.2 26.034C53.872 25.6585 53.4556 25.3706 52.9886 25.1962C52.4747 24.9919 51.9257 24.8902 51.3728 24.8971C50.7679 24.8971 50.2226 24.9965 49.7578 25.1962C49.2925 25.3849 48.8728 25.6705 48.5265 26.034C48.1718 26.4262 47.9036 26.8886 47.7393 27.3912C47.557 27.91 47.4766 28.5082 47.4766 29.1869C47.4759 29.7947 47.5644 30.3994 47.7393 30.9816C47.9216 31.5003 48.1834 31.9594 48.5265 32.319C48.8695 32.6778 49.2739 32.9571 49.7578 33.1559C50.2715 33.361 50.8205 33.4629 51.3736 33.4559C51.9785 33.4559 52.5245 33.3564 52.9886 33.1567C53.4506 32.9729 53.8648 32.6864 54.2 32.319C54.543 31.9594 54.785 31.5003 54.9673 30.9816C55.1448 30.4 55.233 29.7949 55.2291 29.1869ZM64.3141 33.436C64.7582 33.436 65.1419 33.3564 65.5048 33.2164C65.8459 33.0768 66.1516 32.8629 66.3995 32.5903C66.6475 32.3176 66.8316 31.9931 66.9383 31.6404C67.0593 31.2617 67.1405 30.8424 67.1405 30.3834V23.1015H69.4217V30.3834C69.4217 31.1018 69.3007 31.7804 69.0786 32.3787C68.8538 32.9735 68.5105 33.5165 68.0694 33.9746C67.6252 34.4138 67.0999 34.7725 66.4743 35.012C65.8487 35.2714 65.1419 35.3915 64.3547 35.3915C63.5675 35.3915 62.8599 35.2714 62.2343 35.012C61.6333 34.7867 61.0889 34.4326 60.6392 33.9746C60.1872 33.5252 59.8422 32.9797 59.6299 32.3787C59.3836 31.7425 59.2602 31.0655 59.2662 30.3834V23.1015H61.5482V30.3635C61.5482 30.8225 61.6087 31.2418 61.7296 31.6205C61.8506 32 62.0329 32.319 62.2749 32.5784C62.5191 32.8504 62.8232 33.062 63.1631 33.1965C63.4863 33.3763 63.8699 33.436 64.3141 33.436ZM83.5355 29.1869C83.5355 30.0842 83.3946 30.9021 83.0913 31.6603C82.8027 32.3966 82.3703 33.0682 81.8194 33.6357C81.2742 34.1942 80.6279 34.6135 79.8606 34.9325C79.0933 35.2515 78.2456 35.3915 77.3167 35.3915C76.4475 35.399 75.5846 35.2433 74.7729 34.9325C74.0056 34.6135 73.3394 34.195 72.7941 33.6357C72.2433 33.0681 71.8109 32.3966 71.5222 31.6603C71.2198 30.9029 71.0781 30.0842 71.0781 29.1869C71.0781 28.2886 71.2189 27.4716 71.5222 26.7126C71.811 25.9766 72.2434 25.3053 72.7941 24.738C73.3394 24.1795 74.0056 23.7602 74.7729 23.4412C75.5402 23.1214 76.3887 22.9822 77.3167 22.9822C78.2456 22.9822 79.0933 23.1421 79.8606 23.4611C80.6279 23.7801 81.2742 24.1986 81.8194 24.7579C82.3702 25.3252 82.8026 25.9964 83.0913 26.7325C83.3938 27.4708 83.5355 28.3085 83.5355 29.1869ZM81.193 29.1869C81.193 28.5281 81.0927 27.9298 80.9311 27.3912C80.7656 26.8937 80.505 26.433 80.1638 26.0348C79.8358 25.6593 79.4195 25.3714 78.9524 25.1971C78.4364 25 77.8889 24.8984 77.3366 24.8971C76.7317 24.8971 76.1865 24.9965 75.7216 25.1971C75.2565 25.3855 74.8367 25.6708 74.4903 26.034C74.1356 26.4262 73.8674 26.8886 73.7031 27.3912C73.5208 27.91 73.4404 28.5082 73.4404 29.1869C73.4404 29.8448 73.5415 30.4439 73.7031 30.9825C73.8854 31.5012 74.1473 31.9602 74.4903 32.319C74.8334 32.6778 75.2377 32.9571 75.7216 33.1567C76.2355 33.3612 76.7844 33.4628 77.3374 33.4559C77.9423 33.4559 78.4875 33.3564 78.9524 33.1576C79.4146 32.9735 79.8288 32.6868 80.1638 32.319C80.5069 31.9602 80.7488 31.5012 80.9311 30.9825C81.1126 30.4637 81.193 29.8647 81.193 29.1869ZM93.3471 23.1214V24.9775H89.6523V35.2714H87.3711V24.9775H83.6564V23.1214H93.3471ZM102.533 23.1214V24.917H97.0817V28.2895H101.382V30.0246H97.0817V33.4559H102.533V35.2714H94.7806V23.1214H102.533ZM107.481 29.0079L103.564 23.1214H105.845C106.007 23.1214 106.128 23.1413 106.188 23.1819C106.268 23.2274 106.332 23.297 106.37 23.3807L109.177 27.8503C109.197 27.7699 109.237 27.7103 109.277 27.6307C109.318 27.571 109.358 27.4907 109.399 27.4111L111.963 23.4213C112.084 23.2216 112.245 23.1015 112.448 23.1015H114.648L110.65 28.9267L114.729 35.2714H112.448C112.306 35.2714 112.165 35.2316 112.084 35.1521C111.988 35.0811 111.906 34.9932 111.842 34.8927L108.995 30.2442C108.975 30.3038 108.955 30.3635 108.914 30.443C108.894 30.5035 108.854 30.5632 108.833 30.603L106.088 34.8728C106.027 34.9722 105.946 35.0518 105.866 35.1322C105.77 35.2126 105.647 35.255 105.522 35.2515H103.382L107.481 29.007V29.0079Z" fill="#1D1D1B"/>
<path d="M38.6862 35.4311V23.0019L33.5289 20.0686V22.1642L36.8392 24.0592V34.3738L35.3767 35.2115V26.8326H33.5289V36.2689L32.0266 37.1074V24.4785H30.1788V38.1639L28.6765 39.0215V19.4107L32.0266 21.3264V19.211L27.7427 16.7773L23.4786 19.211V21.3057L26.8287 19.4107V39.0224L25.3256 38.1647V24.4785H23.4778V37.1273L21.9755 36.2689V26.8326H20.1277V35.2306L18.6254 34.3738V24.0592L18.7265 23.9996L21.9755 22.1633V20.0495L16.7776 23.0019V35.4311L27.7427 41.6358L38.6862 35.4311Z" fill="#A1002A"/>
</svg>
