<svg width="86" height="27" viewBox="0 0 86 27" fill="none" xmlns="http://www.w3.org/2000/svg">
<rect x="0.218993" y="0.218993" width="85.3475" height="25.9724" rx="1.78101" fill="white" stroke="#BBBBBB" stroke-width="0.437986"/>
<path d="M37.4871 13.3616C37.486 13.7137 37.4495 14.0648 37.3783 14.4096C37.3002 14.7332 37.1908 15.0485 37.0516 15.3509C36.902 15.6469 36.739 15.902 36.5212 16.1572C36.3169 16.3995 36.0857 16.615 35.8138 16.8026L37.9221 19.061H36.6569C36.4914 19.0614 36.3266 19.0389 36.1672 18.994C36.0109 18.9401 35.8707 18.8475 35.7597 18.7249L34.5481 17.4073C34.3519 17.4619 34.1521 17.5023 33.9501 17.5284C33.7381 17.5558 33.5246 17.5694 33.3108 17.5692C32.7252 17.5742 32.1437 17.4693 31.5968 17.2599C31.0798 17.0449 30.6309 16.7624 30.2635 16.3861C29.8923 16.0037 29.601 15.5512 29.4064 15.055C29.2021 14.5442 29.1072 13.9931 29.1072 13.3884C29.1072 12.7832 29.2021 12.2321 29.4064 11.7212C29.601 11.2251 29.8923 10.7726 30.2635 10.3902C30.6309 10.0139 31.0798 9.73136 31.5968 9.5164C32.1132 9.30145 32.6849 9.20765 33.3108 9.20765C33.9362 9.20765 34.5079 9.31485 35.0249 9.5298C35.5419 9.74532 35.9769 10.0273 36.3442 10.4041C36.7153 10.7864 37.0067 11.2387 37.2013 11.7346C37.3917 12.2053 37.4871 12.7698 37.4871 13.3616ZM35.9087 13.3616C35.9087 12.9177 35.8412 12.5146 35.7323 12.1512C35.6208 11.8159 35.4452 11.5055 35.2153 11.2372C34.9943 10.9842 34.7137 10.7902 34.399 10.6727C34.0528 10.535 33.6829 10.4665 33.3103 10.4711C32.9027 10.4711 32.5353 10.5381 32.2221 10.6727C31.9086 10.7998 31.6258 10.9923 31.3924 11.2372C31.1534 11.5014 30.9727 11.813 30.862 12.1517C30.7392 12.5012 30.685 12.9043 30.685 13.3616C30.6845 13.7712 30.7442 14.1787 30.862 14.571C30.9848 14.9205 31.1613 15.2298 31.3924 15.4721C31.6236 15.7139 31.896 15.902 32.2221 16.036C32.5682 16.1742 32.9382 16.2429 33.3108 16.2381C33.7184 16.2381 34.0864 16.1711 34.399 16.0366C34.7104 15.9127 34.9895 15.7197 35.2153 15.4721C35.4464 15.2298 35.6095 14.9205 35.7323 14.571C35.8519 14.1791 35.9114 13.7713 35.9087 13.3616ZM42.0303 16.2247C42.3295 16.2247 42.588 16.1711 42.8326 16.0768C43.0624 15.9827 43.2684 15.8386 43.4355 15.6549C43.6026 15.4712 43.7266 15.2525 43.7985 15.0148C43.88 14.7597 43.9347 14.4772 43.9347 14.1678V9.26125H45.4718V14.1678C45.4718 14.6519 45.3903 15.1092 45.2407 15.5123C45.0892 15.9131 44.8578 16.279 44.5606 16.5876C44.2613 16.8836 43.9074 17.1253 43.4858 17.2867C43.0643 17.4614 42.588 17.5424 42.0576 17.5424C41.5272 17.5424 41.0504 17.4614 40.6289 17.2867C40.2239 17.1348 39.8571 16.8962 39.5541 16.5876C39.2495 16.2848 39.0171 15.9173 38.874 15.5123C38.7081 15.0837 38.6249 14.6275 38.6289 14.1678V9.26125H40.1666V14.1544C40.1666 14.4638 40.2073 14.7463 40.2888 15.0014C40.3703 15.2571 40.4932 15.4721 40.6562 15.6469C40.8208 15.8302 41.0257 15.9727 41.2547 16.0634C41.4725 16.1845 41.731 16.2247 42.0303 16.2247ZM54.9818 13.3616C54.9818 13.9663 54.8869 14.5174 54.6826 15.0282C54.4881 15.5244 54.1967 15.9769 53.8255 16.3593C53.4581 16.7356 53.0226 17.0181 52.5056 17.2331C51.9886 17.448 51.4174 17.5424 50.7916 17.5424C50.2059 17.5474 49.6245 17.4425 49.0775 17.2331C48.5605 17.0181 48.1116 16.7362 47.7442 16.3593C47.373 15.9769 47.0817 15.5244 46.8872 15.0282C46.6834 14.5179 46.5879 13.9663 46.5879 13.3616C46.5879 12.7564 46.6828 12.2059 46.8872 11.6944C47.0818 11.1985 47.3731 10.7462 47.7442 10.3639C48.1116 9.98763 48.5605 9.70512 49.0775 9.49016C49.5945 9.27465 50.1662 9.18085 50.7916 9.18085C51.4174 9.18085 51.9886 9.2886 52.5056 9.50356C53.0226 9.71852 53.4581 10.0005 53.8255 10.3773C54.1967 10.7596 54.488 11.2119 54.6826 11.7078C54.8863 12.2053 54.9818 12.7698 54.9818 13.3616ZM53.4034 13.3616C53.4034 12.9177 53.3359 12.5146 53.227 12.1517C53.1154 11.8165 52.9399 11.5061 52.71 11.2377C52.489 10.9847 52.2084 10.7907 51.8937 10.6733C51.546 10.5405 51.1771 10.472 50.805 10.4711C50.3974 10.4711 50.03 10.5381 49.7168 10.6733C49.4033 10.8002 49.1205 10.9925 48.8871 11.2372C48.6481 11.5014 48.4674 11.813 48.3567 12.1517C48.2339 12.5012 48.1797 12.9043 48.1797 13.3616C48.1797 13.8049 48.2478 14.2086 48.3567 14.5715C48.4795 14.921 48.656 15.2303 48.8871 15.4721C49.1182 15.7139 49.3907 15.902 49.7168 16.0366C50.063 16.1743 50.4329 16.2428 50.8055 16.2381C51.2131 16.2381 51.5805 16.1711 51.8937 16.0371C52.2051 15.9131 52.4842 15.7199 52.71 15.4721C52.9411 15.2303 53.1042 14.921 53.227 14.5715C53.3493 14.222 53.4034 13.8183 53.4034 13.3616ZM61.593 9.27465V10.5253H59.1034V17.4614H57.5663V10.5253H55.0633V9.27465H61.593ZM67.7826 9.27465V10.4845H64.1094V12.7569H67.0071V13.9261H64.1094V16.2381H67.7826V17.4614H62.5589V9.27465H67.7826ZM71.1164 13.241L68.4772 9.27465H70.0143C70.1231 9.27465 70.2047 9.28805 70.2454 9.3154C70.2994 9.34608 70.3424 9.39296 70.3682 9.4494L72.2593 12.461C72.2727 12.4069 72.3001 12.3667 72.3269 12.3131C72.3542 12.2729 72.3816 12.2187 72.4089 12.1651L74.1364 9.47676C74.2179 9.3422 74.3268 9.26125 74.463 9.26125H75.946L73.252 13.1863L76.0001 17.4614H74.463C74.3676 17.4614 74.2726 17.4346 74.2179 17.381C74.1534 17.3332 74.0981 17.274 74.0549 17.2063L72.1365 14.074C72.1231 14.1142 72.1097 14.1544 72.0823 14.208C72.0684 14.2488 72.0416 14.289 72.0276 14.3158L70.1779 17.1929C70.1371 17.2599 70.0824 17.3135 70.0282 17.3676C69.9634 17.4218 69.881 17.4504 69.7965 17.448H68.3549L71.1164 13.2405V13.241Z" fill="#1D1D1B"/>
<path d="M24.7622 17.5691V9.19417L21.2872 7.21768V8.6297L23.5177 9.90659V16.8567L22.5323 17.4211V11.7753H21.2872V18.1336L20.2749 18.6986V10.1891H19.0299V19.4105L18.0176 19.9883V6.77437L20.2749 8.06523V6.63981L17.3884 5L14.5152 6.63981V8.05127L16.7725 6.77437V19.9889L15.7597 19.411V10.1891H14.5146V18.712L13.5024 18.1336V11.7753H12.2573V17.434L11.2451 16.8567V9.90659L11.3132 9.86639L13.5024 8.62914V7.20484L10 9.19417V17.5691L17.3884 21.7499L24.7622 17.5691Z" fill="#A1002A"/>
</svg>
