<svg width="131" height="57" viewBox="0 0 131 57" fill="none" xmlns="http://www.w3.org/2000/svg">
<rect width="130.601" height="56.3958" rx="7" fill="white"/>
<rect x="0.325008" y="0.325008" width="129.951" height="55.7457" rx="6.67499" stroke="#BBBBBB" stroke-opacity="0.5" stroke-width="0.650015"/>
<path fill-rule="evenodd" clip-rule="evenodd" d="M29.8788 19.7221C28.4191 18.6791 26.6987 18.106 24.9266 18.106C20.1829 18.106 16.3253 21.963 16.3253 26.7594C16.3253 29.4702 17.5242 31.9203 19.6614 33.5881C19.8178 33.6924 19.9743 33.7446 20.1307 33.7446C20.2516 33.7421 20.3704 33.7128 20.4786 33.6588C20.5867 33.6048 20.6815 33.5274 20.756 33.4322C21.0168 33.0671 20.9646 32.5977 20.6001 32.337C19.7538 31.6747 19.0697 30.8281 18.6 29.8616C18.1302 28.895 17.8871 27.8341 17.8893 26.7594C17.8893 22.8496 21.0689 19.67 24.9266 19.67C26.3863 19.67 27.7938 20.1388 28.9928 20.9732C29.3573 21.234 29.8267 21.1297 30.0875 20.8168C30.3482 20.4517 30.2439 19.9307 29.8788 19.7221ZM46.5078 26.3944C46.5078 25.7691 46.2997 25.2481 45.9347 24.8309C45.4131 24.3094 44.5792 24.0486 43.276 24.0486H40.4087L38.3237 31.6595H40.4609L41.0867 29.3138H42.0249L43.0679 31.6595H45.4131L44.2142 29.053C45.7261 28.688 46.5078 27.646 46.5078 26.3944ZM41.5034 27.6982H42.7023C43.6932 27.6982 44.3185 27.2809 44.3185 26.6551C44.3185 26.4465 44.2663 26.29 44.1099 26.1336C43.9534 25.9777 43.6411 25.8728 43.1717 25.8728H42.0249L41.5034 27.6982ZM50.8348 23.9443L45.5174 31.6601H47.8111L48.7492 30.3047H51.7208L51.9294 31.6601H54.1709L52.9719 23.9448H50.8348V23.9443ZM51.2515 26.4465L49.7923 28.6358H51.5122L51.2515 26.4465ZM58.4979 29.8869C57.6113 29.8869 56.986 29.2616 56.986 28.3234C56.986 26.968 58.0285 25.7691 59.2796 25.7691C60.0092 25.7691 60.5308 26.1336 60.8437 26.7594L62.6679 25.7691C62.1991 24.5701 61.1039 23.8405 59.5404 23.8405C56.621 23.8405 54.7446 26.1857 54.7446 28.4799C54.7446 30.5127 56.2559 31.8155 58.3409 31.8155C59.8012 31.8155 60.791 31.2423 61.5733 30.3563L60.1135 29.1052C59.6447 29.6267 59.1753 29.8869 58.4979 29.8869ZM70.2267 23.9964L69.7573 25.8212H65.6916L65.3787 26.9675H69.0278L68.5584 28.6358H64.9094L64.597 29.8348H68.7148L68.246 31.6595H62.0421L64.0755 23.9964H70.2267Z" fill="#95BE4D"/>
<path fill-rule="evenodd" clip-rule="evenodd" d="M30.8695 21.8594L22.9461 26.3945C22.7897 26.4988 22.5811 26.6552 22.4768 26.8117C22.1796 27.1045 21.9436 27.4534 21.7825 27.8382C21.6215 28.223 21.5385 28.636 21.5385 29.0532C21.5385 29.4703 21.6215 29.8833 21.7825 30.2681C21.9436 30.6529 22.1796 31.0019 22.4768 31.2946C22.7695 31.5918 23.1185 31.8278 23.5033 31.9888C23.8881 32.1499 24.3011 32.2329 24.7182 32.2329C25.1354 32.2329 25.5484 32.1499 25.9332 31.9888C26.318 31.8278 26.6669 31.5918 26.9597 31.2946C27.0835 31.1708 27.1748 31.0474 27.2851 30.898L27.3769 30.7731L31.912 22.9019C32.0684 22.6412 32.0163 22.2766 31.8077 22.0159C31.6889 21.8924 31.5335 21.8105 31.3645 21.7823C31.1955 21.7542 31.0219 21.7812 30.8695 21.8594ZM74.6056 23.8923C71.9475 23.8923 70.0184 26.0816 70.0184 28.4279C70.0184 30.3564 71.4781 31.8683 73.6674 31.8683C76.3261 31.8683 78.2546 29.679 78.2546 27.3332C78.2546 25.352 76.7954 23.8923 74.6056 23.8923ZM73.876 29.9392C72.7814 29.9392 72.2077 29.2096 72.2077 28.2193C72.2077 27.0725 73.0943 25.7692 74.3975 25.7692C75.4922 25.7692 76.0653 26.4988 76.0653 27.4891C76.1175 28.6359 75.2314 29.9392 73.876 29.9392ZM80.3402 24.0487H82.8424C84.0413 24.0487 84.8752 24.2573 85.3968 24.831C85.8134 25.2477 86.022 25.7692 86.022 26.3945C86.022 28.2714 84.458 29.4704 82.2166 29.4704H80.9655L80.3923 31.6597H78.2546L80.3402 24.0487ZM82.2166 27.8542H81.4348L81.9558 25.8214H82.7381C83.1548 25.8214 83.4155 25.9257 83.6241 26.1337C83.7806 26.2902 83.8327 26.4466 83.8327 26.6552C83.8849 27.3848 83.2591 27.8542 82.2166 27.8542ZM86.9602 24.0487H93.6852L93.2158 25.8735H90.9222L89.3582 31.6591H87.221L88.7329 25.9257H86.4393L86.9602 24.0487ZM92.5383 31.6597H94.6755L96.7083 23.9966H94.5712L92.5383 31.6602V31.6597ZM96.7605 28.4273C96.7605 26.0821 98.6896 23.8923 101.348 23.8923C103.485 23.8923 104.997 25.352 104.997 27.3332C104.997 29.679 103.068 31.8683 100.41 31.8683C98.2202 31.8683 96.7605 30.3559 96.7605 28.4273ZM100.618 29.9392C99.5235 29.9392 98.9503 29.2096 98.9503 28.2193C98.9503 27.0725 99.8364 25.7692 101.14 25.7692C102.234 25.7692 102.807 26.4988 102.807 27.4891C102.807 28.6359 101.974 29.9392 100.618 29.9392ZM110.992 28.3236L112.139 24.0487V23.9966H114.276L112.243 31.6597H110.366L108.281 27.2289L107.082 31.6597H104.945L107.03 24.0487H109.011L110.992 28.3236ZM25.9172 30.2C25.9693 30.1478 26.0736 30.0435 26.1258 29.9392L29.3054 24.4138L23.7279 27.5934L23.5193 27.8021C22.8418 28.48 22.8418 29.5225 23.5193 30.2C24.1972 30.8779 25.2397 30.8779 25.9172 30.2Z" fill="#1D1D1B"/>
<path d="M29.9829 33.7445C29.8622 33.742 29.7435 33.7127 29.6354 33.6587C29.5274 33.6047 29.4327 33.5273 29.3582 33.4322C29.0974 33.0671 29.1496 32.5977 29.5141 32.337C31.2346 30.9816 32.2771 28.9487 32.2771 26.7594C32.2771 26.4465 32.2771 26.1336 32.1728 25.769C32.1206 25.3518 32.4336 24.9346 32.8508 24.883C33.2674 24.8309 33.6847 25.1438 33.7363 25.5604C33.789 26.0298 33.8411 26.3943 33.8411 26.8116C33.8411 29.5224 32.6422 31.9724 30.5045 33.6402C30.2964 33.6924 30.1399 33.7445 29.9829 33.7445Z" fill="#D15364"/>
</svg>
