<svg width="131" height="57" viewBox="0 0 131 57" fill="none" xmlns="http://www.w3.org/2000/svg">
<rect width="130.601" height="56.3958" rx="7" fill="white"/>
<rect x="0.325008" y="0.325008" width="129.951" height="55.7457" rx="6.67499" stroke="#BBBBBB" stroke-opacity="0.5" stroke-width="0.650015"/>
<path fill-rule="evenodd" clip-rule="evenodd" d="M21.7618 22.8358L31.6555 17.8092L41.5315 22.8358L39.5848 23.9727L31.6555 19.9139L23.6905 23.9785L21.7618 22.8358Z" fill="#1D1D1B"/>
<path fill-rule="evenodd" clip-rule="evenodd" d="M31.6644 20.7578L24.2887 24.4285L29.2953 26.797C29.2953 26.797 30.5036 27.3179 31.6556 27.3179C32.8073 27.3179 34.0098 26.797 34.0098 26.797L38.76 24.4285L31.6644 20.7578Z" fill="#ED9D2F"/>
<path fill-rule="evenodd" clip-rule="evenodd" d="M32.5397 36.8624L39.0402 33.5113V25.9564L35.5279 27.9575C35.5279 27.9575 32.5397 29.417 32.5397 33.9139V36.8624Z" fill="#ED9D2F"/>
<path fill-rule="evenodd" clip-rule="evenodd" d="M46.3212 24.9886V27.1099L42.3943 29.1049V26.9924L46.3212 24.9886Z" fill="#ED9D2F"/>
<path fill-rule="evenodd" clip-rule="evenodd" d="M27.801 27.9575L24.2887 25.9564V33.5113L30.7893 36.8624V33.9139C30.7893 29.417 27.801 27.9575 27.801 27.9575Z" fill="#ED9D2F"/>
<path fill-rule="evenodd" clip-rule="evenodd" d="M23.6427 27.733V25.6266L16.3247 21.8921V24.0147L21.7141 26.7528V35.2494L30.7892 39.8602V37.7534L23.6427 34.1067V27.733Z" fill="#1D1D1B"/>
<path fill-rule="evenodd" clip-rule="evenodd" d="M17.0073 27.1099L20.9343 29.1049V26.9924L17.0073 24.9886V27.1099Z" fill="#ED9D2F"/>
<path fill-rule="evenodd" clip-rule="evenodd" d="M41.6149 24.6423L39.6862 25.6266V34.1067L32.5397 37.7534V39.8602L41.6149 35.2494V26.7528L47.0042 24.0147V21.8921L41.6149 24.6423Z" fill="#1D1D1B"/>
<path fill-rule="evenodd" clip-rule="evenodd" d="M55.2068 26.0388C54.3327 26.0388 53.8956 26.345 53.8956 26.9576C53.8956 27.2742 53.9989 27.4996 54.2054 27.6339C54.4118 27.7681 54.8678 27.9333 55.5733 28.1294C56.2788 28.3256 56.7761 28.5596 57.0652 28.8315C57.3543 29.1034 57.4988 29.5318 57.4988 30.1168C57.4988 30.8602 57.2872 31.416 56.8639 31.7842C56.4406 32.1525 55.8641 32.3366 55.1345 32.3366C54.5495 32.3366 53.9025 32.2677 53.1936 32.1301L52.8219 32.0578L52.9355 31.139C53.8647 31.2628 54.5736 31.3248 55.0623 31.3248C55.9158 31.3248 56.3425 30.9462 56.3425 30.1891C56.3425 29.8932 56.2461 29.6746 56.0534 29.5335C55.8607 29.3924 55.4271 29.2376 54.7525 29.0689C54.078 28.9003 53.5756 28.668 53.2452 28.372C52.9148 28.0761 52.7496 27.6081 52.7496 26.9679C52.7496 26.3278 52.9578 25.8443 53.3743 25.5174C53.7907 25.1904 54.3671 25.027 55.1036 25.027C55.6336 25.027 56.2599 25.0889 56.9826 25.2128L57.3439 25.2748L57.251 26.2039C56.2874 26.0938 55.606 26.0388 55.2068 26.0388ZM61.8453 30.0239H60.3999V32.223H59.2539V25.1509H61.8453C63.449 25.1509 64.2509 25.9424 64.2509 27.5255C64.2509 28.3376 64.0496 28.9571 63.6469 29.3838C63.2443 29.8106 62.6437 30.0239 61.8453 30.0239ZM60.3999 29.0328H61.835C62.6609 29.0328 63.0739 28.5304 63.0739 27.5255C63.0739 27.0437 62.9741 26.6926 62.7745 26.4724C62.5749 26.2521 62.2617 26.142 61.835 26.142H60.3999V29.0328ZM65.8718 32.223V25.1509H70.3319V26.1523H67.0178V28.1552H69.7124V29.1464H67.0178V31.2112H70.3319V32.223H65.8718ZM74.41 32.3366C73.3775 32.3366 72.6772 32.0509 72.309 31.4797C71.9408 30.9084 71.7566 29.9689 71.7566 28.6611C71.7566 27.3534 71.9425 26.4225 72.3141 25.8684C72.6858 25.3143 73.3844 25.0373 74.41 25.0373C75.0226 25.0373 75.6971 25.1233 76.4335 25.2954L76.3922 26.2246C75.7728 26.1145 75.1533 26.0594 74.5339 26.0594C73.9144 26.0594 73.4946 26.2435 73.2743 26.6118C73.0541 26.98 72.9439 27.6717 72.9439 28.6869C72.9439 29.7022 73.0506 30.3939 73.264 30.7621C73.4774 31.1304 73.8938 31.3145 74.5132 31.3145C75.1327 31.3145 75.759 31.2628 76.3922 31.1596L76.4232 32.1094C75.7143 32.2609 75.0432 32.3366 74.41 32.3366ZM77.4866 26.173V25.1509H82.6488V26.173H80.6562V32.223H79.4998V26.173H77.4866ZM85.2608 29.7039V32.223H84.1148V25.1509H86.7991C88.396 25.1509 89.1944 25.9011 89.1944 27.4016C89.1944 28.4065 88.8089 29.0879 88.038 29.4458L89.2047 32.223H87.9451L86.923 29.7039H85.2608ZM88.0174 27.4119C88.0174 26.5653 87.6113 26.142 86.7991 26.142H85.2608V28.7127H86.8198C87.2327 28.7127 87.5356 28.594 87.7283 28.3566C87.921 28.1191 88.0174 27.8042 88.0174 27.4119ZM91.0114 32.223V25.1509H95.4715V26.1523H92.1574V28.1552H94.8521V29.1464H92.1574V31.2112H95.4715V32.223H91.0114ZM97.1441 32.223V31.1803H97.8255V32.223H97.1441ZM99.3225 32.223L101.387 25.0476H102.884L104.939 32.223H104.309L103.731 30.2407H100.53L99.9626 32.223H99.3225ZM101.852 25.6051L100.685 29.6729H103.576L102.409 25.6051H101.852ZM106.611 32.223V25.0476H107.252V32.223H106.611Z" fill="#1D1D1B"/>
<path fill-rule="evenodd" clip-rule="evenodd" d="M109.693 23.8083V23.559H111.5V23.8083H110.738V26.0595H110.463V23.8083H109.693ZM111.854 26.0595V23.559H112.356L113.065 25.6729L113.773 23.559H114.275V26.0595H113.997V23.8553H113.946L113.22 25.9692H112.909L112.183 23.8553H112.132V26.0595H111.854Z" fill="#1D1D1B"/>
</svg>
