<svg width="50" height="9" viewBox="0 0 50 9" fill="none" xmlns="http://www.w3.org/2000/svg">
<path d="M0 0H50L47 4.5L50 9H0V0Z" fill="#F9B94A"/>
<path d="M3.14205 3.59801V3.09091H5.53125V3.59801H4.64062V6H4.03267V3.59801H3.14205ZM6.00472 6V3.09091H7.15244C7.37214 3.09091 7.55964 3.13021 7.71494 3.20881C7.87119 3.28646 7.99004 3.39678 8.07148 3.53977C8.15386 3.68182 8.19506 3.84896 8.19506 4.04119C8.19506 4.23437 8.15339 4.40057 8.07006 4.53977C7.98672 4.67803 7.86598 4.78409 7.70784 4.85795C7.55064 4.93182 7.3603 4.96875 7.13682 4.96875H6.36835V4.47443H7.03739C7.15481 4.47443 7.25235 4.45833 7.33 4.42614C7.40765 4.39394 7.46542 4.34564 7.5033 4.28125C7.54212 4.21686 7.56153 4.13684 7.56153 4.04119C7.56153 3.9446 7.54212 3.86316 7.5033 3.79688C7.46542 3.73059 7.40718 3.6804 7.32858 3.64631C7.25093 3.61127 7.15292 3.59375 7.03455 3.59375H6.61977V6H6.00472ZM7.57574 4.67614L8.29875 6H7.61977L6.91239 4.67614H7.57574ZM10.5066 3.09091H11.1216V4.98011C11.1216 5.19223 11.071 5.37784 10.9697 5.53693C10.8693 5.69602 10.7287 5.82008 10.5478 5.90909C10.3669 5.99716 10.1562 6.04119 9.91568 6.04119C9.6742 6.04119 9.46303 5.99716 9.28216 5.90909C9.10129 5.82008 8.96066 5.69602 8.86028 5.53693C8.75991 5.37784 8.70972 5.19223 8.70972 4.98011V3.09091H9.32477V4.92756C9.32477 5.03835 9.34892 5.13684 9.39722 5.22301C9.44646 5.30919 9.51559 5.37689 9.6046 5.42614C9.69362 5.47538 9.79731 5.5 9.91568 5.5C10.035 5.5 10.1387 5.47538 10.2268 5.42614C10.3158 5.37689 10.3844 5.30919 10.4327 5.22301C10.482 5.13684 10.5066 5.03835 10.5066 4.92756V3.09091ZM13.2858 3.92756C13.2744 3.81297 13.2257 3.72396 13.1395 3.66051C13.0533 3.59706 12.9364 3.56534 12.7887 3.56534C12.6883 3.56534 12.6035 3.57955 12.5344 3.60795C12.4653 3.63542 12.4122 3.67377 12.3753 3.72301C12.3393 3.77225 12.3213 3.82812 12.3213 3.89062C12.3194 3.94271 12.3303 3.98816 12.354 4.02699C12.3786 4.06581 12.4122 4.09943 12.4548 4.12784C12.4975 4.1553 12.5467 4.17945 12.6026 4.20028C12.6584 4.22017 12.7181 4.23722 12.7815 4.25142L13.0429 4.31392C13.1698 4.34233 13.2863 4.38021 13.3923 4.42756C13.4984 4.47491 13.5903 4.53314 13.6679 4.60227C13.7456 4.6714 13.8057 4.75284 13.8483 4.84659C13.8919 4.94034 13.9141 5.04782 13.9151 5.16903C13.9141 5.34706 13.8687 5.50142 13.7787 5.6321C13.6897 5.76184 13.5609 5.86269 13.3923 5.93466C13.2247 6.00568 13.0226 6.04119 12.7858 6.04119C12.551 6.04119 12.3464 6.00521 12.1722 5.93324C11.9989 5.86127 11.8635 5.75473 11.7659 5.61364C11.6693 5.47159 11.6187 5.29593 11.6139 5.08665H12.2091C12.2157 5.18419 12.2437 5.26562 12.2929 5.33097C12.3431 5.39536 12.4099 5.44413 12.4932 5.47727C12.5775 5.50947 12.6726 5.52557 12.7787 5.52557C12.8829 5.52557 12.9733 5.51042 13.05 5.48011C13.1277 5.44981 13.1878 5.40767 13.2304 5.35369C13.273 5.29972 13.2943 5.23769 13.2943 5.16761C13.2943 5.10227 13.2749 5.04735 13.2361 5.00284C13.1982 4.95833 13.1423 4.92045 13.0685 4.8892C12.9956 4.85795 12.9061 4.82955 12.8 4.80398L12.4833 4.72443C12.238 4.66477 12.0443 4.5715 11.9023 4.4446C11.7602 4.31771 11.6897 4.14678 11.6906 3.93182C11.6897 3.75568 11.7366 3.6018 11.8313 3.47017C11.9269 3.33854 12.0581 3.2358 12.2247 3.16193C12.3914 3.08807 12.5808 3.05114 12.7929 3.05114C13.0088 3.05114 13.1973 3.08807 13.3583 3.16193C13.5202 3.2358 13.6461 3.33854 13.7361 3.47017C13.8261 3.6018 13.8725 3.75426 13.8753 3.92756H13.2858ZM14.298 3.59801V3.09091H16.6872V3.59801H15.7966V6H15.1886V3.59801H14.298ZM17.1607 6V3.09091H19.1209V3.59801H17.7757V4.29119H19.02V4.7983H17.7757V5.4929H19.1266V6H17.1607ZM20.7211 6H19.6899V3.09091H20.7296C21.0223 3.09091 21.2742 3.14915 21.4853 3.26562C21.6965 3.38116 21.8589 3.54735 21.9725 3.7642C22.0871 3.98106 22.1444 4.24053 22.1444 4.54261C22.1444 4.84564 22.0871 5.10606 21.9725 5.32386C21.8589 5.54167 21.6956 5.70881 21.4825 5.82528C21.2704 5.94176 21.0166 6 20.7211 6ZM20.3049 5.47301H20.6956C20.8774 5.47301 21.0303 5.44081 21.1544 5.37642C21.2794 5.31108 21.3731 5.21023 21.4356 5.07386C21.4991 4.93655 21.5308 4.75947 21.5308 4.54261C21.5308 4.32765 21.4991 4.15199 21.4356 4.01562C21.3731 3.87926 21.2798 3.77888 21.1558 3.71449C21.0317 3.65009 20.8788 3.6179 20.697 3.6179H20.3049V5.47301ZM23.6858 6V3.09091H24.8335C25.0542 3.09091 25.2422 3.13305 25.3975 3.21733C25.5528 3.30066 25.6711 3.41667 25.7526 3.56534C25.835 3.71307 25.8762 3.88352 25.8762 4.0767C25.8762 4.26989 25.8345 4.44034 25.7512 4.58807C25.6678 4.7358 25.5471 4.85085 25.3889 4.93324C25.2317 5.01562 25.0414 5.05682 24.8179 5.05682H24.0864V4.56392H24.7185C24.8369 4.56392 24.9344 4.54356 25.0111 4.50284C25.0887 4.46117 25.1465 4.40388 25.1844 4.33097C25.2232 4.2571 25.2426 4.17235 25.2426 4.0767C25.2426 3.98011 25.2232 3.89583 25.1844 3.82386C25.1465 3.75095 25.0887 3.6946 25.0111 3.65483C24.9334 3.61411 24.835 3.59375 24.7156 3.59375H24.3009V6H23.6858ZM26.5211 6H25.862L26.8663 3.09091H27.6589L28.6618 6H28.0027L27.274 3.75568H27.2512L26.5211 6ZM26.4799 4.85653H28.0368V5.33665H26.4799V4.85653ZM29.0919 6V3.09091H30.2396C30.4593 3.09091 30.6468 3.13021 30.8021 3.20881C30.9584 3.28646 31.0772 3.39678 31.1587 3.53977C31.2411 3.68182 31.2822 3.84896 31.2822 4.04119C31.2822 4.23437 31.2406 4.40057 31.1572 4.53977C31.0739 4.67803 30.9532 4.78409 30.795 4.85795C30.6378 4.93182 30.4475 4.96875 30.224 4.96875H29.4555V4.47443H30.1246C30.242 4.47443 30.3395 4.45833 30.4172 4.42614C30.4948 4.39394 30.5526 4.34564 30.5905 4.28125C30.6293 4.21686 30.6487 4.13684 30.6487 4.04119C30.6487 3.9446 30.6293 3.86316 30.5905 3.79688C30.5526 3.73059 30.4944 3.6804 30.4158 3.64631C30.3381 3.61127 30.2401 3.59375 30.1217 3.59375H29.707V6H29.0919ZM30.6629 4.67614L31.3859 6H30.707L29.9996 4.67614H30.6629ZM31.6861 3.59801V3.09091H34.0753V3.59801H33.1847V6H32.5767V3.59801H31.6861ZM36.982 3.09091V6H36.4508L35.1851 4.16903H35.1638V6H34.5488V3.09091H35.0886L36.3442 4.92045H36.3698V3.09091H36.982ZM37.5702 6V3.09091H39.5304V3.59801H38.1852V4.29119H39.4296V4.7983H38.1852V5.4929H39.5361V6H37.5702ZM40.0994 6V3.09091H41.2471C41.4668 3.09091 41.6543 3.13021 41.8096 3.20881C41.9659 3.28646 42.0847 3.39678 42.1662 3.53977C42.2486 3.68182 42.2897 3.84896 42.2897 4.04119C42.2897 4.23437 42.2481 4.40057 42.1647 4.53977C42.0814 4.67803 41.9607 4.78409 41.8025 4.85795C41.6453 4.93182 41.455 4.96875 41.2315 4.96875H40.463V4.47443H41.1321C41.2495 4.47443 41.347 4.45833 41.4247 4.42614C41.5023 4.39394 41.5601 4.34564 41.598 4.28125C41.6368 4.21686 41.6562 4.13684 41.6562 4.04119C41.6562 3.9446 41.6368 3.86316 41.598 3.79688C41.5601 3.73059 41.5019 3.6804 41.4233 3.64631C41.3456 3.61127 41.2476 3.59375 41.1292 3.59375H40.7145V6H40.0994ZM41.6704 4.67614L42.3934 6H41.7145L41.0071 4.67614H41.6704Z" fill="#333333"/>
</svg>
