<svg width="86" height="15" viewBox="0 0 86 15" fill="none" xmlns="http://www.w3.org/2000/svg">
<path d="M0 0.000976562H86L78.1818 7.30286L86 14.6048H0V0.000976562Z" fill="#F9B94A"/>
<path d="M9.96633 5.34853V4.52568H13.8432V5.34853H12.398V9.24609H11.4115V5.34853H9.96633ZM14.6114 9.24609V4.52568H16.4738C16.8303 4.52568 17.1345 4.58945 17.3865 4.71699C17.64 4.84299 17.8329 5.022 17.965 5.25403C18.0987 5.48452 18.1656 5.75572 18.1656 6.06765C18.1656 6.38112 18.0979 6.65079 17.9627 6.87667C17.8275 7.10101 17.6316 7.27311 17.375 7.39296C17.1199 7.51282 16.811 7.57274 16.4484 7.57274H15.2015V6.77064H16.2871C16.4776 6.77064 16.6359 6.74452 16.7619 6.69228C16.8879 6.64003 16.9816 6.56167 17.0431 6.45718C17.1061 6.35269 17.1376 6.22285 17.1376 6.06765C17.1376 5.91092 17.1061 5.77877 17.0431 5.67121C16.9816 5.56365 16.8871 5.48221 16.7596 5.42689C16.6336 5.37004 16.4745 5.34161 16.2825 5.34161H15.6094V9.24609H14.6114ZM17.1606 7.09794L18.3338 9.24609H17.2321L16.0842 7.09794H17.1606ZM21.9163 4.52568H22.9144V7.59118C22.9144 7.93538 22.8322 8.23655 22.6677 8.4947C22.5049 8.75285 22.2767 8.95414 21.9832 9.09858C21.6897 9.24148 21.3478 9.31294 20.9575 9.31294C20.5657 9.31294 20.223 9.24148 19.9295 9.09858C19.636 8.95414 19.4079 8.75285 19.245 8.4947C19.0821 8.23655 19.0007 7.93538 19.0007 7.59118V4.52568H19.9987V7.5059C19.9987 7.68568 20.0379 7.84549 20.1162 7.98532C20.1961 8.12515 20.3083 8.23502 20.4527 8.31492C20.5972 8.39482 20.7654 8.43477 20.9575 8.43477C21.1511 8.43477 21.3194 8.39482 21.4623 8.31492C21.6067 8.23502 21.7181 8.12515 21.7965 7.98532C21.8764 7.84549 21.9163 7.68568 21.9163 7.5059V4.52568ZM26.426 5.88326C26.4076 5.69733 26.3284 5.55289 26.1886 5.44994C26.0488 5.34699 25.859 5.29551 25.6193 5.29551C25.4564 5.29551 25.3189 5.31856 25.2067 5.36466C25.0946 5.40922 25.0085 5.47145 24.9486 5.55136C24.8902 5.63126 24.861 5.72192 24.861 5.82333C24.8579 5.90785 24.8756 5.9816 24.914 6.0446C24.954 6.1076 25.0085 6.16215 25.0777 6.20825C25.1468 6.25281 25.2267 6.29199 25.3174 6.3258C25.408 6.35807 25.5048 6.38573 25.6078 6.40878L26.0319 6.51019C26.2378 6.55629 26.4268 6.61775 26.5989 6.69458C26.771 6.77141 26.92 6.86591 27.046 6.97808C27.172 7.09025 27.2696 7.2224 27.3388 7.37452C27.4094 7.52665 27.4456 7.70105 27.4471 7.89773C27.4456 8.18661 27.3718 8.43708 27.2258 8.64913C27.0814 8.85964 26.8724 9.02329 26.5989 9.14007C26.3269 9.25531 25.9988 9.31294 25.6147 9.31294C25.2336 9.31294 24.9017 9.25455 24.619 9.13776C24.3378 9.02098 24.1181 8.84812 23.9598 8.61916C23.8031 8.38868 23.7209 8.10364 23.7132 7.76405H24.6789C24.6897 7.92232 24.735 8.05447 24.8149 8.16049C24.8963 8.26498 25.0047 8.34411 25.1399 8.39789C25.2767 8.45014 25.4311 8.47626 25.6032 8.47626C25.7722 8.47626 25.9189 8.45168 26.0434 8.4025C26.1694 8.35333 26.267 8.28496 26.3361 8.19737C26.4053 8.10978 26.4399 8.00914 26.4399 7.89543C26.4399 7.7894 26.4084 7.70028 26.3454 7.62806C26.2839 7.55584 26.1932 7.49438 26.0734 7.44367C25.9551 7.39296 25.8098 7.34687 25.6378 7.30538L25.1238 7.1763C24.7258 7.0795 24.4115 6.92814 24.1811 6.72224C23.9506 6.51634 23.8361 6.23898 23.8376 5.89018C23.8361 5.60437 23.9122 5.35467 24.0658 5.14109C24.221 4.9275 24.4338 4.76078 24.7043 4.64093C24.9747 4.52107 25.282 4.46114 25.6262 4.46114C25.9766 4.46114 26.2824 4.52107 26.5436 4.64093C26.8063 4.76078 27.0107 4.9275 27.1567 5.14109C27.3026 5.35467 27.3779 5.60206 27.3826 5.88326H26.426ZM28.0684 5.34853V4.52568H31.9452V5.34853H30.5001V9.24609H29.5136V5.34853H28.0684ZM32.7135 9.24609V4.52568H35.8943V5.34853H33.7115V6.47331H35.7306V7.29616H33.7115V8.42325H35.9035V9.24609H32.7135ZM38.4909 9.24609H36.8175V4.52568H38.5047C38.9795 4.52568 39.3882 4.62018 39.7309 4.80918C40.0736 4.99665 40.3371 5.26632 40.5215 5.6182C40.7074 5.97008 40.8004 6.39111 40.8004 6.88128C40.8004 7.37299 40.7074 7.79555 40.5215 8.14897C40.3371 8.50238 40.072 8.77359 39.7263 8.96259C39.3821 9.15159 38.9703 9.24609 38.4909 9.24609ZM37.8155 8.39098H38.4494C38.7444 8.39098 38.9926 8.33874 39.1939 8.23425C39.3967 8.12822 39.5488 7.96458 39.6502 7.74331C39.7532 7.5205 39.8047 7.23316 39.8047 6.88128C39.8047 6.53247 39.7532 6.24743 39.6502 6.02616C39.5488 5.8049 39.3975 5.64202 39.1962 5.53753C38.9949 5.43304 38.7467 5.3808 38.4517 5.3808H37.8155V8.39098ZM43.3015 9.24609V4.52568H45.1638C45.5219 4.52568 45.8269 4.59406 46.0789 4.73082C46.3309 4.86604 46.523 5.05427 46.6551 5.29551C46.7888 5.53522 46.8556 5.81181 46.8556 6.12527C46.8556 6.43874 46.788 6.71533 46.6528 6.95503C46.5176 7.19474 46.3217 7.38144 46.0651 7.51512C45.81 7.64881 45.5011 7.71565 45.1385 7.71565H43.9515V6.91585H44.9771C45.1692 6.91585 45.3275 6.88281 45.452 6.81674C45.578 6.74913 45.6717 6.65617 45.7332 6.53785C45.7962 6.418 45.8277 6.28047 45.8277 6.12527C45.8277 5.96854 45.7962 5.83179 45.7332 5.715C45.6717 5.59669 45.578 5.50526 45.452 5.44072C45.326 5.37465 45.1661 5.34161 44.9725 5.34161H44.2995V9.24609H43.3015ZM47.9022 9.24609H46.8327L48.4623 4.52568H49.7484L51.3757 9.24609H50.3062L49.1238 5.60437H49.0869L47.9022 9.24609ZM47.8354 7.39066H50.3615V8.16971H47.8354V7.39066ZM52.0736 9.24609V4.52568H53.936C54.2925 4.52568 54.5967 4.58945 54.8487 4.71699C55.1023 4.84299 55.2951 5.022 55.4273 5.25403C55.5609 5.48452 55.6278 5.75572 55.6278 6.06765C55.6278 6.38112 55.5602 6.65079 55.425 6.87667C55.2897 7.10101 55.0938 7.27311 54.8372 7.39296C54.5821 7.51282 54.2733 7.57274 53.9106 7.57274H52.6637V6.77064H53.7493C53.9398 6.77064 54.0981 6.74452 54.2241 6.69228C54.3501 6.64003 54.4438 6.56167 54.5053 6.45718C54.5683 6.35269 54.5998 6.22285 54.5998 6.06765C54.5998 5.91092 54.5683 5.77877 54.5053 5.67121C54.4438 5.56365 54.3493 5.48221 54.2218 5.42689C54.0958 5.37004 53.9368 5.34161 53.7447 5.34161H53.0717V9.24609H52.0736ZM54.6229 7.09794L55.796 9.24609H54.6943L53.5465 7.09794H54.6229ZM56.2831 5.34853V4.52568H60.1599V5.34853H58.7148V9.24609H57.7283V5.34853H56.2831ZM64.8765 4.52568V9.24609H64.0144L61.9608 6.27509H61.9262V9.24609H60.9282V4.52568H61.8041L63.8416 7.49438H63.8831V4.52568H64.8765ZM65.8309 9.24609V4.52568H69.0116V5.34853H66.8289V6.47331H68.848V7.29616H66.8289V8.42325H69.0208V9.24609H65.8309ZM69.9349 9.24609V4.52568H71.7972C72.1537 4.52568 72.458 4.58945 72.71 4.71699C72.9635 4.84299 73.1563 5.022 73.2885 5.25403C73.4222 5.48452 73.489 5.75572 73.489 6.06765C73.489 6.38112 73.4214 6.65079 73.2862 6.87667C73.151 7.10101 72.955 7.27311 72.6984 7.39296C72.4434 7.51282 72.1345 7.57274 71.7719 7.57274H70.5249V6.77064H71.6105C71.8011 6.77064 71.9593 6.74452 72.0853 6.69228C72.2113 6.64003 72.3051 6.56167 72.3665 6.45718C72.4295 6.35269 72.461 6.22285 72.461 6.06765C72.461 5.91092 72.4295 5.77877 72.3665 5.67121C72.3051 5.56365 72.2106 5.48221 72.083 5.42689C71.957 5.37004 71.798 5.34161 71.6059 5.34161H70.9329V9.24609H69.9349ZM72.4841 7.09794L73.6573 9.24609H72.5555L71.4077 7.09794H72.4841Z" fill="#333333"/>
</svg>
